<svg width="70" height="69" viewBox="0 0 70 69" fill="none" xmlns="http://www.w3.org/2000/svg">
<path d="M51.1562 0.00585938H68.5771C68.8003 0.00589597 69.0137 0.0959881 69.1699 0.254883C69.326 0.413713 69.4127 0.627592 69.4092 0.850586V18.1436C69.4386 18.3836 69.3637 18.6254 69.2041 18.8066C69.0434 18.9879 68.8123 19.0918 68.5703 19.0918C68.3285 19.0917 68.0981 18.9878 67.9375 18.8066C67.777 18.6254 67.703 18.3836 67.7324 18.1436V2.78418L50.874 19.8467C50.5447 20.1729 50.0139 20.1729 49.6846 19.8467V19.8457L42.5811 12.8955L25.9404 28.2549C25.6136 28.5656 25.1022 28.5656 24.7754 28.2549L16.8779 20.3701L1.36426 32.7998C1.21344 32.9148 1.02986 32.9776 0.839844 32.9785C0.583799 32.9821 0.34198 32.8633 0.1875 32.6592C0.0465097 32.487 -0.019108 32.2644 0.00488281 32.0439C0.0289804 31.8227 0.140552 31.6198 0.314453 31.4814L16.3535 18.5918C16.6901 18.3224 17.1751 18.3501 17.4795 18.6553L25.3262 26.502L41.9668 11.1416C42.2954 10.8383 42.8024 10.8381 43.1309 11.1416L50.209 18.0791L66.4521 1.68262H51.1562C50.9161 1.71202 50.6744 1.63732 50.4932 1.47754C50.312 1.31684 50.207 1.08666 50.207 0.844727C50.207 0.602794 50.312 0.371733 50.4932 0.211914C50.6743 0.0512616 50.9162 -0.023514 51.1562 0.00585938Z" fill="white"/>
<path d="M51.1562 0.00585938H68.5771C68.8003 0.00589597 69.0137 0.0959881 69.1699 0.254883C69.326 0.413713 69.4127 0.627592 69.4092 0.850586V18.1436C69.4386 18.3836 69.3637 18.6254 69.2041 18.8066C69.0434 18.9879 68.8123 19.0918 68.5703 19.0918C68.3285 19.0917 68.0981 18.9878 67.9375 18.8066C67.777 18.6254 67.703 18.3836 67.7324 18.1436V2.78418L50.874 19.8467C50.5447 20.1729 50.0139 20.1729 49.6846 19.8467V19.8457L42.5811 12.8955L25.9404 28.2549C25.6136 28.5656 25.1022 28.5656 24.7754 28.2549L16.8779 20.3701L1.36426 32.7998C1.21344 32.9148 1.02986 32.9776 0.839844 32.9785C0.583799 32.9821 0.34198 32.8633 0.1875 32.6592C0.0465097 32.487 -0.019108 32.2644 0.00488281 32.0439C0.0289804 31.8227 0.140552 31.6198 0.314453 31.4814L16.3535 18.5918C16.6901 18.3224 17.1751 18.3501 17.4795 18.6553L25.3262 26.502L41.9668 11.1416C42.2954 10.8383 42.8024 10.8381 43.1309 11.1416L50.209 18.0791L66.4521 1.68262H51.1562C50.9161 1.71202 50.6744 1.63732 50.4932 1.47754C50.312 1.31684 50.207 1.08666 50.207 0.844727C50.207 0.602794 50.312 0.371733 50.4932 0.211914C50.6743 0.0512616 50.9162 -0.023514 51.1562 0.00585938Z" stroke="white"/>
<path d="M68.4736 27.2061C68.9352 27.2132 69.3057 27.5892 69.3057 28.0508V68.0508C69.3359 68.2909 69.2613 68.5327 69.1006 68.7139C68.9408 68.8951 68.7097 68.999 68.4678 68.999C68.2259 68.999 67.9957 68.8951 67.835 68.7139C67.6752 68.5327 67.5995 68.2909 67.6289 68.0508V28.0508C67.6289 27.5839 68.0077 27.2062 68.4736 27.2061Z" fill="white"/>
<path d="M68.4736 27.2061C68.9352 27.2132 69.3057 27.5892 69.3057 28.0508V68.0508C69.3359 68.2909 69.2613 68.5327 69.1006 68.7139C68.9408 68.8951 68.7097 68.999 68.4678 68.999C68.2259 68.999 67.9957 68.8951 67.835 68.7139C67.6752 68.5327 67.5995 68.2909 67.6289 68.0508V28.0508C67.6289 27.5839 68.0077 27.2062 68.4736 27.2061Z" stroke="white"/>
<path d="M55.7886 35.0137C56.0145 35.0101 56.2303 35.098 56.3901 35.2578C56.549 35.4167 56.6369 35.6334 56.6343 35.8584V68.0498C56.6637 68.2899 56.5889 68.5326 56.4292 68.7139C56.2685 68.8951 56.0374 68.998 55.7954 68.998C55.5527 68.998 55.3224 68.895 55.1626 68.7139C55.0019 68.5326 54.9272 68.29 54.9575 68.0498V35.8584C54.954 35.6352 55.0396 35.4206 55.1958 35.2617C55.3529 35.1029 55.5663 35.0137 55.7886 35.0137Z" fill="white"/>
<path d="M55.7886 35.0137C56.0145 35.0101 56.2303 35.098 56.3901 35.2578C56.549 35.4167 56.6369 35.6334 56.6343 35.8584V68.0498C56.6637 68.2899 56.5889 68.5326 56.4292 68.7139C56.2685 68.8951 56.0374 68.998 55.7954 68.998C55.5527 68.998 55.3224 68.895 55.1626 68.7139C55.0019 68.5326 54.9272 68.29 54.9575 68.0498V35.8584C54.954 35.6352 55.0396 35.4206 55.1958 35.2617C55.3529 35.1029 55.5663 35.0137 55.7886 35.0137Z" stroke="white"/>
<path d="M43.0415 47.252C43.4878 47.2584 43.853 47.6123 43.8735 48.0586V68.0518C43.903 68.2917 43.828 68.5336 43.6685 68.7148C43.5077 68.8961 43.2766 69 43.0347 69C42.7919 68.9999 42.5616 68.896 42.4019 68.7148C42.2413 68.5336 42.1664 68.2918 42.1968 68.0518V48.0967C42.1968 47.6306 42.5745 47.252 43.0415 47.252Z" fill="white"/>
<path d="M43.0415 47.252C43.4878 47.2584 43.853 47.6123 43.8735 48.0586V68.0518C43.903 68.2917 43.828 68.5336 43.6685 68.7148C43.5077 68.8961 43.2766 69 43.0347 69C42.7919 68.9999 42.5616 68.896 42.4019 68.7148C42.2413 68.5336 42.1664 68.2918 42.1968 68.0518V48.0967C42.1968 47.6306 42.5745 47.252 43.0415 47.252Z" stroke="white"/>
<path d="M29.9075 40.9551C30.3708 40.9614 30.7451 41.3365 30.7522 41.7998V68.0537C30.752 68.5205 30.3743 68.8984 29.9075 68.8984C29.4406 68.8984 29.063 68.5205 29.0627 68.0537V41.7998C29.0699 41.3364 29.4441 40.9613 29.9075 40.9551Z" fill="white"/>
<path d="M29.9075 40.9551C30.3708 40.9614 30.7451 41.3365 30.7522 41.7998V68.0537C30.752 68.5205 30.3743 68.8984 29.9075 68.8984C29.4406 68.8984 29.063 68.5205 29.0627 68.0537V41.7998C29.0699 41.3364 29.4441 40.9613 29.9075 40.9551Z" stroke="white"/>
<path d="M17.03 49.2607C17.2504 49.2608 17.4617 49.3487 17.6179 49.5049C17.7741 49.6602 17.862 49.8714 17.8621 50.0928V68.0127C17.8914 68.2527 17.8166 68.4946 17.657 68.6758C17.4963 68.857 17.2652 68.9609 17.0232 68.9609C16.7813 68.9609 16.5501 68.857 16.3904 68.6758C16.2298 68.4946 16.155 68.2528 16.1853 68.0127V50.0928C16.1854 49.8696 16.2745 49.6562 16.4333 49.5C16.5923 49.3429 16.8069 49.2572 17.03 49.2607Z" fill="white"/>
<path d="M17.03 49.2607C17.2504 49.2608 17.4617 49.3487 17.6179 49.5049C17.7741 49.6602 17.862 49.8714 17.8621 50.0928V68.0127C17.8914 68.2527 17.8166 68.4946 17.657 68.6758C17.4963 68.857 17.2652 68.9609 17.0232 68.9609C16.7813 68.9609 16.5501 68.857 16.3904 68.6758C16.2298 68.4946 16.155 68.2528 16.1853 68.0127V50.0928C16.1854 49.8696 16.2745 49.6562 16.4333 49.5C16.5923 49.3429 16.8069 49.2572 17.03 49.2607Z" stroke="white"/>
<path d="M4.2688 56.2119C4.7258 56.212 5.09998 56.5743 5.11353 57.0312V68.0645C5.11353 68.5314 4.73573 68.9101 4.2688 68.9102C3.80183 68.9102 3.42407 68.5314 3.42407 68.0645V57.0439C3.43129 56.5824 3.80726 56.2119 4.2688 56.2119Z" fill="white"/>
<path d="M4.2688 56.2119C4.7258 56.212 5.09998 56.5743 5.11353 57.0312V68.0645C5.11353 68.5314 4.73573 68.9101 4.2688 68.9102C3.80183 68.9102 3.42407 68.5314 3.42407 68.0645V57.0439C3.43129 56.5824 3.80726 56.2119 4.2688 56.2119Z" stroke="white"/>
</svg>
