<svg width="80" height="72" viewBox="0 0 80 72" fill="none" xmlns="http://www.w3.org/2000/svg">
<path d="M15.5177 0.000332057C15.0947 0.0808194 14.7599 0.492919 14.7676 0.923692V26.7704C14.7605 27.2578 15.2029 27.7066 15.6909 27.7066C16.1784 27.7066 16.6207 27.2578 16.6143 26.7704V1.84679H59.9998C60.4872 1.85387 60.936 1.41152 60.936 0.923429C60.936 0.436001 60.4872 -0.00635949 59.9998 6.92152e-05H15.5198L15.5177 0.000332057ZM21.9792 6.46184C21.5562 6.54233 21.2214 6.95443 21.2291 7.3852V33.2319C21.222 33.7193 21.6644 34.1681 22.1524 34.1681C22.6399 34.1681 23.0822 33.7193 23.0758 33.2319V8.30829H66.4613C66.9487 8.31473 67.3975 7.87302 67.3975 7.38493C67.3975 6.89751 66.9487 6.45515 66.4613 6.46158H21.9813L21.9792 6.46184ZM28.4407 12.9233C28.0177 13.0038 27.6829 13.4159 27.6906 13.8467V39.6934C27.6906 40.177 28.1304 40.6167 28.614 40.6167H72.5378C73.0252 40.6258 73.474 40.1815 73.474 39.6934C73.474 39.206 73.0252 38.7636 72.5378 38.77H29.5387V14.7695H71.9995V39.6931C71.9924 40.1812 72.4347 40.6294 72.9228 40.6294C73.4102 40.6294 73.8526 40.1806 73.8462 39.6931V13.8464C73.8462 13.3629 73.4064 12.9231 72.9228 12.9231H28.4428L28.4407 12.9233ZM50.7681 19.3849C46.7006 19.3849 43.3832 22.7022 43.3832 26.7698C43.3832 30.8373 46.7006 34.1547 50.7681 34.1547C54.8357 34.1547 58.1531 30.8373 58.1531 26.7698C58.1531 22.7022 54.8357 19.3849 50.7681 19.3849ZM62.5953 19.3849C62.1117 19.4299 61.7131 19.9109 61.7589 20.3945C61.8039 20.8781 62.2849 21.2766 62.7685 21.2309H66.4605C66.948 21.238 67.3968 20.7956 67.3968 20.3076C67.3968 19.8201 66.948 19.3778 66.4605 19.3842L62.5953 19.3849ZM50.7681 21.2309C53.8376 21.2309 56.3064 23.6997 56.3064 26.7698C56.3064 29.8399 53.8376 32.3087 50.7681 32.3087C47.6987 32.3087 45.2299 29.8399 45.2299 26.7698C45.2299 23.6997 47.6987 21.2309 50.7681 21.2309ZM34.9024 32.3079C34.4188 32.3529 34.0203 32.8339 34.066 33.3175C34.1111 33.8011 34.5921 34.1996 35.0756 34.1539H38.7677C39.2551 34.1629 39.7039 33.7187 39.7039 33.2306C39.7039 32.7425 39.2551 32.3008 38.7677 32.3072L34.9024 32.3079ZM23.9987 45.2315C18.6485 45.2315 15.1734 46.5309 12.1141 48.2314C9.05441 49.9326 6.41699 51.9654 2.42147 53.6261C1.92888 53.7716 1.63463 54.3833 1.82843 54.8592C2.02225 55.335 2.65971 55.5675 3.1143 55.3279C7.33499 53.5732 10.1091 51.4594 13.0084 49.8471C15.9078 48.2348 18.9393 47.0776 23.9985 47.0776C26.7048 47.0776 29.3686 48.2823 34.0369 48.8946C37.212 49.3112 41.718 48.9378 46.1525 48.9519C46.1718 48.9526 46.1911 48.9526 46.2104 48.9519C49.1995 48.7607 51.0049 49.3724 52.066 50.337C53.0692 51.2487 53.4929 52.5855 53.5083 54.2023C53.0557 54.8835 51.5972 55.8956 49.3836 56.7404C47.0424 57.6335 43.9916 58.3901 40.6722 58.9039C34.0337 59.9316 26.3698 59.9252 21.5476 58.2118C21.0879 58.0134 20.4871 58.2716 20.3152 58.7417C20.1426 59.2117 20.4343 59.797 20.9134 59.9426C26.2957 61.855 34.0883 61.8099 40.933 60.75C44.3554 60.2201 47.535 59.43 50.0488 58.4713C52.2799 57.62 53.9025 56.6496 54.8375 55.3555L69.4051 52.6151C73.0914 51.8881 75.7064 52.8984 76.703 54.8938C77.0764 55.6407 77.5523 56.5409 77.5394 57.2015C77.533 57.5318 77.4486 57.8055 77.1647 58.1249C76.8929 58.4301 76.3695 58.7894 75.4919 59.1055C75.4513 59.1204 75.4475 59.1204 75.4056 59.1339C62.7387 62.0894 48.8996 65.8497 36.751 68.3068C34.507 68.7601 32.0203 69.2096 31.357 69.2302L0.894789 70.1535C0.411218 70.1683 -0.0150382 70.6223 0.000407147 71.1052C0.0152169 71.5888 0.469176 72.015 0.95273 71.9996L31.4149 71.0762C32.5926 71.0402 34.8417 70.5515 37.0974 70.0956C49.365 67.6139 63.254 63.8401 75.8954 60.8936C75.925 60.8846 75.9534 60.8762 75.9817 60.8653C77.1388 60.4693 77.983 59.9728 78.5489 59.3367C79.1155 58.7005 79.3718 57.9285 79.3853 57.2312C79.413 55.8352 78.6957 54.6988 78.3757 54.0581C76.9134 51.1315 73.2464 49.9725 69.0585 50.7987L55.2411 53.3949C55.0853 51.7144 54.5714 50.1291 53.308 48.981C51.7768 47.5896 49.415 46.9083 46.1544 47.106H46.0964C41.5756 47.0931 37.0445 47.4408 34.2693 47.0777C29.8392 46.4969 27.2241 45.2315 23.9987 45.2315Z" fill="white"/>
</svg>
