<svg width="84" height="67" viewBox="0 0 84 67" fill="none" xmlns="http://www.w3.org/2000/svg">
<path d="M32.1035 0.849609C32.3604 0.849609 32.6029 0.964088 32.7666 1.15723L32.832 1.24512C32.9905 1.49179 33.0169 1.8032 32.8955 2.07227C31.7454 4.63746 30.9176 6.57503 30.5527 8.39746C34.1026 7.56549 37.8621 7.14456 41.75 7.14453C59.7232 7.14453 72.9282 15.6655 75.583 28.9863C78.0664 28.7126 80.3765 27.6372 81.4004 27.1016L81.9551 26.7959C82.2944 26.5909 82.7277 26.6405 83.0117 26.9189C83.26 27.1625 83.3351 27.5255 83.2168 27.8418L83.1543 27.9736C81.2809 31.1853 79.0781 33.0475 76.082 33.9043C75.9839 44.7272 68.6273 53.8585 56.833 57.8857L54.8203 65.5078V65.5088C54.7365 65.8127 54.4957 66.0398 54.1992 66.1172L54.2148 66.1494H49.0859C48.6869 66.1494 48.3391 65.8772 48.2441 65.4893L46.8848 59.9521C43.7439 60.2695 41.1282 60.303 38.1279 60.0938L36.6992 65.5049C36.5981 65.8849 36.2551 66.1502 35.8613 66.1504H30.9668C30.6176 66.1504 30.3076 65.9418 30.1719 65.6299L30.125 65.4902L28.3916 58.4258C22.4269 56.6873 17.3863 53.6991 13.7539 49.7412L9.06641 51.584C8.33499 51.8736 7.53251 51.8575 6.81055 51.543C6.08811 51.2282 5.5319 50.6501 5.24316 49.917L1.05469 39.2607C0.45948 37.7482 1.20757 36.0319 2.7207 35.4365L7.41699 33.5918C7.44859 25.4217 11.6458 18.0244 18.9551 13.2129C19.1411 10.3738 20.9822 7.30009 23.4736 4.93457C25.9875 2.54779 29.1964 0.849753 32.1035 0.849609ZM30.7021 2.73926C28.412 3.21367 25.9754 4.76335 24.0732 6.75391C22.0945 8.82468 20.7203 11.3405 20.6729 13.5635C20.7202 13.8933 20.5824 14.2299 20.291 14.415C13.1008 18.9849 9.14941 25.8275 9.14941 33.6865C9.14942 33.7482 9.15462 33.8082 9.16016 33.8809L9.17773 34.1553V34.1562C9.1858 34.5189 8.96556 34.8487 8.62695 34.9814L3.35547 37.0537C2.73187 37.2984 2.42351 38.006 2.66895 38.6299L6.85645 49.2852C6.97565 49.5875 7.20471 49.8253 7.50293 49.9551L7.61621 49.998C7.88267 50.0848 8.16839 50.0759 8.43164 49.9707H8.43262L13.6816 47.9082H13.6826C14.0217 47.7778 14.4088 47.8678 14.6514 48.1436L14.6523 48.1445C18.1776 52.1759 23.2566 55.2043 29.3477 56.8955C29.6491 56.9794 29.8829 57.219 29.958 57.5234V57.5244L31.6484 64.418H35.1953L36.6396 58.957C36.7481 58.5467 37.1341 58.2931 37.543 58.3145H37.5469C39.0285 58.4352 40.4047 58.4941 41.752 58.4941C43.5298 58.4941 45.3948 58.3817 47.4541 58.1514C47.8831 58.1044 48.2885 58.3833 48.3926 58.8066L49.7656 64.416H53.3125L55.2754 56.9883C55.3504 56.7044 55.565 56.4778 55.8438 56.3857L56.3848 56.2041C67.6611 52.323 74.3484 43.9347 74.3486 33.6836C74.3486 33.6285 74.3422 33.5803 74.3379 33.5127L74.3232 33.2559C74.3143 32.8436 74.5974 32.4838 74.999 32.3926C76.8976 31.9621 78.4027 31.1309 79.7217 29.7412C78.3559 30.2454 76.6636 30.7053 74.9062 30.7764H74.9043C74.4437 30.788 74.0877 30.4825 74.0156 30.0527C71.8849 17.2155 59.2539 8.87793 41.748 8.87793C37.5437 8.87796 33.5026 9.3868 29.7354 10.3896H29.7344C29.4631 10.4607 29.1729 10.3975 28.9561 10.2158V10.2148C28.7407 10.035 28.6251 9.76124 28.6484 9.48047C28.8234 7.35471 29.573 5.32664 30.7021 2.73926Z" fill="white" stroke="white" stroke-width="0.3"/>
<path d="M17.9597 29.3672C18.2885 29.3672 18.5574 29.5992 18.7351 29.9102C18.9152 30.2254 19.0222 30.6513 19.0222 31.1133C19.0222 31.5753 18.9151 32.0011 18.7351 32.3164C18.5574 32.6275 18.2886 32.8594 17.9597 32.8594C17.631 32.8592 17.3629 32.6274 17.1853 32.3164C17.0053 32.0011 16.8982 31.5753 16.8982 31.1133C16.8982 30.6513 17.0052 30.2254 17.1853 29.9102C17.3629 29.5994 17.6312 29.3674 17.9597 29.3672Z" fill="white" stroke="white" stroke-width="0.3"/>
</svg>
