<svg width="82" height="69" viewBox="0 0 82 69" fill="none" xmlns="http://www.w3.org/2000/svg">
<path d="M80 13.3798V20.9661V38.0483V56.1092V66.6337V67.0929L81 66.0929H75.5932H61.9321H43.8555H25.2025H9.81352H1.52719H0.999994C1.33333 66.4262 1.66665 66.7595 1.99999 67.0929V59.5066V42.4244V24.3635V13.839V13.3798L0.999994 14.3798H6.40678H20.0679H38.1445H56.7975H72.1865H80.4728H81C82.2898 14.3798 82.2898 12.3799 81 12.3799H75.5932H61.9321H43.8555H25.2025H9.81352H1.52719H0.999994C0.455101 12.3799 0 12.835 0 13.3799V20.9661V38.0483V56.1093V66.6338V67.0929C0 67.6378 0.455101 68.0929 0.999994 68.0929H6.40678H20.0679H38.1445H56.7975H72.1865H80.4728H81C81.5449 68.0929 82 67.6378 82 67.0929V59.5067V42.4245V24.3635V13.8391V13.3799C82 12.0908 80.0001 12.0908 80.0001 13.3799L80 13.3798Z" fill="white"/>
<path d="M28.762 8.04761V0.999994L27.762 1.99999H40.1912H54.1095H54.238C53.9047 1.66665 53.5714 1.33333 53.238 0.999994V8.04761C53.238 9.33739 55.238 9.33739 55.238 8.04761V0.999994C55.238 0.455101 54.7829 0 54.238 0H41.8088H27.8905H27.762C27.2171 0 26.762 0.455101 26.762 0.999994V8.04761C26.762 9.33739 28.7619 9.33739 28.7619 8.04761H28.762Z" fill="white"/>
<path d="M80 13.3798V27.1757V27.6655L81 26.6655H75.5932H61.9321H43.8555H25.2025H9.81352H1.52719H0.999994C1.33333 26.9988 1.66665 27.3321 1.99999 27.6655V13.8696V13.3798L0.999994 14.3798H6.40678H20.0679H38.1445H56.7975H72.1865H80.4728H81C82.2898 14.3798 82.2898 12.3799 81 12.3799H75.5932H61.9321H43.8555H25.2025H9.81352H1.52719H0.999994C0.455101 12.3799 0 12.835 0 13.3799V27.1757V27.6655C0 28.2104 0.455101 28.6655 0.999994 28.6655H6.40678H20.0679H38.1445H56.7975H72.1865H80.4728H81C81.5449 28.6655 82 28.2104 82 27.6655V13.8697V13.3799C82 12.0908 80.0001 12.0908 80.0001 13.3799L80 13.3798Z" fill="white"/>
<path d="M48.0004 27.665V37.5697L49.0004 36.5697H34.763H33.0005C33.3338 36.903 33.6671 37.2363 34.0005 37.5697V27.665L33.0005 28.665H47.2378H49.0004C50.2902 28.665 50.2902 26.665 49.0004 26.665H34.763H33.0005C32.4556 26.665 32.0005 27.1201 32.0005 27.665V37.5697C32.0005 38.1146 32.4556 38.5697 33.0005 38.5697H47.2378H49.0004C49.5453 38.5697 50.0004 38.1146 50.0004 37.5697V27.665C50.0004 26.3759 48.0004 26.3759 48.0004 27.665L48.0004 27.665Z" fill="white"/>
</svg>
