<svg width="71" height="75" viewBox="0 0 71 75" fill="none" xmlns="http://www.w3.org/2000/svg">
<path d="M64.76 0.799805C67.7596 0.799805 70.2004 3.24106 70.2004 6.24023V66.7422C70.2002 69.741 67.7596 72.1816 64.76 72.1816H36.2356C35.862 72.1816 35.5589 71.8774 35.5588 71.5049C35.5588 71.1317 35.8621 70.8281 36.2356 70.8281H64.76C67.0135 70.8281 68.8479 68.995 68.8479 66.7412V6.24121C68.8479 3.98723 67.0135 2.1543 64.76 2.1543H23.7795C21.5262 2.15454 19.6926 3.9875 19.6926 6.24121V13.5107C19.6925 13.8838 19.3893 14.1875 19.0159 14.1875C18.6425 14.1873 18.3402 13.883 18.3401 13.5107V6.24121C18.3401 3.24228 20.7799 0.800959 23.7795 0.800781H64.5911V0.799805H64.76Z" fill="white" stroke="white" stroke-width="0.4"/>
<path d="M44.2695 62.2031C45.6686 62.2031 46.8054 63.3406 46.8057 64.7393C46.8057 66.1385 45.6684 67.2764 44.2695 67.2764C42.8707 67.2763 41.7334 66.138 41.7334 64.7393C41.7337 63.3407 42.8715 62.2037 44.2695 62.2031ZM44.2695 63.5576C43.6169 63.5576 43.0862 64.0871 43.0859 64.7393C43.0859 65.3912 43.6168 65.9219 44.2695 65.9219C44.9224 65.9219 45.4531 65.3916 45.4531 64.7393C45.4529 64.0876 44.9222 63.5576 44.2695 63.5576Z" fill="white" stroke="white" stroke-width="0.4"/>
<path d="M45.7583 5.42578C46.1318 5.42578 46.4339 5.73016 46.4341 6.10254C46.4341 6.47574 46.1318 6.78027 45.7583 6.78027H42.7817C42.4083 6.78006 42.106 6.47498 42.106 6.10254C42.1062 5.72965 42.4085 5.42599 42.7817 5.42578H45.7583Z" fill="white" stroke="white" stroke-width="0.4"/>
<path d="M27.8711 17.4355C30.8712 17.4355 33.3105 19.8768 33.3105 22.876V68.6348C33.3104 71.6337 30.8708 74.0742 27.8711 74.0742H6.23926C3.23987 74.074 0.799952 71.6337 0.799805 68.6348V22.876C0.799805 19.877 3.23965 17.4357 6.23926 17.4355H27.8711ZM6.23926 18.7891C3.98585 18.7892 2.15234 20.6222 2.15234 22.876V68.6348C2.15249 70.8885 3.98606 72.7215 6.23926 72.7217H27.8711C30.1246 72.7217 31.9579 70.8885 31.958 68.6348V22.876C31.958 20.622 30.1245 18.7891 27.8711 18.7891H6.23926Z" fill="white" stroke="white" stroke-width="0.4"/>
<path d="M17.0562 64.0957C18.4549 64.0957 19.592 65.2328 19.5923 66.6318C19.5923 68.0311 18.4545 69.1689 17.0562 69.1689C15.6571 69.1687 14.52 68.0305 14.52 66.6318C14.5203 65.2329 15.6577 64.096 17.0562 64.0957ZM17.0562 65.4502C16.4036 65.4505 15.8728 65.9799 15.8726 66.6318C15.8726 67.2835 16.4035 67.8142 17.0562 67.8145C17.7089 67.8145 18.2397 67.2838 18.2397 66.6318C18.2395 65.9801 17.7088 65.4502 17.0562 65.4502Z" fill="white" stroke="white" stroke-width="0.4"/>
<path d="M18.5461 22.0605C18.9196 22.0607 19.2217 22.365 19.2219 22.7373C19.2219 23.1104 18.9196 23.4149 18.5461 23.415H15.5686C15.195 23.4148 14.8921 23.1109 14.8928 22.7373C14.893 22.3644 15.1954 22.0608 15.5686 22.0605H18.5461Z" fill="white" stroke="white" stroke-width="0.4"/>
</svg>
