<svg width="73" height="75" viewBox="0 0 73 75" fill="none" xmlns="http://www.w3.org/2000/svg">
<path d="M19.6025 0.000976562V7.3623H43.0107V0.000976562H53.3496V7.3623H62.6963V34.6572C68.144 38.0685 71.8116 43.7076 72.7227 50.0703C73.6336 56.4324 71.6949 62.8732 67.4229 67.6758C63.1506 72.4784 56.9793 75.1559 50.5537 74.9932C44.1284 74.8304 38.1012 71.845 34.0781 66.832H0V7.36133H9.26465V0L19.6025 0.000976562ZM51.1172 33.002C45.7642 33.002 40.6306 35.1292 36.8457 38.9141C33.061 42.6989 30.9346 47.8323 30.9346 53.1846C30.9347 58.5368 33.061 63.6703 36.8457 67.4551C40.6306 71.2399 45.7642 73.3662 51.1172 73.3662C56.4694 73.3661 61.6029 71.2398 65.3877 67.4551C69.054 63.7886 71.1636 58.8561 71.292 53.6855L71.2988 53.1846C71.2768 47.8385 69.143 42.7178 65.3633 38.9375C61.5831 35.1574 56.4624 33.024 51.1172 33.002ZM1.6543 22.6631V65.1777H32.8369C29.9359 60.7632 28.7329 55.4469 29.4512 50.2139C30.1701 44.9809 32.7618 40.1854 36.7451 36.7168C40.7289 33.2477 45.8338 31.3413 51.1162 31.3486C54.5681 31.3492 57.9708 32.1714 61.042 33.7471V22.6631H1.6543ZM1.6543 9.01562V21.0088H61.042V9.01562H53.3496V14.1436H43.0107V9.01562H19.6035V14.1436H9.34668V9.01562H1.6543ZM10.918 1.6543V12.4893H17.9482L17.9492 1.6543H10.918ZM44.665 1.6543V12.4893H51.6953L51.6963 1.6543H44.665Z" fill="white"/>
<path d="M19.6025 0.000976562V7.3623H43.0107V0.000976562H53.3496V7.3623H62.6963V34.6572C68.144 38.0685 71.8116 43.7076 72.7227 50.0703C73.6336 56.4324 71.6949 62.8732 67.4229 67.6758C63.1506 72.4784 56.9793 75.1559 50.5537 74.9932C44.1284 74.8304 38.1012 71.845 34.0781 66.832H0V7.36133H9.26465V0L19.6025 0.000976562ZM51.1172 33.002C45.7642 33.002 40.6306 35.1292 36.8457 38.9141C33.061 42.6989 30.9346 47.8323 30.9346 53.1846C30.9347 58.5368 33.061 63.6703 36.8457 67.4551C40.6306 71.2399 45.7642 73.3662 51.1172 73.3662C56.4694 73.3661 61.6029 71.2398 65.3877 67.4551C69.054 63.7886 71.1636 58.8561 71.292 53.6855L71.2988 53.1846C71.2768 47.8385 69.143 42.7178 65.3633 38.9375C61.5831 35.1574 56.4624 33.024 51.1172 33.002ZM1.6543 22.6631V65.1777H32.8369C29.9359 60.7632 28.7329 55.4469 29.4512 50.2139C30.1701 44.9809 32.7618 40.1854 36.7451 36.7168C40.7289 33.2477 45.8338 31.3413 51.1162 31.3486C54.5681 31.3492 57.9708 32.1714 61.042 33.7471V22.6631H1.6543ZM1.6543 9.01562V21.0088H61.042V9.01562H53.3496V14.1436H43.0107V9.01562H19.6035V14.1436H9.34668V9.01562H1.6543ZM10.918 1.6543V12.4893H17.9482L17.9492 1.6543H10.918ZM44.665 1.6543V12.4893H51.6953L51.6963 1.6543H44.665Z" stroke="white"/>
<path d="M51.92 59.768C52.6973 59.768 53.372 59.5773 53.944 59.196C54.5307 58.8147 54.9633 58.2647 55.242 57.546L56.518 58.272C56.1367 59.2253 55.5427 59.966 54.736 60.494C53.944 61.0073 53.0053 61.264 51.92 61.264C50.336 61.264 49.0307 60.7213 48.004 59.636C46.992 58.5507 46.354 57.0547 46.09 55.148H44.44V53.872H45.98V53.3C45.98 52.904 45.9873 52.6547 46.002 52.552H44.44V51.276H46.134C46.398 49.428 47.036 47.976 48.048 46.92C49.0747 45.864 50.3653 45.336 51.92 45.336C53.0053 45.336 53.944 45.6 54.736 46.128C55.5427 46.6413 56.1367 47.3673 56.518 48.306L55.242 49.032C54.626 47.5653 53.5187 46.832 51.92 46.832C50.8053 46.832 49.874 47.2207 49.126 47.998C48.3927 48.7753 47.9087 49.868 47.674 51.276H53.24V52.552H47.542C47.5273 52.6547 47.52 52.904 47.52 53.3C47.52 53.608 47.5273 53.7987 47.542 53.872H53.24V55.148H47.652C47.872 56.6293 48.3487 57.7733 49.082 58.58C49.83 59.372 50.776 59.768 51.92 59.768Z" fill="white"/>
</svg>
