<svg width="78" height="75" viewBox="0 0 78 75" fill="none" xmlns="http://www.w3.org/2000/svg">
<path d="M0.850855 46.1704C1.37328 46.2746 1.89571 45.8571 1.99991 45.4388C2.31322 44.394 3.25315 41.4693 4.50703 40.216C6.07357 38.6495 8.16336 37.8137 10.4614 37.8137C12.6553 37.8137 14.7443 38.6495 16.4157 40.216C17.8774 41.7826 18.713 43.8724 18.713 46.0654C18.713 46.692 19.1305 47.1102 19.7579 47.1102C20.3845 47.1102 20.8027 46.6927 20.8027 46.0654C20.8027 43.8714 21.6385 41.7825 23.205 40.111C24.7716 38.5445 26.8614 37.7087 29.1594 37.7087C31.3533 37.7087 33.4423 38.5445 35.1137 40.111C36.6796 41.7825 37.5146 43.8722 37.5146 46.0654V68.7323C37.5146 71.0303 35.6347 72.9101 33.3367 72.9101C31.0387 72.9101 29.1588 71.0303 29.1588 68.7323C29.1588 68.1057 28.7413 67.6874 28.114 67.6874C27.4874 67.6874 27.0691 68.1049 27.0691 68.7323C27.0691 72.1793 29.8896 75 33.3368 75C36.7841 75 39.6046 72.1795 39.6046 68.7323V46.0654C39.6046 43.8714 40.4403 41.7825 42.0069 40.111C43.5734 38.5445 45.6632 37.7087 47.9612 37.7087C50.1552 37.7087 52.2441 38.5445 53.9156 40.111C55.4814 41.7825 56.3171 43.8722 56.3171 46.0654C56.3171 46.692 56.7346 47.1102 57.362 47.1102C57.9886 47.1102 58.4068 46.6927 58.4068 46.0654C58.4068 43.8714 59.2426 41.7825 60.8091 40.111C62.3757 38.5445 64.4655 37.7087 66.7635 37.7087C68.9574 37.7087 71.0464 38.5445 72.7178 40.111C73.9711 41.3643 74.9118 44.2889 75.225 45.3338C75.3292 45.8562 75.8516 46.1695 76.374 46.0653C76.8964 45.9612 77.314 45.5429 77.314 45.0205C77.314 24.0249 60.4966 6.99857 39.7099 6.37184V6.26765V1.04486C39.7099 0.418234 39.2924 0 38.665 0C38.0384 0 37.6201 0.417506 37.6201 1.04486V6.26765V6.37184C16.8334 6.89427 0.016049 24.0251 0.016049 45.0205C-0.0881438 45.6478 0.32936 46.0653 0.851789 46.1703L0.850855 46.1704ZM38.5594 8.56627C56.7349 8.56627 71.8808 21.8323 74.7011 39.2763C74.492 39.0672 74.3878 38.8588 74.1787 38.7539C72.1938 36.769 69.5824 35.725 66.762 35.725C63.9415 35.725 61.3301 36.7699 59.3452 38.7539C58.5095 39.5896 57.7787 40.5295 57.3604 41.5743C56.8379 40.5295 56.2113 39.5895 55.3755 38.7539C53.3907 36.769 50.7793 35.725 47.9588 35.725C45.1383 35.725 42.5269 36.7699 40.5421 38.7539C40.0196 39.2763 39.4972 39.9029 39.1839 40.5295C38.9748 40.4253 38.7664 40.3204 38.5573 40.3204C38.3482 40.3204 38.1398 40.4246 37.9307 40.5295C37.5132 39.9029 37.0949 39.3805 36.5725 38.7539C34.5877 36.769 31.9763 35.725 29.1558 35.725C26.3353 35.725 23.7239 36.7699 21.739 38.7539C20.9033 39.5896 20.1725 40.5295 19.7542 41.5743C19.2318 40.5295 18.6051 39.5895 17.7693 38.7539C15.7845 36.769 13.1731 35.725 10.3526 35.725C7.53211 35.725 4.92072 36.7699 2.93587 38.7539C2.72675 38.963 2.62256 39.1714 2.41344 39.3805C5.23692 21.9364 20.3828 8.56601 38.5589 8.56601L38.5594 8.56627Z" fill="white"/>
</svg>
