<svg width="151" height="62" viewBox="0 0 151 62" fill="none" xmlns="http://www.w3.org/2000/svg">
<path d="M75.7334 0.950195C79.7675 0.950195 83.0517 4.23225 83.0518 8.26855C83.0518 12.3049 79.7687 15.5869 75.7334 15.5869C71.6982 15.5868 68.415 12.3038 68.415 8.26855C68.4151 4.23447 71.6982 0.950272 75.7334 0.950195ZM75.7334 2.50586C72.5561 2.50594 69.9709 5.09 69.9688 8.27051C69.9688 11.4481 72.5539 14.0341 75.7334 14.0342C78.9129 14.0342 81.499 11.4492 81.499 8.27051C81.499 5.09103 78.9121 2.50586 75.7334 2.50586Z" fill="white" stroke="white" stroke-width="0.1"/>
<path d="M79.1699 19.2393C83.2217 19.2394 86.5174 22.5359 86.5176 26.5879V38.665H86.5186V38.7148C86.5185 40.4551 85.1035 41.8691 83.3633 41.8691H82.1875L82.1865 57.8975C82.1864 59.6355 80.7723 61.0497 79.0322 61.0498H72.4336C70.6944 61.0498 69.2794 59.6377 69.2793 57.8975V41.8691H68.1025C66.3646 41.8689 64.9502 40.4549 64.9502 38.7148V26.5879C64.9504 22.5361 68.2458 19.2394 72.2979 19.2393H79.1699ZM72.2998 20.7969C69.1055 20.7969 66.5059 23.3965 66.5059 26.5908V38.7168C66.5059 39.5981 67.2232 40.3153 68.1045 40.3154H70.8359V57.8984C70.8361 58.7796 71.5534 59.496 72.4346 59.4961H79.0332C79.9145 59.4961 80.6316 58.7796 80.6318 57.8984V40.3154H83.3662C84.2476 40.3154 84.9648 39.5982 84.9648 38.7168V26.5908C84.9648 23.3966 82.366 20.7971 79.1719 20.7969H72.2998Z" fill="white" stroke="white" stroke-width="0.1"/>
<path d="M51.8391 5.9502C55.5393 5.95027 58.552 8.96085 58.552 12.6631C58.5519 16.3653 55.5403 19.3759 51.8391 19.376C48.1379 19.376 45.1263 16.3643 45.1262 12.6631C45.1262 8.96279 48.1378 5.9502 51.8391 5.9502ZM51.8391 7.38379C48.9288 7.38379 46.5608 9.7518 46.5588 12.665C46.559 15.5754 48.927 17.9434 51.8391 17.9434C54.7512 17.9433 57.1192 15.5763 57.1194 12.665C57.1194 9.75285 54.7505 7.38387 51.8391 7.38379Z" fill="#EA142E" stroke="#EA142E" stroke-width="0.1"/>
<path d="M54.9883 22.7158C58.7048 22.7158 61.7283 25.7394 61.7285 29.4561V40.5225H61.7295V40.5723C61.7295 42.1698 60.4305 43.4677 58.833 43.4678H57.7588L57.7578 58.1562C57.7578 59.7519 56.4598 61.0508 54.8623 61.0508H48.8135C47.217 61.0507 45.918 59.7537 45.918 58.1562V43.4678H44.8447C43.2491 43.4678 41.9502 42.1698 41.9502 40.5723V29.4561C41.9504 25.7398 44.9729 22.7161 48.6895 22.7158H54.9883ZM48.6914 24.1514C45.7657 24.1515 43.385 26.5324 43.3848 29.458V40.5742C43.3848 41.3798 44.0402 42.035 44.8457 42.0352H47.3545V58.1572C47.3546 58.9628 48.0099 59.6182 48.8154 59.6182H54.8643C55.6697 59.6181 56.3251 58.9627 56.3252 58.1572V42.0352H58.8359C59.6416 42.0352 60.2969 41.3798 60.2969 40.5742V29.458C60.2966 26.5323 57.9159 24.1514 54.9902 24.1514H48.6914Z" fill="#EA142E" stroke="#EA142E" stroke-width="0.1"/>
<path d="M99.8391 5.9502C103.539 5.95027 106.552 8.96085 106.552 12.6631C106.552 16.3653 103.54 19.3759 99.8391 19.376C96.1379 19.376 93.1263 16.3643 93.1262 12.6631C93.1262 8.96279 96.1378 5.9502 99.8391 5.9502ZM99.8391 7.38379C96.9288 7.38379 94.5608 9.7518 94.5588 12.665C94.559 15.5754 96.927 17.9434 99.8391 17.9434C102.751 17.9433 105.119 15.5763 105.119 12.665C105.119 9.75285 102.751 7.38387 99.8391 7.38379Z" fill="white" stroke="white" stroke-width="0.1"/>
<path d="M102.988 22.7158C106.705 22.7158 109.728 25.7394 109.729 29.4561V40.5225H109.729V40.5723C109.729 42.1698 108.43 43.4677 106.833 43.4678H105.759L105.758 58.1562C105.758 59.7519 104.46 61.0508 102.862 61.0508H96.8135C95.217 61.0507 93.918 59.7537 93.918 58.1562V43.4678H92.8447C91.2491 43.4678 89.9502 42.1698 89.9502 40.5723V29.4561C89.9504 25.7398 92.9729 22.7161 96.6895 22.7158H102.988ZM96.6914 24.1514C93.7657 24.1515 91.385 26.5324 91.3848 29.458V40.5742C91.3848 41.3798 92.0402 42.035 92.8457 42.0352H95.3545V58.1572C95.3546 58.9628 96.0099 59.6182 96.8154 59.6182H102.864C103.67 59.6181 104.325 58.9627 104.325 58.1572V42.0352H106.836C107.642 42.0352 108.297 41.3798 108.297 40.5742V29.458C108.297 26.5323 105.916 24.1514 102.99 24.1514H96.6914Z" fill="white" stroke="white" stroke-width="0.1"/>
<path d="M29.9458 10.9502C33.312 10.9504 36.0522 13.6895 36.0522 17.0576C36.052 20.4255 33.3128 23.1638 29.9458 23.1641C26.5786 23.1641 23.8386 20.4248 23.8384 17.0576C23.8384 13.6912 26.5785 10.9502 29.9458 10.9502ZM29.9458 12.2627C27.3027 12.2627 25.1518 14.4128 25.1499 17.0586C25.1499 19.702 27.3008 21.8535 29.9458 21.8535C32.5906 21.8533 34.7417 19.7027 34.7417 17.0586C34.7416 14.4138 32.5898 12.2629 29.9458 12.2627Z" fill="white" stroke="white" stroke-width="0.1"/>
<path d="M32.8076 26.1846C36.1889 26.1846 38.9395 28.9359 38.9395 32.3174V42.3721L38.9404 42.4229C38.9402 43.8775 37.7573 45.0595 36.3027 45.0596H35.3311L35.3301 58.4082C35.3298 59.8611 34.148 61.0439 32.6934 61.0439H27.1943C25.7405 61.0439 24.5579 59.8628 24.5576 58.4082V45.0596H23.5859C22.133 45.0596 20.9504 43.8774 20.9502 42.4229V32.3174C20.9502 28.9361 23.7005 26.1846 27.082 26.1846H32.8076ZM27.083 27.499C24.4259 27.4991 22.2639 29.6613 22.2637 32.3184V42.4238C22.2637 43.1536 22.8572 43.7479 23.5869 43.748H25.8721V58.4082C25.8721 59.138 26.4656 59.7323 27.1953 59.7324H32.6943C33.4242 59.7324 34.0186 59.1381 34.0186 58.4082V43.748H36.3057C37.0355 43.748 37.6289 43.1536 37.6289 42.4238V32.3184C37.6287 29.6612 35.4667 27.4991 32.8096 27.499H27.083Z" fill="white" stroke="white" stroke-width="0.1"/>
<path d="M121.946 10.9502C125.312 10.9504 128.052 13.6895 128.052 17.0576C128.052 20.4255 125.313 23.1638 121.946 23.1641C118.579 23.1641 115.839 20.4248 115.838 17.0576C115.838 13.6912 118.578 10.9502 121.946 10.9502ZM121.946 12.2627C119.303 12.2627 117.152 14.4128 117.15 17.0586C117.15 19.702 119.301 21.8535 121.946 21.8535C124.591 21.8533 126.742 19.7027 126.742 17.0586C126.742 14.4138 124.59 12.2629 121.946 12.2627Z" fill="white" stroke="white" stroke-width="0.1"/>
<path d="M124.808 26.1846C128.189 26.1846 130.939 28.9359 130.939 32.3174V42.3721L130.94 42.4229C130.94 43.8775 129.757 45.0595 128.303 45.0596H127.331L127.33 58.4082C127.33 59.8611 126.148 61.0439 124.693 61.0439H119.194C117.741 61.0439 116.558 59.8628 116.558 58.4082V45.0596H115.586C114.133 45.0596 112.95 43.8774 112.95 42.4229V32.3174C112.95 28.9361 115.701 26.1846 119.082 26.1846H124.808ZM119.083 27.499C116.426 27.4991 114.264 29.6613 114.264 32.3184V42.4238C114.264 43.1536 114.857 43.7479 115.587 43.748H117.872V58.4082C117.872 59.138 118.466 59.7323 119.195 59.7324H124.694C125.424 59.7324 126.019 59.1381 126.019 58.4082V43.748H128.306C129.035 43.748 129.629 43.1536 129.629 42.4238V32.3184C129.629 29.6612 127.467 27.4991 124.81 27.499H119.083Z" fill="white" stroke="white" stroke-width="0.1"/>
<path d="M9.05176 15.9502C12.0847 15.9502 14.5537 18.4176 14.5537 21.4521C14.5537 24.4867 12.0855 26.9541 9.05176 26.9541C6.01804 26.9541 3.5498 24.4859 3.5498 21.4521C3.54983 18.4193 6.01806 15.9502 9.05176 15.9502ZM9.05176 17.1416C6.67534 17.1416 4.7418 19.0753 4.74023 21.4541C4.7405 23.8305 6.6739 25.7636 9.05176 25.7637C11.4296 25.7637 13.363 23.8313 13.3633 21.4541C13.3633 19.0761 11.4292 17.1416 9.05176 17.1416Z" fill="white" stroke="white" stroke-width="0.1"/>
<path d="M11.6289 29.6631C14.6749 29.6633 17.1521 32.1414 17.1523 35.1875V44.2344H17.1533V44.2842C17.1532 45.5963 16.0865 46.662 14.7744 46.6621H13.9043L13.9033 58.6729C13.9032 59.9834 12.8376 61.0498 11.5254 61.0498H6.5752C5.26395 61.0496 4.19738 59.9849 4.19727 58.6729V46.6621H3.32715C2.0167 46.6619 0.950306 45.5962 0.950195 44.2842V35.1875C0.950436 32.1414 3.42827 29.6631 6.47461 29.6631H11.6289ZM6.47559 30.8564C4.08643 30.8565 2.14262 32.8004 2.14258 35.1895V44.2852C2.14258 44.9394 2.67489 45.4717 3.3291 45.4717H5.39062V58.6729C5.39062 59.3271 5.92294 59.8594 6.57715 59.8594H11.5264C12.1806 59.8594 12.7129 59.3271 12.7129 58.6729V45.4717H14.7764C15.4306 45.4717 15.9629 44.9394 15.9629 44.2852V35.1895C15.9629 32.8003 14.019 30.8564 11.6299 30.8564H6.47559Z" fill="white" stroke="white" stroke-width="0.1"/>
<path d="M142.052 15.9502C145.085 15.9502 147.554 18.4176 147.554 21.4521C147.554 24.4867 145.085 26.9541 142.052 26.9541C139.018 26.9541 136.55 24.4859 136.55 21.4521C136.55 18.4193 139.018 15.9502 142.052 15.9502ZM142.052 17.1416C139.675 17.1416 137.742 19.0753 137.74 21.4541C137.74 23.8305 139.674 25.7636 142.052 25.7637C144.43 25.7637 146.363 23.8313 146.363 21.4541C146.363 19.0761 144.429 17.1416 142.052 17.1416Z" fill="white" stroke="white" stroke-width="0.1"/>
<path d="M144.629 29.6631C147.675 29.6633 150.152 32.1414 150.152 35.1875V44.2344H150.153V44.2842C150.153 45.5963 149.086 46.662 147.774 46.6621H146.904L146.903 58.6729C146.903 59.9834 145.838 61.0498 144.525 61.0498H139.575C138.264 61.0496 137.197 59.9849 137.197 58.6729V46.6621H136.327C135.017 46.6619 133.95 45.5962 133.95 44.2842V35.1875C133.95 32.1414 136.428 29.6631 139.475 29.6631H144.629ZM139.476 30.8564C137.086 30.8565 135.143 32.8004 135.143 35.1895V44.2852C135.143 44.9394 135.675 45.4717 136.329 45.4717H138.391V58.6729C138.391 59.3271 138.923 59.8594 139.577 59.8594H144.526C145.181 59.8594 145.713 59.3271 145.713 58.6729V45.4717H147.776C148.431 45.4717 148.963 44.9394 148.963 44.2852V35.1895C148.963 32.8003 147.019 30.8564 144.63 30.8564H139.476Z" fill="white" stroke="white" stroke-width="0.1"/>
</svg>
