<svg width="70" height="65" viewBox="0 0 70 65" fill="none" xmlns="http://www.w3.org/2000/svg">
<path d="M40.2178 0.849609C40.5902 0.849609 40.8916 1.15196 40.8916 1.52441V14.8662H68.5918C68.964 14.8665 69.2656 15.1678 69.2656 15.54V63.4756C69.2656 63.848 68.9633 64.1504 68.5908 64.1504H1.52441C1.15196 64.1504 0.849609 63.848 0.849609 63.4756V15.54C0.849609 15.1676 1.15196 14.8662 1.52441 14.8662H29.0107V1.52441C29.0107 1.15196 29.3121 0.849609 29.6846 0.849609H40.2178ZM2.19824 62.8018H67.918V16.2139H40.8926V19.624C40.8926 19.9964 40.591 20.2977 40.2188 20.2979H29.6846C29.3123 20.2977 29.0107 19.9964 29.0107 19.624V16.2139H2.19824V62.8018ZM30.3584 18.9502H39.5439V15.5547C39.5435 15.55 39.542 15.5446 39.542 15.5391C39.542 15.533 39.5434 15.5275 39.5439 15.5225V2.19824H30.3584V18.9502Z" fill="#EA142E" stroke="#EA142E" stroke-width="0.3"/>
<path d="M25.8142 26.2598C26.1867 26.2598 26.488 26.5621 26.488 26.9346V48.4404C26.4879 48.8128 26.1866 49.1143 25.8142 49.1143H7.97241C7.60004 49.1143 7.29774 48.8128 7.29761 48.4404V26.9346C7.29761 26.5621 7.59996 26.2598 7.97241 26.2598H25.8142ZM8.64624 47.7666H25.1404V27.6084H8.64624V47.7666Z" fill="#EA142E" stroke="#EA142E" stroke-width="0.3"/>
<path d="M62.1447 28.4087C62.517 28.4088 62.8185 28.7111 62.8185 29.0835C62.8182 29.4557 62.5169 29.7572 62.1447 29.7573H33.9845C33.6122 29.7573 33.3099 29.4557 33.3097 29.0835C33.3097 28.711 33.6127 28.4087 33.9845 28.4087H62.1447Z" fill="#EA142E" stroke="#EA142E" stroke-width="0.3"/>
<path d="M62.1447 38.835C62.517 38.8351 62.8185 39.1374 62.8185 39.5098C62.8182 39.8819 62.5169 40.1835 62.1447 40.1836H33.9845C33.6122 40.1836 33.3099 39.882 33.3097 39.5098C33.3097 39.1373 33.612 38.835 33.9845 38.835H62.1447Z" fill="#EA142E" stroke="#EA142E" stroke-width="0.3"/>
<path d="M62.1447 49.2612C62.517 49.2613 62.8185 49.5637 62.8185 49.936C62.8182 50.3082 62.5169 50.6098 62.1447 50.6099H33.9845C33.6122 50.6099 33.3099 50.3083 33.3097 49.936C33.3097 49.5636 33.612 49.2612 33.9845 49.2612H62.1447Z" fill="#EA142E" stroke="#EA142E" stroke-width="0.3"/>
<path d="M25.8142 55.2983C26.1867 55.2983 26.488 55.6007 26.488 55.9731C26.4878 56.3454 26.1865 56.647 25.8142 56.647H7.97241C7.60011 56.647 7.29785 56.3454 7.29761 55.9731C7.29761 55.6007 7.59996 55.2983 7.97241 55.2983H25.8142Z" fill="#EA142E" stroke="#EA142E" stroke-width="0.3"/>
</svg>
