<svg width="63" height="63" viewBox="0 0 63 63" fill="none" xmlns="http://www.w3.org/2000/svg">
<path d="M0.787199 62.9995C1.22169 62.9995 1.57491 62.6474 1.57491 62.2118L1.57436 48.9774H20.2448C20.5612 48.9774 20.8474 48.7879 20.9699 48.4962L28.2817 31.1462H57.2232C57.6577 31.1462 58.0109 30.7941 58.0109 30.3585V26.209H60.5338C61.8922 26.209 62.9979 25.0764 62.9979 23.6844V16.522C62.9979 15.1289 61.8922 13.9963 60.5338 13.9963H58.0109V9.08769C58.0109 8.65209 57.6582 8.29998 57.2232 8.29998H54.7419L57.2808 1.04752C57.3649 0.806386 57.3275 0.539414 57.1798 0.331785C57.0314 0.124142 56.793 0 56.5382 0L3.44477 0.00109915C3.01028 0.00109915 2.65706 0.353203 2.65706 0.788809V20.5828C2.65706 21.0184 3.00971 21.3705 3.44477 21.3705H6.49403V30.3588C6.49403 30.7944 6.84668 31.1465 7.28174 31.1465H26.5737L19.7227 47.4039L1.57542 47.4033V32.5508C1.57542 32.1152 1.22277 31.7631 0.787709 31.7631C0.353214 31.7631 0 32.1152 0 32.5508V62.2123C0.000549271 62.6479 0.353201 63 0.788259 63L0.787199 62.9995ZM60.5348 15.5718C61.0254 15.5718 61.4242 15.9981 61.4242 16.5221V23.6846C61.4242 24.2081 61.0259 24.6343 60.5348 24.6343H58.0119V15.5719L60.5348 15.5718ZM4.23245 1.57496H55.4288L49.0509 19.794H4.23315L4.23245 1.57496ZM8.06877 21.369H49.6086C49.9432 21.369 50.2409 21.1569 50.3518 20.8411L54.191 9.87479H56.4371V29.5689H8.07006L8.07061 21.3684L8.06877 21.369Z" fill="#EA142E"/>
<path d="M51.5126 22.5664C49.9865 22.5664 48.7451 23.8073 48.7451 25.3339C48.7451 26.8599 49.986 28.1013 51.5126 28.1013C53.0386 28.1013 54.28 26.8604 54.28 25.3339C54.2795 23.8078 53.0386 22.5664 51.5126 22.5664ZM51.5126 26.5263C50.8556 26.5263 50.3206 25.9919 50.3206 25.3343C50.3206 24.6768 50.855 24.1423 51.5126 24.1423C52.1701 24.1423 52.7046 24.6768 52.7046 25.3343C52.7046 25.9913 52.1701 26.5263 51.5126 26.5263Z" fill="#EA142E"/>
</svg>
