<svg width="50" height="63" viewBox="0 0 50 63" fill="none" xmlns="http://www.w3.org/2000/svg">
<path d="M25.1328 0.799805C38.5486 0.79998 49.4639 11.7164 49.4639 25.1318C49.4638 28.4649 48.0136 32.371 45.8467 36.3535C43.677 40.3412 40.7759 44.4291 37.8486 48.1309C31.994 55.5346 26.018 61.4138 25.5283 61.8926L25.2715 62.1426L25.1318 62.2793L24.9922 62.1426L24.7354 61.8926C24.2452 61.4138 18.2697 55.5347 12.415 48.1309C9.48786 44.4291 6.58761 40.3412 4.41797 36.3535C2.25108 32.3709 0.799835 28.4649 0.799805 25.1318C0.799805 11.7149 11.7163 0.799805 25.1318 0.799805H25.1328ZM25.1318 1.93359C12.3404 1.93359 1.93359 12.3406 1.93359 25.1318C1.93362 28.1047 3.21682 31.6603 5.20508 35.3779C7.1908 39.0907 9.86822 42.9428 12.6289 46.502C17.9667 53.3836 23.606 59.1534 25.1318 60.6846C26.6574 59.1536 32.297 53.3836 37.6348 46.502C40.3955 42.9428 43.0719 39.0907 45.0576 35.3779C47.046 31.6602 48.3291 28.1047 48.3291 25.1318C48.3291 12.3409 37.9233 1.93365 25.1318 1.93359Z" fill="#EA142E" stroke="#EA142E" stroke-width="0.4"/>
<path d="M25.1311 16.4751C29.9046 16.4751 33.7872 20.3578 33.7874 25.1313C33.7874 29.9054 29.9047 33.7886 25.1311 33.7886C20.3577 33.7884 16.4739 29.9049 16.4739 25.1313C16.474 20.3585 20.3577 16.4752 25.1311 16.4751ZM25.1311 17.6079C20.9825 17.6081 17.6077 20.9828 17.6077 25.1313C17.6078 29.2798 20.9822 32.6546 25.1311 32.6548C29.2797 32.6548 32.6544 29.2799 32.6545 25.1313C32.6545 20.9832 29.2798 17.6079 25.1311 17.6079Z" fill="#EA142E" stroke="#EA142E" stroke-width="0.4"/>
</svg>
