<svg width="66" height="63" viewBox="0 0 66 63" fill="none" xmlns="http://www.w3.org/2000/svg">
<path d="M61.8784 61.4189V4.57422H48.9626V13.0051H37.6276V23.5229H26.2897V32.9969H14.9533V42.471H3.61831V61.4198H0V63.0007H65.956V61.4198L61.8784 61.4189ZM5.19991 61.4189V44.0512H14.954V61.4189H5.19991ZM16.5349 61.4189V34.5766H26.2904V61.4189H16.5349ZM27.8713 61.4189V25.1039H37.6283V61.4226L27.8713 61.4219V61.4189ZM39.2092 61.4189V14.5834H48.9633V61.4189H39.2092ZM50.5442 61.4189V6.15329H60.2983V61.4171H50.5442V61.4189Z" fill="#EA142E"/>
<path d="M3.93737 29.5604L34.9713 2.52651V7.17881H36.5522V0H29.4919V1.58088H33.6515L2.89941 28.3691L3.93737 29.5604Z" fill="#EA142E"/>
</svg>
