<svg width="75" height="65" viewBox="0 0 75 65" fill="none" xmlns="http://www.w3.org/2000/svg">
<path d="M44.0283 0.755859C46.2509 0.868783 48.0242 2.71222 48.0244 4.96289V13.2012C48.0244 13.7717 47.9055 14.3219 47.6865 14.834C48.2067 14.7992 48.7317 14.7783 49.2627 14.7783C62.9021 14.7783 73.999 25.8756 73.999 39.5146C73.9988 53.1545 62.9016 64.25 49.2627 64.25C47.9433 64.25 46.6493 64.1415 45.3857 63.9414C44.8848 64.1451 44.355 64.25 43.8115 64.25H4.84766L4.84375 64.2451C2.57549 64.1816 0.75 62.3189 0.75 60.0381V51.7998C0.750179 50.2064 1.64318 48.8275 2.94922 48.1133C1.64311 47.3991 0.75011 46.0202 0.75 44.4268V36.1885C0.75 34.5948 1.64295 33.2152 2.94922 32.501C1.64312 31.7867 0.75 30.408 0.75 28.8145V20.5762C0.750132 18.9828 1.64238 17.603 2.94824 16.8887C1.64277 16.1743 0.750156 14.7961 0.75 13.2031V4.96484C0.75 2.64151 2.63961 0.751178 4.96289 0.750977L43.8125 0.75L44.0283 0.755859ZM45.5557 63.8291C45.5551 63.83 45.5545 63.831 45.5537 63.832C45.5522 63.8342 45.5502 63.8369 45.5479 63.8398C45.5504 63.8366 45.5531 63.8343 45.5547 63.832L45.5557 63.8291ZM49.2637 15.833C48.4333 15.833 47.6121 15.8771 46.8027 15.9609L46.8018 15.96C46.7987 15.9603 46.7956 15.9617 46.793 15.9619C46.7884 15.9623 46.7844 15.9618 46.7812 15.9619C34.8862 17.2068 25.582 27.2951 25.582 39.5146C25.5823 52.5718 36.2058 63.1953 49.2637 63.1953C62.3209 63.1953 72.9451 52.5718 72.9453 39.5146C72.9453 26.4573 62.3218 15.833 49.2637 15.833ZM4.96582 48.6396C3.22387 48.6396 1.80566 50.0573 1.80566 51.7998L1.80469 60.0371C1.80469 61.7797 3.223 63.1973 4.96484 63.1973H42.1475C34.9057 61.017 29.0575 55.6048 26.2822 48.6396H4.96582ZM4.96582 33.0273C3.22394 33.0273 1.80577 34.4451 1.80566 36.1875V44.1719H1.80664V44.4258C1.80667 46.1682 3.22502 47.5859 4.9668 47.5859H25.8857C25.0093 45.0548 24.5293 42.3401 24.5293 39.5146C24.5293 37.2692 24.8403 35.0965 25.4043 33.0273H4.96582ZM4.96582 17.416C3.22393 17.416 1.80576 18.8338 1.80566 20.5762V28.8467C1.82305 30.5742 3.23397 31.9744 4.96484 31.9746H25.707C27.747 25.6177 32.294 20.379 38.1777 17.416H4.96582ZM4.96582 1.80469C3.22392 1.80469 1.80575 3.22242 1.80566 4.96484V13.2432C1.82719 14.9673 3.23641 16.3633 4.96484 16.3633H40.5703C42.4291 15.6625 44.3933 15.1798 46.4326 14.9463C46.7825 14.4255 46.9717 13.8304 46.9717 13.2031V4.96484C46.9716 3.22227 45.5542 1.80469 43.8125 1.80469H4.96582Z" fill="#EA142E" stroke="#EA142E" stroke-width="0.5"/>
<path d="M50.3359 28.4521C51.8178 28.4911 53.2539 28.8217 54.6074 29.4355C54.8719 29.5555 54.9907 29.8667 54.8691 30.1328L54.8682 30.1318C54.7474 30.3985 54.437 30.5122 54.1738 30.3945H54.1719C52.8661 29.8019 51.4752 29.502 50.0391 29.502C45.7819 29.5021 42.1453 32.1775 40.7002 35.9336H50.2979C50.5875 35.9336 50.8242 36.1688 50.8242 36.46C50.824 36.7509 50.5874 36.9854 50.2979 36.9854H40.3613C40.1485 37.7954 40.0274 38.6406 40.0273 39.5137C40.0273 40.3868 40.1484 41.232 40.3613 42.042H50.2988C50.5883 42.0421 50.8249 42.2765 50.8252 42.5674C50.8252 42.8585 50.5884 43.0936 50.2988 43.0938H40.7002C42.1445 46.8507 45.7819 49.5263 50.04 49.5264C51.4761 49.5264 52.8662 49.2255 54.1729 48.6328C54.4049 48.5271 54.6713 48.605 54.8154 48.8018L54.8691 48.8936L54.8701 48.8945C54.9904 49.1589 54.8731 49.4704 54.6074 49.5908C53.1629 50.247 51.6254 50.5801 50.0391 50.5801C45.1896 50.5799 41.0672 47.4426 39.5752 43.0947H37.3154C37.0257 43.0947 36.7891 42.8596 36.7891 42.5684C36.7892 42.2773 37.0258 42.042 37.3154 42.042H39.2783C39.0853 41.2311 38.9736 40.3869 38.9736 39.5146C38.9736 38.6416 39.0852 37.7978 39.2783 36.9863H37.3154C37.0257 36.9863 36.7891 36.7512 36.7891 36.46C36.7892 36.1689 37.0258 35.9336 37.3154 35.9336H39.5762C41.0684 31.5866 45.191 28.4496 50.0391 28.4482L50.3359 28.4521Z" fill="#EA142E" stroke="#EA142E" stroke-width="0.5"/>
</svg>
