<svg width="78" height="77" viewBox="0 0 78 77" fill="none" xmlns="http://www.w3.org/2000/svg">
<path d="M45.23 0.950195C45.5808 0.950389 45.8647 1.23413 45.8647 1.58496V7.58789C45.8646 7.93868 45.5808 8.22246 45.23 8.22266H39.48V10.0938C41.4551 10.4001 42.9721 12.1125 42.9722 14.1719C42.9722 15.3505 42.4705 16.4105 41.6753 17.1631L76.7231 34.9258C76.7415 34.9352 76.7558 34.9477 76.7661 34.957C76.7773 34.9673 76.7831 34.9732 76.7905 34.9785L76.8472 35.0176C76.8666 35.0322 76.8854 35.0493 76.9028 35.0684L76.9585 35.1494L76.9966 35.208C77.009 35.2293 77.0205 35.2523 77.0298 35.2773C77.0365 35.2955 77.0399 35.3136 77.0425 35.3291C77.0453 35.3463 77.0467 35.3575 77.0493 35.3711L77.062 35.4238C77.067 35.4434 77.0717 35.4665 77.0718 35.4922V75.415C77.0717 75.766 76.788 76.0498 76.437 76.0498H1.54248C1.19158 76.0497 0.907797 75.7659 0.907715 75.415V35.4922C0.907771 35.4665 0.912493 35.4433 0.91748 35.4238C0.923005 35.4023 0.927755 35.3891 0.931152 35.3721L0.937988 35.3291C0.940588 35.3135 0.944005 35.2956 0.950684 35.2773C0.969065 35.2275 0.997396 35.1853 1.02197 35.1484L1.04541 35.1113C1.05383 35.098 1.06371 35.0828 1.07666 35.0684H1.07764C1.11265 35.0301 1.15497 35.0018 1.18994 34.9775C1.19732 34.9722 1.20309 34.9663 1.21436 34.9561C1.22467 34.9467 1.23885 34.9343 1.25732 34.9248L36.1157 17.2598C35.2607 16.5032 34.7183 15.4008 34.7183 14.1719C34.7183 13.821 35.0022 13.5373 35.353 13.5371C35.704 13.5371 35.9888 13.8209 35.9888 14.1719C35.9888 15.2121 36.5543 16.1145 37.3892 16.6143L38.7036 15.9482L38.7729 15.918C38.9372 15.8582 39.1195 15.8686 39.2778 15.9482L40.439 16.5361C41.1986 16.0223 41.7017 15.1559 41.7017 14.1719C41.7016 12.5969 40.4201 11.3157 38.8452 11.3154C38.4942 11.3154 38.2095 11.0307 38.2095 10.6797V8.22266H32.4604C32.1095 8.22266 31.8248 7.9388 31.8247 7.58789V1.58496C31.8248 1.23401 32.1095 0.950195 32.4604 0.950195H45.23ZM2.1792 74.7812H75.8032V36.1289H2.1792V74.7812ZM40.4556 17.9697C39.9601 18.1807 39.4163 18.2998 38.8452 18.2998H38.77L38.771 18.2969C38.289 18.288 37.8293 18.1928 37.4009 18.0312L4.20166 34.8584H73.7808L40.4556 17.9697ZM33.0952 6.95312H38.8286C38.8327 6.9521 38.8385 6.9502 38.8452 6.9502L38.8618 6.95312H44.5952V2.2207H33.0952V6.95312Z" fill="#EA142E" stroke="#EA142E" stroke-width="0.1"/>
<path d="M66.7188 41.1675C67.0419 41.1677 67.3114 41.4065 67.3115 41.7114V68.9839C67.3115 69.2889 67.042 69.5276 66.7188 69.5278C66.3953 69.5278 66.1251 69.2891 66.125 68.9839V41.7114C66.1251 41.4063 66.3954 41.1675 66.7188 41.1675Z" fill="#EA142E" stroke="#EA142E" stroke-width="0.1"/>
<path d="M55.8494 41.1675C56.1725 41.1677 56.442 41.4065 56.4421 41.7114V68.9839C56.4421 69.2889 56.1726 69.5276 55.8494 69.5278C55.526 69.5278 55.2557 69.2891 55.2556 68.9839V41.7114C55.2558 41.4063 55.526 41.1675 55.8494 41.1675Z" fill="#EA142E" stroke="#EA142E" stroke-width="0.1"/>
<path d="M44.9797 41.1675C45.3029 41.1677 45.5724 41.4065 45.5725 41.7114V68.9839C45.5724 69.2889 45.3029 69.5276 44.9797 69.5278C44.6563 69.5278 44.386 69.2891 44.386 68.9839V41.7114C44.3861 41.4063 44.6564 41.1675 44.9797 41.1675Z" fill="#EA142E" stroke="#EA142E" stroke-width="0.1"/>
<path d="M33.0232 41.1675C33.3464 41.1677 33.6158 41.4065 33.616 41.7114V68.9839C33.6159 69.2889 33.3464 69.5276 33.0232 69.5278C32.6998 69.5278 32.4295 69.2891 32.4294 68.9839V41.7114C32.4296 41.4063 32.6998 41.1675 33.0232 41.1675Z" fill="#EA142E" stroke="#EA142E" stroke-width="0.1"/>
<path d="M22.1536 41.1675C22.4767 41.1677 22.7462 41.4065 22.7463 41.7114V68.9839C22.7463 69.2889 22.4768 69.5276 22.1536 69.5278C21.8302 69.5278 21.5599 69.2891 21.5598 68.9839V41.7114C21.56 41.4063 21.8302 41.1675 22.1536 41.1675Z" fill="#EA142E" stroke="#EA142E" stroke-width="0.1"/>
<path d="M11.2842 41.1675C11.6073 41.1677 11.8768 41.4065 11.877 41.7114V68.9839C11.8769 69.2889 11.6074 69.5276 11.2842 69.5278C10.9608 69.5278 10.6905 69.2891 10.6904 68.9839V41.7114C10.6906 41.4063 10.9608 41.1675 11.2842 41.1675Z" fill="#EA142E" stroke="#EA142E" stroke-width="0.1"/>
</svg>
