<svg width="87" height="57" viewBox="0 0 87 57" fill="none" xmlns="http://www.w3.org/2000/svg">
<path d="M79.9434 54.9268H83.3389V51.8955H79.9434V54.9268ZM3.65918 54.9268H7.05469L7.05566 51.8955H3.65918V54.9268ZM2.19727 50.5469H84.7998L84.7979 2.25586H2.19727V50.5469ZM86.1504 51.8975H86L84.6895 51.8965V56.2773H78.5957V51.8965H8.4043V56.2773H2.30957V51.8965H0.849609V0.90625H1L86 0.907227H86.1504V51.8975Z" fill="#EA142E" stroke="#EA142E" stroke-width="0.3"/>
<path d="M35.486 19.9125V21.0685L30.675 31.8125H28.873L33.582 21.3915H28.142V23.5165H26.51V19.9125H35.486ZM40.0773 24.6555C41.7773 24.6555 43.024 24.9785 43.8173 25.6245C44.622 26.2592 45.0243 27.1318 45.0243 28.2425C45.0243 28.9452 44.8543 29.5798 44.5143 30.1465C44.1857 30.7018 43.6813 31.1438 43.0013 31.4725C42.3327 31.7898 41.5053 31.9485 40.5193 31.9485C39.6807 31.9485 38.8703 31.8238 38.0883 31.5745C37.3063 31.3138 36.6603 30.9568 36.1503 30.5035L36.9323 29.1605C37.3403 29.5458 37.8617 29.8575 38.4963 30.0955C39.131 30.3222 39.7997 30.4355 40.5023 30.4355C41.3977 30.4355 42.089 30.2485 42.5763 29.8745C43.075 29.4892 43.3243 28.9678 43.3243 28.3105C43.3243 27.5965 43.0523 27.0582 42.5083 26.6955C41.9643 26.3215 41.035 26.1345 39.7203 26.1345H37.0173L37.6463 19.9125H44.3613V21.3915H39.0743L38.7513 24.6555H40.0773ZM48.857 26.3045C48.0297 26.3045 47.361 26.0042 46.851 25.4035C46.341 24.8028 46.086 24.0208 46.086 23.0575C46.086 22.0942 46.341 21.3122 46.851 20.7115C47.361 20.1108 48.0297 19.8105 48.857 19.8105C49.6844 19.8105 50.3474 20.1108 50.846 20.7115C51.356 21.3008 51.611 22.0828 51.611 23.0575C51.611 24.0322 51.356 24.8198 50.846 25.4205C50.3474 26.0098 49.6844 26.3045 48.857 26.3045ZM56.031 19.9125H57.34L49.214 31.8125H47.905L56.031 19.9125ZM48.857 25.3355C49.3784 25.3355 49.7864 25.1372 50.081 24.7405C50.3757 24.3325 50.523 23.7715 50.523 23.0575C50.523 22.3435 50.3757 21.7882 50.081 21.3915C49.7864 20.9835 49.3784 20.7795 48.857 20.7795C48.347 20.7795 47.939 20.9835 47.633 21.3915C47.3384 21.7995 47.191 22.3548 47.191 23.0575C47.191 23.7602 47.3384 24.3155 47.633 24.7235C47.939 25.1315 48.347 25.3355 48.857 25.3355ZM56.388 31.9145C55.5607 31.9145 54.892 31.6198 54.382 31.0305C53.8834 30.4298 53.634 29.6422 53.634 28.6675C53.634 27.6928 53.8834 26.9108 54.382 26.3215C54.892 25.7208 55.5607 25.4205 56.388 25.4205C57.2154 25.4205 57.884 25.7208 58.394 26.3215C58.904 26.9222 59.159 27.7042 59.159 28.6675C59.159 29.6308 58.904 30.4128 58.394 31.0135C57.884 31.6142 57.2154 31.9145 56.388 31.9145ZM56.388 30.9455C56.898 30.9455 57.3004 30.7415 57.595 30.3335C57.901 29.9255 58.054 29.3702 58.054 28.6675C58.054 27.9648 57.901 27.4095 57.595 27.0015C57.3004 26.5935 56.898 26.3895 56.388 26.3895C55.8667 26.3895 55.4587 26.5935 55.164 27.0015C54.8694 27.3982 54.722 27.9535 54.722 28.6675C54.722 29.3815 54.8694 29.9425 55.164 30.3505C55.4587 30.7472 55.8667 30.9455 56.388 30.9455Z" fill="#EA142E"/>
</svg>
