<svg width="74" height="74" viewBox="0 0 74 74" fill="none" xmlns="http://www.w3.org/2000/svg">
<path d="M31.3451 73.9959C31.3071 73.9959 31.269 73.9928 31.2309 73.987C28.6143 73.5819 26.0131 72.8833 23.5017 71.9114C23.3109 71.8374 23.1591 71.6888 23.0809 71.4996C23.0033 71.3098 23.0053 71.0976 23.0893 70.9104C24.7697 67.1331 24.4913 63.3912 22.4428 62.2083C21.9986 61.9518 21.4866 61.822 20.9219 61.822C18.9193 61.822 16.4329 63.46 14.5873 65.997C14.4668 66.1628 14.2838 66.2713 14.081 66.2984C13.8761 66.326 13.6728 66.2676 13.5138 66.1394C11.4367 64.4637 9.53368 62.5608 7.85797 60.4831C7.72919 60.324 7.67184 60.1191 7.69895 59.9158C7.72606 59.713 7.83398 59.5295 8.0003 59.409C11.3407 56.9773 12.9694 53.6 11.7891 51.5515C11.139 50.4274 9.73127 49.8085 7.82465 49.8085C6.34393 49.8085 4.70586 50.1891 3.08646 50.9086C2.89982 50.9915 2.68709 50.9936 2.49731 50.917C2.30805 50.8393 2.15947 50.686 2.08544 50.4962C1.11308 47.9848 0.41399 45.3836 0.00877437 42.7648C-0.0225084 42.5631 0.0306707 42.3566 0.155284 42.1945C0.279897 42.0323 0.466016 41.9291 0.669357 41.9072C4.78344 41.4739 7.88662 39.3634 7.88876 36.9975C7.88719 34.6341 4.78291 32.5226 0.669357 32.0883C0.466029 32.0664 0.279892 31.9627 0.155284 31.8005C0.0306761 31.6384 -0.0224977 31.433 0.00877437 31.2302C0.413883 28.6124 1.11198 26.0108 2.08437 23.4993C2.1584 23.3085 2.307 23.1562 2.49624 23.0786C2.68551 23.0009 2.89822 23.004 3.08539 23.0869C4.70532 23.8074 6.3434 24.188 7.82465 24.188C9.73074 24.188 11.1379 23.5687 11.788 22.443C12.9684 20.3972 11.3381 17.0203 7.99776 14.5881C7.83197 14.4676 7.72352 14.2846 7.69641 14.0813C7.6693 13.8785 7.72717 13.6731 7.85543 13.514C9.53315 11.4348 11.4372 9.53182 13.5134 7.85771C13.6724 7.72893 13.8752 7.67106 14.0806 7.69869C14.2834 7.7258 14.4664 7.83476 14.5869 8.00004C16.4314 10.536 18.9173 12.1736 20.9204 12.1736C21.4856 12.1736 21.9976 12.0438 22.4422 11.7873C24.4897 10.6054 24.766 6.86454 23.0856 3.08627C23.0027 2.89962 22.9996 2.68638 23.0773 2.49712C23.155 2.30786 23.3077 2.15928 23.498 2.08524C26.011 1.11289 28.6121 0.41473 31.2289 0.0085806C31.4327 -0.0221803 31.6371 0.0304777 31.7992 0.155091C31.9614 0.279697 32.0651 0.465823 32.087 0.669164C32.5213 4.78378 34.6312 7.88643 36.9962 7.88643C39.3617 7.88643 41.4716 4.78378 41.9054 0.669164C41.9262 0.465836 42.03 0.279698 42.1926 0.155091C42.3548 0.0304844 42.5618 -0.0221709 42.7635 0.0085806C45.3807 0.413689 47.9829 1.11231 50.4965 2.08524C50.6879 2.15928 50.8396 2.30787 50.9173 2.49712C50.9949 2.68638 50.9934 2.89909 50.91 3.08627C49.2306 6.86614 49.5069 10.606 51.5528 11.7859C51.998 12.0429 52.5095 12.1732 53.0746 12.1732C55.0761 12.1732 57.5631 10.5355 59.4092 8.00121C59.5297 7.83594 59.7127 7.72697 59.916 7.70091C60.1225 7.67379 60.3243 7.73219 60.4833 7.85992C62.5609 9.53711 64.4639 11.4401 66.1385 13.5163C66.2673 13.6753 66.3247 13.8802 66.2976 14.0835C66.2704 14.2868 66.1615 14.4693 65.9972 14.5898C62.6564 17.0225 61.0291 20.3984 62.2106 22.441C62.8607 23.5682 64.2673 24.1876 66.174 24.1876C67.6531 24.1876 69.2917 23.807 70.9095 23.088C71.0961 23.0056 71.3099 23.003 71.4986 23.0807C71.6879 23.1584 71.8365 23.3112 71.9105 23.5015C72.8844 26.015 73.5825 28.6171 73.9856 31.2339C74.0168 31.4367 73.9637 31.6422 73.8391 31.8043C73.7144 31.9659 73.5288 32.0697 73.3255 32.0916C69.2093 32.5264 66.1082 34.6354 66.1102 36.9977C66.1102 39.3641 69.2113 41.4757 73.3255 41.9106C73.5283 41.9314 73.715 42.0352 73.8391 42.1978C73.9637 42.36 74.0168 42.5664 73.9856 42.7687C73.581 45.3839 72.8824 47.985 71.9105 50.498C71.8365 50.6888 71.6879 50.8405 71.4986 50.9187C71.3104 50.9964 71.0972 50.9948 70.9105 50.9114C69.2906 50.1925 67.6525 49.8129 66.1718 49.8129C64.2652 49.8129 62.8585 50.4318 62.2109 51.5559C61.03 53.6017 62.6572 56.9792 65.9951 59.4123C66.1609 59.5333 66.2693 59.7158 66.2954 59.9191C66.3225 60.1219 66.2646 60.3273 66.1364 60.4864C64.4597 62.565 62.5562 64.468 60.4806 66.1427C60.3216 66.2715 60.1167 66.3272 59.9133 66.3017C59.7105 66.2746 59.527 66.1656 59.4066 66.0004C57.562 63.465 55.0767 61.8267 53.0746 61.8267C52.5094 61.8267 51.9985 61.9576 51.5537 62.2146C49.5063 63.395 49.2295 67.1347 50.9088 70.9142C50.9917 71.1009 50.9938 71.3141 50.9161 71.5034C50.8384 71.6926 50.6856 71.8412 50.4954 71.9152C47.9818 72.8886 45.3797 73.5867 42.7629 73.9908C42.5616 74.0232 42.3547 73.9689 42.1925 73.8443C42.0304 73.7197 41.9271 73.5341 41.9053 73.3302C41.472 69.2162 39.3614 66.1141 36.9961 66.1141C34.6311 66.1141 32.5207 69.2167 32.0869 73.3302C32.065 73.5336 31.9613 73.7197 31.7991 73.8443C31.6693 73.9423 31.5087 73.996 31.345 73.996L31.3451 73.9959ZM36.9978 64.615C40.0108 64.615 42.5817 67.838 43.2912 72.3844C45.2996 72.0288 47.2927 71.4928 49.2395 70.7858C47.5831 66.4939 48.1988 62.4204 50.8077 60.9169C51.4819 60.5274 52.2456 60.3293 53.0762 60.3293C55.3963 60.3293 58.0474 61.9055 60.134 64.4888C61.7038 63.1661 63.1631 61.7062 64.4868 60.1359C60.9129 57.247 59.4123 53.4118 60.917 50.807C61.8425 49.2007 63.7084 48.3159 66.1724 48.3159C67.6327 48.3159 69.2135 48.6345 70.7854 49.2398C71.4908 47.2941 72.0278 45.2998 72.3835 43.293C67.8381 42.5814 64.6162 40.0094 64.6162 36.9965C64.613 33.9866 67.8356 31.4162 72.384 30.7051C72.0284 28.6967 71.493 26.7026 70.7859 24.7568C69.215 25.3632 67.6348 25.6812 66.1744 25.6812C63.7115 25.6812 61.8445 24.7954 60.9169 23.188C59.4107 20.5853 60.9117 16.7517 64.4888 13.8628C63.1661 12.2924 61.7062 10.8327 60.136 9.50892C58.0478 12.0908 55.3951 13.6668 53.0771 13.6668C52.2461 13.6668 51.4823 13.4697 50.8071 13.0792C48.2008 11.5761 47.585 7.50269 49.2415 3.20922C47.2952 2.50276 45.301 1.9668 43.2911 1.61065C42.5815 6.15905 40.0107 9.38115 36.9977 9.38115C33.9848 9.38115 31.4144 6.15905 30.7043 1.61172C28.696 1.96834 26.7018 2.5043 24.7561 3.21029C26.413 7.50216 25.7978 11.5757 23.1894 13.0819C22.5143 13.4713 21.7516 13.6684 20.921 13.6684C18.6009 13.6684 15.9481 12.0913 13.8607 9.50841C12.2908 10.8306 10.8305 12.2905 9.50673 13.8613C13.0839 16.7492 14.5865 20.5838 13.0823 23.1891C12.1532 24.797 10.2862 25.6818 7.82421 25.6818C6.36231 25.6818 4.78042 25.3632 3.20908 24.7558C2.50366 26.7005 1.9677 28.6948 1.61104 30.7041C6.15783 31.4147 9.38154 33.9856 9.38301 36.9965C9.38092 40.0111 6.15783 42.5815 1.61104 43.2904C1.96766 45.2998 2.50362 47.2929 3.20961 49.2377C4.78055 48.6309 6.36124 48.3134 7.82261 48.3134C10.2855 48.3134 12.1525 49.1981 13.0816 50.8039C14.5853 53.4134 13.0832 57.248 9.50767 60.1348C10.8304 61.7057 12.2903 63.1655 13.86 64.4877C15.9476 61.9038 18.6003 60.3266 20.9203 60.3266C21.7508 60.3266 22.5137 60.5237 23.1882 60.9126C25.7982 62.421 26.4139 66.4954 24.757 70.7853C26.7012 71.4907 28.6944 72.0266 30.7027 72.3833C31.4144 67.838 33.9858 64.6149 36.9977 64.6149L36.9978 64.615ZM36.9978 55.5718C26.7567 55.5718 18.4241 47.2403 18.4241 36.9981C18.4241 26.7559 26.7567 18.4244 36.9978 18.4244C47.2401 18.4244 55.5729 26.7569 55.5729 36.9981C55.5729 47.2393 47.2398 55.5718 36.9978 55.5718ZM36.9978 19.9193C27.5803 19.9193 19.919 27.5813 19.919 36.9981C19.919 46.415 27.5799 54.077 36.9978 54.077C46.4163 54.077 54.078 46.416 54.078 36.9981C54.078 27.5806 46.416 19.9193 36.9978 19.9193Z" fill="#EA142E"/>
</svg>
