<svg width="69" height="69" viewBox="0 0 69 69" fill="none" xmlns="http://www.w3.org/2000/svg">
<path d="M48.1255 19.8066C48.8125 19.127 49.8652 20.1873 49.1782 20.8594L49.1333 20.9043C48.0281 22.0915 46.8334 23.2042 45.6909 24.3467L20.8618 49.1758C20.1823 49.8628 19.1296 48.8026 19.8091 48.123C19.824 48.1082 19.8391 48.093 19.854 48.0781C20.9591 46.891 22.154 45.7781 23.2964 44.6357L48.1255 19.8066Z" fill="#EA142E"/>
<path d="M48.1255 19.8066C48.8125 19.127 49.8652 20.1873 49.1782 20.8594L49.1333 20.9043C48.0281 22.0915 46.8334 23.2042 45.6909 24.3467L20.8618 49.1758C20.1823 49.8628 19.1296 48.8026 19.8091 48.123C19.824 48.1082 19.8391 48.093 19.854 48.0781C20.9591 46.891 22.154 45.7781 23.2964 44.6357L48.1255 19.8066Z" stroke="#EA142E"/>
<path d="M23.1995 17.3877C25.8129 17.1263 28.4569 18.6495 29.5471 21.0391C30.667 23.4807 30.1668 26.3553 28.2854 28.2744C26.1498 30.3727 22.7215 30.7761 20.22 29.0811C17.995 27.5726 16.9122 24.8093 17.5618 22.1885C18.2115 19.5528 20.5265 17.6567 23.1995 17.3877ZM27.8293 21.0088C26.7092 19.3213 24.5588 18.5078 22.595 18.9932C20.6311 19.4786 19.0707 21.2036 18.884 23.2422C18.6976 25.3327 19.8098 27.3035 21.7063 28.207C23.5582 29.0881 25.7904 28.6329 27.2317 27.2217C28.867 25.5565 29.1212 22.9652 27.8293 21.0088Z" fill="#EA142E"/>
<path d="M23.1995 17.3877C25.8129 17.1263 28.4569 18.6495 29.5471 21.0391C30.667 23.4807 30.1668 26.3553 28.2854 28.2744C26.1498 30.3727 22.7215 30.7761 20.22 29.0811C17.995 27.5726 16.9122 24.8093 17.5618 22.1885C18.2115 19.5528 20.5265 17.6567 23.1995 17.3877ZM27.8293 21.0088C26.7092 19.3213 24.5588 18.5078 22.595 18.9932C20.6311 19.4786 19.0707 21.2036 18.884 23.2422C18.6976 25.3327 19.8098 27.3035 21.7063 28.207C23.5582 29.0881 25.7904 28.6329 27.2317 27.2217C28.867 25.5565 29.1212 22.9652 27.8293 21.0088Z" stroke="#EA142E"/>
<path d="M44.6753 38.8501C47.2888 38.5888 49.9327 40.1119 51.0229 42.5015C52.1301 44.9153 51.6525 47.7508 49.8237 49.6694C49.8046 49.6921 49.7841 49.7149 49.7612 49.7368C47.6257 51.8351 44.1973 52.2385 41.6958 50.5435C39.4708 49.035 38.388 46.2717 39.0376 43.6509C39.6874 41.0152 42.0023 39.1191 44.6753 38.8501ZM49.3052 42.4712C48.185 40.7837 46.0346 39.9702 44.0708 40.4556C42.1069 40.941 40.5465 42.666 40.3599 44.7046C40.1734 46.7951 41.2856 48.7659 43.1821 49.6694C45.034 50.5505 47.2663 50.0953 48.7075 48.6841C50.3429 47.0189 50.6045 44.4276 49.3052 42.4712Z" fill="#EA142E"/>
<path d="M44.6753 38.8501C47.2888 38.5888 49.9327 40.1119 51.0229 42.5015C52.1301 44.9153 51.6525 47.7508 49.8237 49.6694C49.8046 49.6921 49.7841 49.7149 49.7612 49.7368C47.6257 51.8351 44.1973 52.2385 41.6958 50.5435C39.4708 49.035 38.388 46.2717 39.0376 43.6509C39.6874 41.0152 42.0023 39.1191 44.6753 38.8501ZM49.3052 42.4712C48.185 40.7837 46.0346 39.9702 44.0708 40.4556C42.1069 40.941 40.5465 42.666 40.3599 44.7046C40.1734 46.7951 41.2856 48.7659 43.1821 49.6694C45.034 50.5505 47.2663 50.0953 48.7075 48.6841C50.3429 47.0189 50.6045 44.4276 49.3052 42.4712Z" stroke="#EA142E"/>
<path d="M25.0596 1.30273C28.5391 0.317083 32.1906 -0.115463 35.8047 0.0263672C39.3964 0.160723 42.9735 0.855234 46.3486 2.09473C49.6044 3.2895 52.6742 4.9697 55.4297 7.08301C58.1924 9.20363 60.6113 11.7055 62.6348 14.543C64.6658 17.3879 66.2489 20.5463 67.3242 23.8691C68.4368 27.2891 68.9896 30.896 68.9971 34.4951C68.9971 34.4973 68.9961 34.4998 68.9961 34.502C68.9961 34.5048 68.9971 34.5079 68.9971 34.5107C68.9971 36.2879 68.8557 38.065 68.5869 39.8271C68.0567 43.3293 66.9591 46.7346 65.376 49.9082C63.8377 52.9922 61.8215 55.8448 59.4395 58.3389C57.065 60.8254 54.3015 62.9605 51.2998 64.6406C48.2233 66.3507 44.8777 67.5979 41.4277 68.2998C37.8509 69.0241 34.1694 69.1961 30.5479 68.7705C26.986 68.3523 23.5284 67.3968 20.2578 65.9258C17.0919 64.4921 14.1575 62.5728 11.5664 60.2656C8.99028 57.9807 6.76509 55.2995 4.98047 52.3574C3.16599 49.3781 1.81423 46.1 0.985352 42.71C0.119181 39.1631 -0.180182 35.4665 0.103516 31.8301C0.379883 28.283 1.19432 24.7726 2.5459 21.4795C3.87501 18.2389 5.67491 15.2294 7.89258 12.5264C10.0953 9.86073 12.7013 7.53139 15.5908 5.63477C18.4957 3.72313 21.7067 2.25108 25.0596 1.30273ZM41.0996 2.14746C37.6796 1.44552 34.1472 1.31029 30.6748 1.70605C27.3295 2.08688 24.0144 3.00595 20.9453 4.40234C17.9136 5.77626 15.0901 7.60504 12.6035 9.81543C10.1318 12.0108 7.99607 14.5651 6.28613 17.3877C4.53884 20.27 3.24039 23.4065 2.44141 26.6846C1.61254 30.0897 1.34347 33.6146 1.6123 37.1094C1.87382 40.5141 2.67962 43.8669 3.96387 47.0254C5.20342 50.0721 6.9359 52.9549 9.03418 55.4863C11.1475 58.0401 13.6349 60.287 16.4053 62.1016C19.198 63.931 22.2592 65.3429 25.4775 66.2539C28.8378 67.2097 32.3331 67.6129 35.8203 67.4785C39.2476 67.3515 42.6453 66.6798 45.8711 65.5C48.9998 64.3576 51.9641 62.7146 54.6074 60.6836C57.1985 58.6899 59.5134 56.2846 61.4102 53.6113C63.3366 50.8933 64.8602 47.8991 65.8906 44.7256C66.9584 41.4175 67.4964 37.9674 67.5039 34.4951C67.5039 32.8151 67.3841 31.1352 67.1602 29.4775C66.6373 26.1249 65.6067 22.8468 64.0908 19.8076C62.6048 16.8431 60.6931 14.1168 58.4082 11.7197C56.1084 9.31559 53.4728 7.26967 50.5684 5.64941C47.6114 3.99919 44.4149 2.81954 41.0996 2.14746Z" fill="#EA142E"/>
<path d="M25.0596 1.30273C28.5391 0.317083 32.1906 -0.115463 35.8047 0.0263672C39.3964 0.160723 42.9735 0.855234 46.3486 2.09473C49.6044 3.2895 52.6742 4.9697 55.4297 7.08301C58.1924 9.20363 60.6113 11.7055 62.6348 14.543C64.6658 17.3879 66.2489 20.5463 67.3242 23.8691C68.4368 27.2891 68.9896 30.896 68.9971 34.4951C68.9971 34.4973 68.9961 34.4998 68.9961 34.502C68.9961 34.5048 68.9971 34.5079 68.9971 34.5107C68.9971 36.2879 68.8557 38.065 68.5869 39.8271C68.0567 43.3293 66.9591 46.7346 65.376 49.9082C63.8377 52.9922 61.8215 55.8448 59.4395 58.3389C57.065 60.8254 54.3015 62.9605 51.2998 64.6406C48.2233 66.3507 44.8777 67.5979 41.4277 68.2998C37.8509 69.0241 34.1694 69.1961 30.5479 68.7705C26.986 68.3523 23.5284 67.3968 20.2578 65.9258C17.0919 64.4921 14.1575 62.5728 11.5664 60.2656C8.99028 57.9807 6.76509 55.2995 4.98047 52.3574C3.16599 49.3781 1.81423 46.1 0.985352 42.71C0.119181 39.1631 -0.180182 35.4665 0.103516 31.8301C0.379883 28.283 1.19432 24.7726 2.5459 21.4795C3.87501 18.2389 5.67491 15.2294 7.89258 12.5264C10.0953 9.86073 12.7013 7.53139 15.5908 5.63477C18.4957 3.72313 21.7067 2.25108 25.0596 1.30273ZM41.0996 2.14746C37.6796 1.44552 34.1472 1.31029 30.6748 1.70605C27.3295 2.08688 24.0144 3.00595 20.9453 4.40234C17.9136 5.77626 15.0901 7.60504 12.6035 9.81543C10.1318 12.0108 7.99607 14.5651 6.28613 17.3877C4.53884 20.27 3.24039 23.4065 2.44141 26.6846C1.61254 30.0897 1.34347 33.6146 1.6123 37.1094C1.87382 40.5141 2.67962 43.8669 3.96387 47.0254C5.20342 50.0721 6.9359 52.9549 9.03418 55.4863C11.1475 58.0401 13.6349 60.287 16.4053 62.1016C19.198 63.931 22.2592 65.3429 25.4775 66.2539C28.8378 67.2097 32.3331 67.6129 35.8203 67.4785C39.2476 67.3515 42.6453 66.6798 45.8711 65.5C48.9998 64.3576 51.9641 62.7146 54.6074 60.6836C57.1985 58.6899 59.5134 56.2846 61.4102 53.6113C63.3366 50.8933 64.8602 47.8991 65.8906 44.7256C66.9584 41.4175 67.4964 37.9674 67.5039 34.4951C67.5039 32.8151 67.3841 31.1352 67.1602 29.4775C66.6373 26.1249 65.6067 22.8468 64.0908 19.8076C62.6048 16.8431 60.6931 14.1168 58.4082 11.7197C56.1084 9.31559 53.4728 7.26967 50.5684 5.64941C47.6114 3.99919 44.4149 2.81954 41.0996 2.14746Z" stroke="#EA142E"/>
</svg>
