<svg width="78" height="73" viewBox="0 0 78 73" fill="none" xmlns="http://www.w3.org/2000/svg">
<path d="M34.1224 10.8184C38.542 10.8184 42.7286 12.524 45.9076 15.625C46.2175 15.9349 46.2175 16.4009 45.9076 16.7881C45.5978 17.0978 45.1326 17.0977 44.7455 16.7881C41.8769 13.9969 38.0771 12.4463 34.0453 12.4463C25.5945 12.4463 18.6168 19.3466 18.6166 27.875C18.6166 36.4039 25.5167 43.3047 34.0453 43.3047C42.4962 43.3047 49.474 36.4036 49.474 27.875C49.474 26.7897 49.397 25.7042 49.1644 24.6963C49.0872 24.2314 49.3197 23.8441 49.7845 23.7666C50.2497 23.6893 50.6379 23.9216 50.7152 24.3867C50.9477 25.5493 51.1029 26.7125 51.1029 27.875C51.1024 37.1787 43.5044 44.7772 34.1234 44.7773C24.7416 44.7773 17.1429 37.1795 17.1429 27.7979C17.1431 18.4164 24.741 10.8185 34.1224 10.8184Z" fill="#EA142E"/>
<path d="M34.1224 10.8184C38.542 10.8184 42.7286 12.524 45.9076 15.625C46.2175 15.9349 46.2175 16.4009 45.9076 16.7881C45.5978 17.0978 45.1326 17.0977 44.7455 16.7881C41.8769 13.9969 38.0771 12.4463 34.0453 12.4463C25.5945 12.4463 18.6168 19.3466 18.6166 27.875C18.6166 36.4039 25.5167 43.3047 34.0453 43.3047C42.4962 43.3047 49.474 36.4036 49.474 27.875C49.474 26.7897 49.397 25.7042 49.1644 24.6963C49.0872 24.2314 49.3197 23.8441 49.7845 23.7666C50.2497 23.6893 50.6379 23.9216 50.7152 24.3867C50.9477 25.5493 51.1029 26.7125 51.1029 27.875C51.1024 37.1787 43.5044 44.7772 34.1234 44.7773C24.7416 44.7773 17.1429 37.1795 17.1429 27.7979C17.1431 18.4164 24.741 10.8185 34.1224 10.8184Z" stroke="#EA142E"/>
<path d="M58.468 13.5322C58.8557 13.2998 59.3204 13.4548 59.553 13.8418C59.7855 14.2296 59.6306 14.6952 59.2434 14.9277L34.51 28.4961C34.4326 28.5733 34.2775 28.5732 34.1223 28.5732C33.8126 28.5732 33.5797 28.418 33.425 28.1855C33.1926 27.7979 33.3476 27.3332 33.7346 27.1006L58.468 13.5322Z" fill="#EA142E"/>
<path d="M58.468 13.5322C58.8557 13.2998 59.3204 13.4548 59.553 13.8418C59.7855 14.2296 59.6306 14.6952 59.2434 14.9277L34.51 28.4961C34.4326 28.5733 34.2775 28.5732 34.1223 28.5732C33.8126 28.5732 33.5797 28.418 33.425 28.1855C33.1926 27.7979 33.3476 27.3332 33.7346 27.1006L58.468 13.5322Z" stroke="#EA142E"/>
<path d="M60.0193 6.94189C60.0966 6.55412 60.562 6.24425 61.0271 6.39893C61.4149 6.47627 61.7247 6.94164 61.5701 7.40674L59.864 13.687L66.1443 15.3921C66.5321 15.4694 66.8419 15.9358 66.6873 16.4009C66.6086 16.6332 66.2992 16.8656 65.989 16.8657H65.7566L57.9255 14.772L60.0193 6.94189Z" fill="#EA142E"/>
<path d="M60.0193 6.94189C60.0966 6.55412 60.562 6.24425 61.0271 6.39893C61.4149 6.47627 61.7247 6.94164 61.5701 7.40674L59.864 13.687L66.1443 15.3921C66.5321 15.4694 66.8419 15.9358 66.6873 16.4009C66.6086 16.6332 66.2992 16.8656 65.989 16.8657H65.7566L57.9255 14.772L60.0193 6.94189Z" stroke="#EA142E"/>
<path d="M65.6006 3.76318C65.6779 3.3755 66.1434 3.06578 66.6084 3.22021C66.9962 3.29755 67.307 3.76294 67.1523 4.22803L65.4463 10.5083L71.7266 12.2134C72.1142 12.2909 72.4242 12.7572 72.2695 13.2222C72.2686 13.4545 71.9587 13.6869 71.5713 13.687H71.3389L63.5078 11.5933L65.6006 3.76318Z" fill="#EA142E"/>
<path d="M65.6006 3.76318C65.6779 3.3755 66.1434 3.06578 66.6084 3.22021C66.9962 3.29755 67.307 3.76294 67.1523 4.22803L65.4463 10.5083L71.7266 12.2134C72.1142 12.2909 72.4242 12.7572 72.2695 13.2222C72.2686 13.4545 71.9587 13.6869 71.5713 13.687H71.3389L63.5078 11.5933L65.6006 3.76318Z" stroke="#EA142E"/>
<path d="M71.2615 0.583984C71.3388 0.196209 71.8042 -0.113663 72.2693 0.0410156C72.6571 0.118366 72.9669 0.583736 72.8123 1.04883L71.1062 7.3291L77.3865 9.03418C77.7743 9.11152 78.0841 9.57787 77.9294 10.043C77.8508 10.2753 77.5413 10.5077 77.2312 10.5078H76.9988L69.1677 8.41406L71.2615 0.583984Z" fill="#EA142E"/>
<path d="M71.2615 0.583984C71.3388 0.196209 71.8042 -0.113663 72.2693 0.0410156C72.6571 0.118366 72.9669 0.583736 72.8123 1.04883L71.1062 7.3291L77.3865 9.03418C77.7743 9.11152 78.0841 9.57787 77.9294 10.043C77.8508 10.2753 77.5413 10.5077 77.2312 10.5078H76.9988L69.1677 8.41406L71.2615 0.583984Z" stroke="#EA142E"/>
<path d="M35.3627 21.4399C35.8278 21.5173 36.0601 21.9834 35.9828 22.3706L34.8978 27.3325L40.015 28.8052C40.4028 28.9604 40.7127 29.3489 40.558 29.814C40.4022 30.1237 40.0924 30.3569 39.7826 30.3569H39.5502L32.9594 28.4185L34.433 22.0601C34.5104 21.5952 34.9755 21.3627 35.3627 21.4399Z" fill="#EA142E"/>
<path d="M35.3627 21.4399C35.8278 21.5173 36.0601 21.9834 35.9828 22.3706L34.8978 27.3325L40.015 28.8052C40.4028 28.9604 40.7127 29.3489 40.558 29.814C40.4022 30.1237 40.0924 30.3569 39.7826 30.3569H39.5502L32.9594 28.4185L34.433 22.0601C34.5104 21.5952 34.9755 21.3627 35.3627 21.4399Z" stroke="#EA142E"/>
<path d="M32.2612 18.959C32.7263 18.8817 33.1145 19.1141 33.1919 19.5791C33.2692 20.0441 33.0367 20.4323 32.5718 20.5098C29.1602 21.2074 26.6011 24.3089 26.6011 27.7979C26.6011 31.907 29.9348 35.2411 34.0444 35.2412C36.2926 35.2412 38.3868 34.2332 39.7827 32.5273C40.0926 32.2176 40.5579 32.1398 40.8677 32.4502C41.1775 32.7601 41.2552 33.2253 40.9448 33.5352C39.3949 35.6281 36.8364 36.8691 34.1226 36.8691C29.1605 36.8691 25.0513 32.8373 25.0513 27.7979C25.0513 23.5335 28.0749 19.812 32.2612 18.959Z" fill="#EA142E"/>
<path d="M32.2612 18.959C32.7263 18.8817 33.1145 19.1141 33.1919 19.5791C33.2692 20.0441 33.0367 20.4323 32.5718 20.5098C29.1602 21.2074 26.6011 24.3089 26.6011 27.7979C26.6011 31.907 29.9348 35.2411 34.0444 35.2412C36.2926 35.2412 38.3868 34.2332 39.7827 32.5273C40.0926 32.2176 40.5579 32.1398 40.8677 32.4502C41.1775 32.7601 41.2552 33.2253 40.9448 33.5352C39.3949 35.6281 36.8364 36.8691 34.1226 36.8691C29.1605 36.8691 25.0513 32.8373 25.0513 27.7979C25.0513 23.5335 28.0749 19.812 32.2612 18.959Z" stroke="#EA142E"/>
<path d="M59.8635 18.7261C60.2513 18.5709 60.7161 18.8035 60.8713 19.269C62.5771 25.0066 62.4219 31.5196 60.3284 38.1099C59.6307 40.2807 58.7777 42.3745 57.8469 44.6226C55.5208 50.2822 53.1178 56.0972 54.2805 61.9897L56.6067 71.4487C56.684 71.9138 56.4516 72.302 55.9866 72.3794C55.9093 72.4572 55.8313 72.4556 55.8313 72.4556C55.4438 72.4554 55.1338 72.224 55.0559 71.8364L52.7297 62.3003C51.4891 55.9423 53.9709 49.8947 56.3743 44.0024C57.3045 41.7543 58.1573 39.7376 58.7776 37.644C60.7158 31.3641 60.9485 25.1611 59.3206 19.7339C59.1656 19.3462 59.398 18.8812 59.8635 18.7261Z" fill="#EA142E"/>
<path d="M59.8635 18.7261C60.2513 18.5709 60.7161 18.8035 60.8713 19.269C62.5771 25.0066 62.4219 31.5196 60.3284 38.1099C59.6307 40.2807 58.7777 42.3745 57.8469 44.6226C55.5208 50.2822 53.1178 56.0972 54.2805 61.9897L56.6067 71.4487C56.684 71.9138 56.4516 72.302 55.9866 72.3794C55.9093 72.4572 55.8313 72.4556 55.8313 72.4556C55.4438 72.4554 55.1338 72.224 55.0559 71.8364L52.7297 62.3003C51.4891 55.9423 53.9709 49.8947 56.3743 44.0024C57.3045 41.7543 58.1573 39.7376 58.7776 37.644C60.7158 31.3641 60.9485 25.1611 59.3206 19.7339C59.1656 19.3462 59.398 18.8812 59.8635 18.7261Z" stroke="#EA142E"/>
<path d="M15.6689 6.39795C19.9334 3.29693 27.5316 0.117828 39.7041 2.1333C44.7433 2.98616 48.698 4.38186 51.877 6.55322C53.4274 7.56129 54.8234 8.87962 56.0635 10.2749C56.3734 10.5848 56.2962 11.1281 55.9863 11.438C55.5213 11.6709 55.0559 11.5925 54.7461 11.2827C53.5834 9.96478 52.2644 8.80192 50.8691 7.79443C47.9228 5.77874 44.124 4.38283 39.3945 3.60791C27.7646 1.66959 20.5538 4.69274 16.5996 7.63916C12.5678 10.5855 9.85447 14.7724 9.15625 19.1919C8.84638 21.2853 8.6134 23.0683 8.38086 24.5415C7.3733 31.9838 7.29547 32.0616 3.1084 38.8081L2.17871 40.2808C1.94615 40.7459 1.94621 41.2892 2.33398 41.5991C2.95432 42.2194 3.96226 42.6849 4.96973 42.7622C6.28772 42.9174 7.2959 44.0029 7.2959 45.3208C7.29581 46.2509 6.83091 46.9492 6.52051 47.5688C5.97753 48.499 5.66786 49.0418 6.44336 50.437L6.59863 50.6694C7.14161 51.6775 7.91619 52.9959 7.06348 54.9341C6.52048 56.2521 6.52048 57.4158 7.06348 58.2681C7.6838 59.1982 8.84637 59.8189 10.4746 59.9741C11.4047 60.0514 12.2578 59.9741 13.1885 59.9741C13.7315 59.9741 14.2743 59.896 14.8174 59.896C16.2906 59.896 17.8413 60.0512 19.3145 60.439C21.0975 60.9041 22.493 62.3776 22.8809 64.1606C23.5012 67.1844 23.424 70.1312 22.6484 72.3794C22.57 72.8446 22.2599 72.9994 21.9502 72.9995C21.8729 72.9995 21.795 72.9995 21.7178 72.9224C21.3301 72.7672 21.0976 72.3023 21.1748 71.9146C21.7951 69.899 21.8724 67.185 21.3301 64.4712C21.0975 63.2305 20.1664 62.3002 18.9258 61.9897C17.608 61.6799 16.2124 61.524 14.8174 61.5239C14.2744 61.5239 13.809 61.602 13.2666 61.6021C12.2587 61.6794 11.2511 61.7572 10.2432 61.6021C8.14981 61.3695 6.52167 60.5163 5.59082 59.1206C5.04783 58.1904 4.58194 56.6386 5.5127 54.313C6.05553 53.0725 5.59008 52.2976 5.125 51.4448L4.96973 51.2124C3.72918 48.9643 4.50469 47.7234 5.125 46.7153C5.4349 46.2502 5.66797 45.7847 5.66797 45.2417C5.66774 44.7768 5.28046 44.3894 4.73828 44.312C3.34296 44.1568 2.02376 43.536 1.1709 42.6831C0.318404 41.8303 0.16318 40.4353 0.783203 39.4272L1.79102 38.0317C5.82283 31.5192 5.8226 31.519 6.83008 24.3862C7.06262 22.991 7.29604 21.2074 7.60645 19.0366C8.30412 14.2297 11.2499 9.65419 15.6689 6.39795Z" fill="#EA142E"/>
<path d="M15.6689 6.39795C19.9334 3.29693 27.5316 0.117828 39.7041 2.1333C44.7433 2.98616 48.698 4.38186 51.877 6.55322C53.4274 7.56129 54.8234 8.87962 56.0635 10.2749C56.3734 10.5848 56.2962 11.1281 55.9863 11.438C55.5213 11.6709 55.0559 11.5925 54.7461 11.2827C53.5834 9.96478 52.2644 8.80192 50.8691 7.79443C47.9228 5.77874 44.124 4.38283 39.3945 3.60791C27.7646 1.66959 20.5538 4.69274 16.5996 7.63916C12.5678 10.5855 9.85447 14.7724 9.15625 19.1919C8.84638 21.2853 8.6134 23.0683 8.38086 24.5415C7.3733 31.9838 7.29547 32.0616 3.1084 38.8081L2.17871 40.2808C1.94615 40.7459 1.94621 41.2892 2.33398 41.5991C2.95432 42.2194 3.96226 42.6849 4.96973 42.7622C6.28772 42.9174 7.2959 44.0029 7.2959 45.3208C7.29581 46.2509 6.83091 46.9492 6.52051 47.5688C5.97753 48.499 5.66786 49.0418 6.44336 50.437L6.59863 50.6694C7.14161 51.6775 7.91619 52.9959 7.06348 54.9341C6.52048 56.2521 6.52048 57.4158 7.06348 58.2681C7.6838 59.1982 8.84637 59.8189 10.4746 59.9741C11.4047 60.0514 12.2578 59.9741 13.1885 59.9741C13.7315 59.9741 14.2743 59.896 14.8174 59.896C16.2906 59.896 17.8413 60.0512 19.3145 60.439C21.0975 60.9041 22.493 62.3776 22.8809 64.1606C23.5012 67.1844 23.424 70.1312 22.6484 72.3794C22.57 72.8446 22.2599 72.9994 21.9502 72.9995C21.8729 72.9995 21.795 72.9995 21.7178 72.9224C21.3301 72.7672 21.0976 72.3023 21.1748 71.9146C21.7951 69.899 21.8724 67.185 21.3301 64.4712C21.0975 63.2305 20.1664 62.3002 18.9258 61.9897C17.608 61.6799 16.2124 61.524 14.8174 61.5239C14.2744 61.5239 13.809 61.602 13.2666 61.6021C12.2587 61.6794 11.2511 61.7572 10.2432 61.6021C8.14981 61.3695 6.52167 60.5163 5.59082 59.1206C5.04783 58.1904 4.58194 56.6386 5.5127 54.313C6.05553 53.0725 5.59008 52.2976 5.125 51.4448L4.96973 51.2124C3.72918 48.9643 4.50469 47.7234 5.125 46.7153C5.4349 46.2502 5.66797 45.7847 5.66797 45.2417C5.66774 44.7768 5.28046 44.3894 4.73828 44.312C3.34296 44.1568 2.02376 43.536 1.1709 42.6831C0.318404 41.8303 0.16318 40.4353 0.783203 39.4272L1.79102 38.0317C5.82283 31.5192 5.8226 31.519 6.83008 24.3862C7.06262 22.991 7.29604 21.2074 7.60645 19.0366C8.30412 14.2297 11.2499 9.65419 15.6689 6.39795Z" stroke="#EA142E"/>
</svg>
