<svg width="62" height="79" viewBox="0 0 62 79" fill="none" xmlns="http://www.w3.org/2000/svg">
<path d="M13.194 1L1.00024 12.5161" stroke="#EA142E" stroke-width="1.4" stroke-linecap="round" stroke-linejoin="round"/>
<circle cx="43.5002" cy="61.5" r="12.8" stroke="#EA142E" stroke-width="1.4"/>
<line x1="52.4952" y1="69.505" x2="61.4952" y2="78.505" stroke="#EA142E" stroke-width="1.4"/>
<path fill-rule="evenodd" clip-rule="evenodd" d="M13.1941 0.299805C12.8075 0.299805 12.4941 0.613205 12.4941 0.999805V11.8159H1.00029C0.613694 11.8159 0.300293 12.1293 0.300293 12.5159V70.9998C0.300293 71.3864 0.613694 71.6998 1.00029 71.6998H35.0003V70.2998H1.70029V13.2159H13.1941C13.5807 13.2159 13.8941 12.9025 13.8941 12.5159V1.6998H50.6554L50.6552 51.9998H52.0552L52.0554 0.999807C52.0554 0.814155 51.9816 0.636107 51.8503 0.504831C51.7191 0.373555 51.541 0.299805 51.3554 0.299805H13.1941Z" fill="#EA142E"/>
</svg>
