<svg width="39" height="34" viewBox="0 0 39 34" fill="none" xmlns="http://www.w3.org/2000/svg">
<path d="M39 11.4024L37.4587 10.9887V10.9894L36.5666 10.751L34.6208 11.8736L37.0464 12.5244L35.3993 18.6664L26.8326 16.3707L24.8867 17.494L34.9891 20.2013L35.2269 20.2651L36.5248 20.6129V20.6122L36.5305 20.6143L39 11.4024Z" fill="#707C88"/>
<path d="M36.3285 9.04419L36.3299 9.04135L34.1521 8.45803L7.16154 1.2267V1.22599L5.62019 0.812988V0.813698L5.61735 0.812988L5.20718 2.34865H5.20931L2.74042 11.5613L2.73829 11.5606L2.32812 13.0976L18.5775 17.4521L20.7597 18.0361L21.541 17.584L34.3863 10.1669L36.3285 9.04419ZM20.5248 16.3258L4.28249 11.9736L6.75137 2.76099L32.2068 9.58139L20.5248 16.3258Z" fill="#707C88"/>
<path d="M14.3057 27.765H1.596V23.6733H0V33.3322H1.596V29.3611H15.8932V29.3562H15.9024V18.4184L14.3057 17.9912L14.3057 27.765Z" fill="#707C88"/>
</svg>
