<svg width="39" height="26" viewBox="0 0 39 26" fill="none" xmlns="http://www.w3.org/2000/svg">
<path d="M35.2672 8.19018H35.2527C34.5222 8.19018 33.8172 8.2051 33.1363 8.23188C32.9225 4.10514 29.4973 0.812988 25.3184 0.812988H12.8254C8.65532 0.812988 5.23583 4.09064 5.00926 8.20547C4.58956 8.19537 4.16152 8.18967 3.72344 8.18967H3.70895C2.31951 8.18967 1.18945 9.32017 1.18945 10.7092V19.9003C1.18945 20.2353 1.25574 20.5549 1.37427 20.8477C1.36725 20.8894 1.36242 20.9328 1.36242 20.9767V24.9317C1.36242 25.3457 1.69783 25.6811 2.11182 25.6811H7.24251C7.6565 25.6811 7.99191 25.3457 7.99191 24.9317L7.99235 22.4198H15.2093L17.9457 20.997H20.686L23.6603 22.4198H30.983V24.9308C30.983 25.3448 31.3184 25.6802 31.7324 25.6802H36.8631C37.2771 25.6802 37.6125 25.3448 37.6125 24.9308V20.9758C37.6125 20.9319 37.6081 20.8889 37.6007 20.8468C37.7196 20.554 37.7855 20.2344 37.7855 19.8994L37.7859 10.7092C37.7868 9.32017 36.6571 8.19018 35.2672 8.19018ZM12.8258 2.31222H25.3187C28.6977 2.31222 31.4671 4.974 31.6396 8.31088C29.171 8.47463 27.0168 8.77843 25.0438 9.05676C22.9462 9.35265 21.1353 9.60728 19.489 9.60728C17.8427 9.60728 16.0313 9.35178 13.9341 9.05676C11.7426 8.7477 9.3285 8.40747 6.50826 8.26171C6.7045 4.94809 9.46292 2.31222 12.8258 2.31222ZM6.49343 24.1814H2.86153V22.2731C3.12669 22.3675 3.41161 22.4197 3.70794 22.4197H6.493L6.49343 24.1814ZM21.0262 19.4981H17.5791L14.8427 20.9209L3.70848 20.9214C3.14566 20.9214 2.68822 20.4639 2.68822 19.9011V10.7095C2.68822 10.1467 3.14654 9.68928 3.70892 9.68928H3.7234C7.68325 9.68928 10.8925 10.1419 13.7241 10.5414C15.8769 10.8448 17.7371 11.1073 19.4883 11.1073C21.2399 11.1073 23.0992 10.8448 25.2525 10.5414C28.0841 10.1423 31.2924 9.68928 35.2532 9.68928H35.2676C35.8305 9.68928 36.2883 10.1476 36.2883 10.7095V19.9007C36.2883 20.4635 35.83 20.9209 35.2681 20.9209L24.0001 20.9214L21.0262 19.4981ZM32.4829 24.1814V22.4201H35.268C35.5652 22.4201 35.8497 22.3679 36.1144 22.2735V24.1818L32.4829 24.1814Z" fill="#707C88"/>
<path d="M38.2254 5.0481H35.1322C34.7182 5.0481 34.3828 5.3835 34.3828 5.79749C34.3828 6.21148 34.7182 6.54689 35.1322 6.54689H38.2254C38.6394 6.54689 38.9748 6.21148 38.9748 5.79749C38.9748 5.3835 38.6403 5.0481 38.2254 5.0481Z" fill="#707C88"/>
<path d="M4.59202 5.79774C4.59202 5.38375 4.25662 5.04834 3.84263 5.04834H0.749397C0.335408 5.04834 0 5.38375 0 5.79774C0 6.21173 0.335408 6.54714 0.749397 6.54714H3.84263C4.25574 6.54714 4.59202 6.21173 4.59202 5.79774Z" fill="#707C88"/>
<path d="M5.39009 15.9053C5.77511 16.1028 6.27118 16.1915 6.99689 16.1915H9.03784C9.76352 16.1915 10.2587 16.1033 10.6446 15.9053C11.0397 15.702 11.5121 15.2753 11.5121 14.3925V14.1549C11.5121 13.1821 10.1481 12.6948 9.12256 12.4129C8.11195 12.1355 7.11802 11.9933 7.07632 11.9867L7.03681 11.981H6.9973C5.5411 11.981 4.52344 12.8748 4.52344 14.155V14.392C4.52256 15.2753 4.99406 15.702 5.39004 15.9053L5.39009 15.9053ZM5.64692 14.155C5.64692 13.2041 6.66586 13.1128 6.9578 13.1057C7.13472 13.1321 7.86392 13.248 8.62956 13.4451C10.0291 13.8055 10.3351 14.1225 10.387 14.1892V14.392C10.387 14.7081 10.387 15.0668 9.03741 15.0668H6.99646C5.64692 15.0668 5.64692 14.7086 5.64692 14.392V14.155Z" fill="#707C88"/>
<path d="M28.3315 15.9053C28.7174 16.1029 29.2126 16.1916 29.9383 16.1916H31.9792C32.7049 16.1916 33.2001 16.1033 33.586 15.9053C33.982 15.7021 34.4535 15.2753 34.4535 14.3925V14.155C34.4535 12.8748 33.4363 11.981 31.9797 11.981H31.9402L31.9006 11.9867C31.8589 11.9928 30.8655 12.135 29.8544 12.4129C28.8284 12.6948 27.4648 13.1821 27.4648 14.1549V14.392C27.4644 15.2753 27.9363 15.702 28.3314 15.9053L28.3315 15.9053ZM28.5892 14.1896C28.6401 14.1233 28.9452 13.8077 30.3378 13.4477C31.1039 13.2501 31.8401 13.1329 32.0175 13.1066C32.3094 13.1127 33.3283 13.204 33.3283 14.1558V14.3929C33.3283 14.709 33.3283 15.0676 31.9788 15.0676H29.9378C28.5883 15.0676 28.5883 14.7094 28.5883 14.3929V14.1896L28.5892 14.1896Z" fill="#707C88"/>
</svg>
