<svg width="24" height="34" viewBox="0 0 24 34" fill="none" xmlns="http://www.w3.org/2000/svg">
<path d="M12.0703 0.854492H12.0723L12.0732 0.855469C12.0761 0.855854 12.0792 0.855034 12.082 0.855469L12.0811 0.856445H12.085C12.2054 0.877114 12.3162 0.941248 12.3955 1.03418C15.1677 4.12744 17.8547 7.51363 19.8486 10.9746C21.8418 14.4344 23.1504 17.9809 23.1504 21.3916C23.1504 28.1925 18.1832 33.7744 12 33.7744C5.81675 33.7744 0.849609 28.1926 0.849609 21.3916C0.849633 17.9809 2.1582 14.4344 4.15137 10.9746C6.14529 7.51354 8.83126 4.12724 11.6035 1.03418C11.7177 0.901028 11.8968 0.83208 12.0703 0.854492ZM12 2.21484C9.35628 5.20514 6.84788 8.44596 4.99316 11.7031C3.11111 15.0084 1.9082 18.3182 1.9082 21.3916C1.90825 27.6727 6.45893 32.6923 12 32.6924C17.5411 32.6924 22.0917 27.6727 22.0918 21.3916C22.0918 18.318 20.8889 15.0084 19.0068 11.7031C17.1521 8.44583 14.6438 5.20487 12 2.21484ZM18.8262 19.999C18.9661 20.0198 19.0872 20.0706 19.1777 20.1582C19.2464 20.2247 19.2903 20.3058 19.3145 20.3945L19.332 20.4854L19.333 20.4883C19.4749 21.9851 19.1451 23.6023 18.4971 25.04C17.8897 26.3876 16.9978 27.5882 15.9385 28.3896L15.7246 28.5439C15.5212 28.6856 15.23 28.6563 15.0518 28.4912L14.9824 28.4121C14.8204 28.1797 14.8824 27.8322 15.1143 27.6699L15.1152 27.6689C16.059 27.0168 16.912 25.887 17.498 24.5918C18.0838 23.2972 18.3953 21.8547 18.2754 20.5889C18.2572 20.4335 18.3173 20.2863 18.4111 20.1807C18.4499 20.1371 18.4976 20.0998 18.5498 20.0693L18.4482 19.9424L18.8262 19.999Z" fill="#707C88" stroke="#707C88" stroke-width="0.3"/>
</svg>
