<svg width="24" height="35" viewBox="0 0 24 35" fill="none" xmlns="http://www.w3.org/2000/svg">
<path d="M6.7002 0.810547H6.70215V0.80957H19.124V0.810547C19.279 0.808678 19.4245 0.876655 19.5215 0.994141L19.5605 1.04785L19.5918 1.10645C19.6559 1.24614 19.6544 1.40902 19.585 1.54883L14.6016 11.5947H22.6953C22.8874 11.5961 23.0612 11.7064 23.1465 11.8779L23.1738 11.9443C23.2255 12.1004 23.1996 12.2742 23.1006 12.4092V12.4102L7.05566 33.9873L7.05664 33.9883C6.91213 34.188 6.64559 34.2553 6.42383 34.1475H6.42285C6.20363 34.0401 6.0917 33.7923 6.1543 33.5566H6.15332L9.56152 19.8037H1.29883C1.14089 19.8008 0.993951 19.7234 0.900391 19.5967H0.899414C0.80606 19.4697 0.776611 19.3068 0.818359 19.1553L0.819336 19.1514L6.14648 1.23633C6.14828 1.22856 6.15108 1.2209 6.15332 1.21289C6.16211 1.16751 6.17672 1.12445 6.19629 1.08496L6.20117 1.0752C6.21028 1.05911 6.2195 1.04399 6.22949 1.03027V0.972656L6.30078 0.933594L6.32715 0.913086C6.3418 0.902 6.35754 0.890939 6.375 0.880859V0.882812C6.3983 0.868314 6.42223 0.856604 6.44629 0.84668V0.844727C6.449 0.843487 6.45236 0.842979 6.45508 0.841797C6.45637 0.841293 6.45769 0.840336 6.45898 0.839844V0.84082C6.46664 0.837564 6.47473 0.835826 6.48242 0.833008C6.48693 0.830479 6.4903 0.827553 6.49316 0.826172L6.51465 0.816406L6.53809 0.811523L6.56934 0.804688L6.66992 0.783203L6.7002 0.810547ZM1.98926 18.7881H10.2178C10.3746 18.7878 10.5219 18.8602 10.6182 18.9834C10.7149 19.1074 10.7503 19.2695 10.7129 19.4219H10.7119L7.75488 31.335L21.6768 12.6182H13.7764C13.6002 12.6167 13.4379 12.5243 13.3467 12.374C13.2552 12.2237 13.2479 12.0368 13.3252 11.8799H13.3262L18.3096 1.82422H7.03418L1.98926 18.7881ZM6.57422 0.807617C6.5723 0.807691 6.57093 0.808553 6.57031 0.808594C6.57119 0.80852 6.57406 0.80782 6.57715 0.807617H6.57422Z" fill="#707C88" stroke="#707C88" stroke-width="0.4"/>
</svg>
