<svg width="28" height="30" viewBox="0 0 28 30" fill="none" xmlns="http://www.w3.org/2000/svg">
<path d="M16.9766 0.664551C20.449 0.607623 23.8703 2.14275 26.3584 5.05713C26.4643 5.17482 26.5221 5.33154 26.5215 5.4917C26.5212 5.61156 26.4887 5.72905 26.4268 5.82861L26.3545 5.92236C26.2453 6.03709 26.0943 6.10071 25.9365 6.09229C25.8053 6.08495 25.6848 6.02711 25.5898 5.93701H25.582L25.5371 5.88428C22.24 2.02016 17.1649 0.826037 12.7549 2.87354C9.2406 4.50518 6.72628 7.9342 5.91016 11.9692H21.5684V11.9702C21.7248 11.9684 21.8758 12.0285 21.9873 12.1382L22.0615 12.229C22.1265 12.3254 22.1621 12.4392 22.1621 12.5571C22.1621 12.7144 22.0996 12.8656 21.9873 12.9761C21.8757 13.0859 21.7247 13.1456 21.5684 13.144V13.145H5.72559C5.6478 13.8076 5.61085 14.4809 5.62695 15.1626C5.64689 16.0068 5.74832 16.8332 5.90918 17.6372H19.4844C19.6407 17.636 19.7912 17.6974 19.9023 17.8071C20.0142 17.9176 20.0771 18.0682 20.0771 18.2251C20.0771 18.3821 20.0142 18.5326 19.9023 18.6431C19.791 18.753 19.6405 18.8133 19.4844 18.812V18.813H6.19629C7.28702 22.5717 9.87456 25.6351 13.3096 26.9976C17.8029 28.7795 22.8227 27.2913 25.9404 23.229L26.0195 23.144C26.1062 23.0685 26.2146 23.0221 26.3311 23.0132C26.486 23.0014 26.636 23.0592 26.749 23.1675C26.8618 23.2752 26.9295 23.4243 26.9414 23.5815C26.9506 23.6998 26.9282 23.8184 26.876 23.9224L26.8145 24.02C23.4066 28.4604 17.8892 30.109 12.9346 28.144C9.04542 26.6016 6.15299 23.0795 5.02148 18.813H1.44336V18.812C1.28713 18.8135 1.13585 18.7534 1.02441 18.6431C0.91282 18.5328 0.849609 18.3823 0.849609 18.2251C0.849617 18.068 0.912762 17.9174 1.02441 17.8071C1.13591 17.6967 1.28752 17.6355 1.44434 17.6372L1.51562 17.6382H4.76172C4.61359 16.8366 4.51795 16.0157 4.49805 15.1763C4.48189 14.4907 4.51331 13.8124 4.58398 13.145H1.50098V13.144C1.34461 13.1456 1.1937 13.0859 1.08203 12.9761C0.970329 12.8658 0.90625 12.7146 0.90625 12.5571C0.9063 12.3997 0.970573 12.2495 1.08203 12.1392V12.1382C1.1936 12.0285 1.3445 11.9683 1.50098 11.9702H4.75488C5.58289 7.45031 8.35801 3.57715 12.2959 1.74854C13.7904 1.05459 15.3574 0.700371 16.916 0.666504L16.917 0.665527L16.9766 0.664551Z" fill="#707C88" stroke="#707C88" stroke-width="0.3"/>
</svg>
