<svg width="39" height="30" viewBox="0 0 39 30" fill="none" xmlns="http://www.w3.org/2000/svg">
<path d="M19.2859 6.75C21.9109 6.75 22.2859 6.75 23.2859 6.75C24.2859 6.75 24.7859 7 25.1609 7.125C25.6609 7.25 25.9109 7.5 26.2859 7.875C26.6609 8.25 26.9109 8.5 27.0359 9C27.1609 9.375 27.2859 9.875 27.4109 10.875C27.4109 11.875 27.4109 12.25 27.4109 14.875C27.4109 17.5 27.4109 17.875 27.4109 18.875C27.4109 19.875 27.1609 20.375 27.0359 20.75C26.9109 21.25 26.6609 21.5 26.2859 21.875C25.9109 22.25 25.6609 22.5 25.1609 22.625C24.7859 22.75 24.2859 22.875 23.2859 23C22.2859 23 21.9109 23 19.2859 23C16.6609 23 16.2859 23 15.2859 23C14.2859 23 13.7859 22.75 13.4109 22.625C12.9109 22.5 12.6609 22.25 12.2859 21.875C11.9109 21.5 11.6609 21.25 11.5359 20.75C11.4109 20.375 11.2859 19.875 11.1609 18.875C11.1609 17.875 11.1609 17.5 11.1609 14.875C11.1609 12.25 11.1609 11.875 11.1609 10.875C11.1609 9.875 11.4109 9.375 11.5359 9C11.6609 8.5 11.9109 8.25 12.2859 7.875C12.6609 7.5 12.9109 7.25 13.4109 7.125C13.7859 7 14.2859 6.875 15.2859 6.75C16.2859 6.75 16.6609 6.75 19.2859 6.75ZM19.2859 5C16.5359 5 16.2859 5 15.1609 5C14.0359 5 13.4109 5.25 12.7859 5.5C12.1609 5.75 11.5359 6.125 11.0359 6.625C10.4109 7.25 10.0359 7.75 9.78589 8.5C9.53589 9.125 9.41089 9.875 9.28589 10.875C9.28589 12 9.28589 12.25 9.28589 15C9.28589 17.75 9.28589 18 9.28589 19.125C9.28589 20.25 9.53589 20.875 9.78589 21.5C10.0359 22.125 10.4109 22.75 10.9109 23.25C11.4109 23.75 12.0359 24.125 12.6609 24.375C13.2859 24.625 14.0359 24.75 15.0359 24.875C16.1609 24.875 16.4109 24.875 19.1609 24.875C21.9109 24.875 22.1609 24.875 23.2859 24.875C24.4109 24.875 25.0359 24.625 25.6609 24.375C26.2859 24.125 26.9109 23.75 27.4109 23.25C27.9109 22.75 28.2859 22.125 28.5359 21.5C28.7859 20.875 28.9109 20.125 29.0359 19.125C29.0359 18 29.0359 17.75 29.0359 15C29.0359 12.25 29.0359 12 29.0359 10.875C29.0359 9.75 28.7859 9.125 28.5359 8.5C28.2859 7.875 27.9109 7.25 27.4109 6.75C26.9109 6.25 26.2859 5.875 25.6609 5.625C25.0359 5.375 24.2859 5.25 23.2859 5.125C22.2859 5 22.0359 5 19.2859 5Z" fill="white"/>
<path d="M19.2859 9.875C16.4109 9.875 14.1609 12.125 14.1609 15C14.1609 17.875 16.4109 20.125 19.2859 20.125C22.1609 20.125 24.4109 17.875 24.4109 15C24.4109 12.125 22.1609 9.875 19.2859 9.875ZM19.2859 18.375C17.4109 18.375 15.9109 16.875 15.9109 15C15.9109 13.125 17.4109 11.625 19.2859 11.625C21.1609 11.625 22.6609 13.125 22.6609 15C22.6609 16.875 21.1609 18.375 19.2859 18.375Z" fill="white"/>
<path d="M25.7859 9.625C25.7859 10.25 25.2859 10.875 24.5359 10.875C23.7859 10.875 23.2859 10.375 23.2859 9.625C23.2859 8.875 23.7859 8.375 24.5359 8.375C25.2859 8.375 25.7859 9 25.7859 9.625Z" fill="white"/>
</svg>
