<svg width="13" height="18" viewBox="0 0 13 18" fill="none" xmlns="http://www.w3.org/2000/svg">
<path d="M6.46582 0.776123C9.5926 0.776123 12.1318 3.31533 12.1318 6.44214C12.1318 7.59177 11.645 9.06375 11.0957 9.96265L6.80176 16.99L6.79883 16.9939C6.72629 17.1071 6.60101 17.1765 6.46582 17.1765C6.33064 17.1765 6.20532 17.1071 6.13281 16.9939L6.13086 16.99L1.83594 9.96265C1.28662 9.06387 0.799805 7.59176 0.799805 6.44214C0.799831 3.31538 3.33903 0.776149 6.46582 0.776123ZM6.21484 1.573C3.63669 1.70323 1.58992 3.8313 1.58984 6.44214C1.58984 6.91108 1.70044 7.49611 1.87305 8.06616C2.0454 8.63531 2.27496 9.17447 2.50586 9.55249L6.46484 16.032L10.4248 9.55249C10.6558 9.1744 10.8862 8.63547 11.0586 8.06616C11.2312 7.4961 11.3418 6.91108 11.3418 6.44214C11.3418 3.7472 9.1608 1.56714 6.46582 1.56714L6.21484 1.573ZM6.46582 3.70483C7.97552 3.70483 9.20406 4.93245 9.2041 6.44214C9.2041 7.95187 7.97555 9.18042 6.46582 9.18042C4.95612 9.18039 3.72852 7.95185 3.72852 6.44214C3.72856 4.93247 4.95614 3.70486 6.46582 3.70483ZM6.46582 4.49487C5.388 4.4949 4.5186 5.36444 4.51855 6.44214C4.51855 7.51985 5.38808 8.38938 6.46582 8.3894C7.54371 8.3894 8.41309 7.51987 8.41309 6.44214C8.41304 5.3643 7.54354 4.49487 6.46582 4.49487Z" fill="#707C88" stroke="#707C88" stroke-width="0.4"/>
</svg>
