<svg width="18" height="25" viewBox="0 0 18 25" fill="none" xmlns="http://www.w3.org/2000/svg">
<path d="M8.85742 0.700195C13.3591 0.700236 17.0146 4.35573 17.0146 8.85742C17.0146 10.5126 16.314 12.6311 15.5234 13.9248L9.35059 24.0264L9.34668 24.0312C9.24021 24.1978 9.05619 24.2998 8.85742 24.2998C8.65859 24.2998 8.47369 24.1979 8.36719 24.0312L8.36426 24.0264L2.19141 13.9248C1.4008 12.6312 0.700262 10.5126 0.700195 8.85742C0.700195 4.35575 4.3557 0.700195 8.85742 0.700195ZM8.85645 1.86133C4.98947 1.86146 1.86035 4.99037 1.86035 8.85742C1.86036 9.52976 2.01874 10.3688 2.2666 11.1875C2.51424 12.0053 2.8444 12.7799 3.17578 13.3223L8.85645 22.6182L14.5381 13.3223C14.8696 12.7798 15.1997 12.0054 15.4473 11.1875C15.6951 10.3688 15.8535 9.52978 15.8535 8.85742C15.8535 5.11127 12.917 2.05743 9.21777 1.87012L8.85742 1.86133H8.85645ZM8.85742 4.90918C11.0344 4.90931 12.8057 6.68037 12.8057 8.85742C12.8056 11.0344 11.0344 12.8055 8.85742 12.8057C6.68035 12.8057 4.90928 11.0345 4.90918 8.85742C4.90918 6.68029 6.68029 4.90918 8.85742 4.90918ZM8.85742 6.07031C7.31488 6.07031 6.07031 7.31506 6.07031 8.85742C6.07041 10.3997 7.31511 11.6436 8.85742 11.6436C10.3998 11.6434 11.6435 10.3996 11.6436 8.85742C11.6436 7.31496 10.3997 6.07044 8.85742 6.07031Z" fill="white" stroke="white" stroke-width="0.6"/>
</svg>
