<svg width="153" height="31" viewBox="0 0 153 31" fill="none" xmlns="http://www.w3.org/2000/svg">
<g clip-path="url(#clip0_730_1245)">
<path d="M48.4319 8.65601H53.7119C56.0372 8.65601 57.7759 9.10401 58.9279 10C60.2506 11.024 60.9119 12.496 60.9119 14.416C60.9119 16.3147 60.1119 17.712 58.5119 18.608C59.5999 18.7787 60.5279 19.2267 61.2959 19.952C62.3199 20.9333 62.8319 22.2667 62.8319 23.952C62.8319 25.744 62.2239 27.184 61.0079 28.272C59.7066 29.424 57.9039 30 55.5999 30H48.4319V8.65601ZM52.5919 12.048V17.52H53.7759C53.9892 17.52 54.1812 17.52 54.3519 17.52C54.5439 17.4987 54.8106 17.4347 55.1519 17.328C55.5146 17.2213 55.8132 17.0827 56.0479 16.912C56.3039 16.72 56.5279 16.4427 56.7199 16.08C56.9119 15.696 57.0079 15.248 57.0079 14.736C57.0079 13.8187 56.7092 13.1467 56.1119 12.72C55.5146 12.272 54.7466 12.048 53.8079 12.048H52.5919ZM52.5919 20.72V26.608H54.3839C55.6212 26.608 56.5706 26.416 57.2319 26.032C58.1066 25.52 58.5439 24.6987 58.5439 23.568C58.5439 22.416 58.0212 21.6053 56.9759 21.136C56.3786 20.8587 55.4292 20.72 54.1279 20.72H52.5919Z" fill="white"/>
<path d="M67.7379 17.648C69.1459 16.3467 71.0126 15.696 73.3379 15.696C75.6632 15.696 77.5299 16.3467 78.9379 17.648C80.4952 19.056 81.2739 20.8693 81.2739 23.088C81.2739 25.2853 80.4952 27.088 78.9379 28.496C77.5299 29.7973 75.6632 30.448 73.3379 30.448C71.0126 30.448 69.1459 29.7973 67.7379 28.496C66.1806 27.088 65.4019 25.2853 65.4019 23.088C65.4019 20.8693 66.1806 19.056 67.7379 17.648ZM70.5539 25.84C71.3006 26.608 72.2286 26.992 73.3379 26.992C74.4472 26.992 75.3752 26.608 76.1219 25.84C76.8686 25.072 77.2419 24.1547 77.2419 23.088C77.2419 22 76.8686 21.072 76.1219 20.304C75.3752 19.536 74.4472 19.152 73.3379 19.152C72.2286 19.152 71.3006 19.536 70.5539 20.304C69.8072 21.072 69.4339 22 69.4339 23.088C69.4339 24.1547 69.8072 25.072 70.5539 25.84Z" fill="white"/>
<path d="M81.814 30L88.406 22.448L83.094 16.144H88.022L90.838 19.728L93.718 16.144H98.646L93.238 22.448L99.798 30H94.806L90.838 25.168L86.806 30H81.814Z" fill="white"/>
<path d="M101.731 30V16.144H105.635V18.224C106.104 17.328 106.68 16.688 107.363 16.304C108.003 15.8987 108.771 15.696 109.667 15.696C110.179 15.696 110.734 15.8027 111.331 16.016L110.819 19.664C110.328 19.3227 109.72 19.152 108.995 19.152C107.864 19.152 107 19.5253 106.403 20.272C105.891 20.912 105.635 21.936 105.635 23.344V30H101.731Z" fill="white"/>
<path d="M122.591 25.552L126.175 26.128C126.025 26.512 125.823 26.896 125.567 27.28C125.332 27.6427 124.959 28.1013 124.447 28.656C123.935 29.1893 123.241 29.6267 122.367 29.968C121.492 30.288 120.489 30.448 119.359 30.448C117.183 30.448 115.412 29.7973 114.047 28.496C112.596 27.1307 111.871 25.328 111.871 23.088C111.871 20.8693 112.575 19.056 113.983 17.648C115.305 16.3467 117.044 15.696 119.199 15.696C121.545 15.696 123.348 16.4533 124.607 17.968C125.716 19.2907 126.271 21.104 126.271 23.408V23.728H115.903C115.903 24.6667 116.127 25.4453 116.575 26.064C117.215 26.9387 118.143 27.376 119.359 27.376C120.809 27.376 121.887 26.768 122.591 25.552ZM116.031 21.232H122.591C122.441 20.336 122.047 19.6533 121.407 19.184C120.788 18.6933 120.084 18.448 119.295 18.448C118.527 18.448 117.823 18.6933 117.183 19.184C116.564 19.6747 116.18 20.3573 116.031 21.232Z" fill="white"/>
<path d="M129.293 30V16.144H133.197V17.936C134.264 16.4427 135.693 15.696 137.485 15.696C139.299 15.696 140.664 16.2613 141.581 17.392C142.307 18.288 142.669 19.5893 142.669 21.296V30H138.765V22.448C138.765 21.1467 138.52 20.24 138.029 19.728C137.581 19.2587 136.973 19.024 136.205 19.024C135.139 19.024 134.339 19.4293 133.805 20.24C133.4 20.88 133.197 21.776 133.197 22.928V30H129.293Z" fill="white"/>
<path d="M152.979 19.472H150.291V30H146.387V19.472H144.851V16.144H146.387V11.408H150.291V16.144H152.979V19.472Z" fill="white"/>
<path fill-rule="evenodd" clip-rule="evenodd" d="M3 27V7.39469L19 3.75832V27H3ZM0 5L19 0.681818L22 0V3.0765V27V30H19H3H0V27V5ZM29 2.85714L33 5.14286V30H29V2.85714ZM34 30V5.71429L38 8V30H34ZM28 2.28571L24 0V30H28V2.28571Z" fill="#EA142E"/>
</g>
<defs>
<clipPath id="clip0_730_1245">
<rect width="153" height="31" fill="white"/>
</clipPath>
</defs>
</svg>
