<svg width="230" height="161" viewBox="0 0 230 161" fill="none" xmlns="http://www.w3.org/2000/svg">
<path d="M62.2607 100.662H64.7236V98.4814H62.2607V100.662ZM3.14453 100.662H5.6084L5.60938 98.4814H3.14453V100.662ZM2.01172 97.2686H65.8555L65.8545 60.0127H2.01172V97.2686ZM67.0703 98.4824H65.9375V101.876H61.0479V98.4824H6.82129V101.876H1.93066V98.4824H0.799805V58.7998H1L66.8701 58.8008H67.0703V98.4824Z" fill="white" stroke="white" stroke-width="0.4"/>
<path d="M11.2051 66.2775V91.0031H9.99219V66.2775H11.2051Z" fill="white" stroke="white" stroke-width="0.4"/>
<path d="M20.5398 66.2775V91.0031H19.3269V66.2775H20.5398Z" fill="white" stroke="white" stroke-width="0.4"/>
<path d="M29.8745 66.2775V91.0031H28.6616V66.2775H29.8745Z" fill="white" stroke="white" stroke-width="0.4"/>
<path d="M39.2075 66.2775V91.0031H37.9946V66.2775H39.2075Z" fill="white" stroke="white" stroke-width="0.4"/>
<path d="M48.5425 66.2775V91.0031H47.3296V66.2775H48.5425Z" fill="white" stroke="white" stroke-width="0.4"/>
<path d="M57.8757 66.2775V91.0031H56.6628V66.2775H57.8757Z" fill="white" stroke="white" stroke-width="0.4"/>
<path d="M224.261 100.662H226.724V98.4814H224.261V100.662ZM165.145 100.662H167.608L167.609 98.4814H165.145V100.662ZM164.012 97.2686H227.855L227.854 60.0127H164.012V97.2686ZM229.07 98.4824H227.938V101.876H223.048V98.4824H168.821V101.876H163.931V98.4824H162.8V58.7998H163L228.87 58.8008H229.07V98.4824Z" fill="white" stroke="white" stroke-width="0.4"/>
<path d="M173.205 66.2775V91.0031H171.992V66.2775H173.205Z" fill="white" stroke="white" stroke-width="0.4"/>
<path d="M182.54 66.2775V91.0031H181.327V66.2775H182.54Z" fill="white" stroke="white" stroke-width="0.4"/>
<path d="M191.875 66.2775V91.0031H190.662V66.2775H191.875Z" fill="white" stroke="white" stroke-width="0.4"/>
<path d="M201.208 66.2775V91.0031H199.995V66.2775H201.208Z" fill="white" stroke="white" stroke-width="0.4"/>
<path d="M210.542 66.2775V91.0031H209.33V66.2775H210.542Z" fill="white" stroke="white" stroke-width="0.4"/>
<path d="M219.876 66.2775V91.0031H218.663V66.2775H219.876Z" fill="white" stroke="white" stroke-width="0.4"/>
<path d="M62.2607 42.6621H64.7236V40.4814H62.2607V42.6621ZM3.14453 42.6621H5.6084L5.60938 40.4814H3.14453V42.6621ZM2.01172 39.2686H65.8555L65.8545 2.0127H2.01172V39.2686ZM67.0703 40.4824H65.9375V43.876H61.0479V40.4824H6.82129V43.876H1.93066V40.4824H0.799805V0.799805H1L66.8701 0.800781H67.0703V40.4824Z" fill="white" stroke="white" stroke-width="0.4"/>
<path d="M11.2051 8.27753V33.0031H9.99219V8.27753H11.2051Z" fill="white" stroke="white" stroke-width="0.4"/>
<path d="M20.5398 8.27753V33.0031H19.3269V8.27753H20.5398Z" fill="white" stroke="white" stroke-width="0.4"/>
<path d="M29.8745 8.27753V33.0031H28.6616V8.27753H29.8745Z" fill="white" stroke="white" stroke-width="0.4"/>
<path d="M39.2075 8.27753V33.0031H37.9946V8.27753H39.2075Z" fill="white" stroke="white" stroke-width="0.4"/>
<path d="M48.5425 8.27753V33.0031H47.3296V8.27753H48.5425Z" fill="white" stroke="white" stroke-width="0.4"/>
<path d="M57.8757 8.27753V33.0031H56.6628V8.27753H57.8757Z" fill="white" stroke="white" stroke-width="0.4"/>
<path d="M62.2607 158.662H64.7236V156.481H62.2607V158.662ZM3.14453 158.662H5.6084L5.60938 156.481H3.14453V158.662ZM2.01172 155.269H65.8555L65.8545 118.013H2.01172V155.269ZM67.0703 156.482H65.9375V159.876H61.0479V156.482H6.82129V159.876H1.93066V156.482H0.799805V116.8H1L66.8701 116.801H67.0703V156.482Z" fill="white" stroke="white" stroke-width="0.4"/>
<path d="M11.2051 124.278V149.003H9.99219V124.278H11.2051Z" fill="white" stroke="white" stroke-width="0.4"/>
<path d="M20.5398 124.278V149.003H19.3269V124.278H20.5398Z" fill="white" stroke="white" stroke-width="0.4"/>
<path d="M29.8745 124.278V149.003H28.6616V124.278H29.8745Z" fill="white" stroke="white" stroke-width="0.4"/>
<path d="M39.2075 124.278V149.003H37.9946V124.278H39.2075Z" fill="white" stroke="white" stroke-width="0.4"/>
<path d="M48.5425 124.278V149.003H47.3296V124.278H48.5425Z" fill="white" stroke="white" stroke-width="0.4"/>
<path d="M57.8757 124.278V149.003H56.6628V124.278H57.8757Z" fill="white" stroke="white" stroke-width="0.4"/>
<path d="M143.261 42.6621H145.724V40.4814H143.261V42.6621ZM84.1445 42.6621H86.6084L86.6094 40.4814H84.1445V42.6621ZM83.0117 39.2686H146.855L146.854 2.0127H83.0117V39.2686ZM148.07 40.4824H146.938V43.876H142.048V40.4824H87.8213V43.876H82.9307V40.4824H81.7998V0.799805H82L147.87 0.800781H148.07V40.4824Z" fill="white" stroke="white" stroke-width="0.4"/>
<path d="M92.2051 8.27753V33.0031H90.9922V8.27753H92.2051Z" fill="white" stroke="white" stroke-width="0.4"/>
<path d="M101.54 8.27753V33.0031H100.327V8.27753H101.54Z" fill="white" stroke="white" stroke-width="0.4"/>
<path d="M110.875 8.27753V33.0031H109.662V8.27753H110.875Z" fill="white" stroke="white" stroke-width="0.4"/>
<path d="M120.208 8.27753V33.0031H118.995V8.27753H120.208Z" fill="white" stroke="white" stroke-width="0.4"/>
<path d="M129.542 8.27753V33.0031H128.33V8.27753H129.542Z" fill="white" stroke="white" stroke-width="0.4"/>
<path d="M138.876 8.27753V33.0031H137.663V8.27753H138.876Z" fill="white" stroke="white" stroke-width="0.4"/>
<path d="M143.261 100.662H145.724V98.4814H143.261V100.662ZM84.1445 100.662H86.6084L86.6094 98.4814H84.1445V100.662ZM83.0117 97.2686H146.855L146.854 60.0127H83.0117V97.2686ZM148.07 98.4824H146.938V101.876H142.048V98.4824H87.8213V101.876H82.9307V98.4824H81.7998V58.7998H82L147.87 58.8008H148.07V98.4824Z" fill="white" stroke="white" stroke-width="0.4"/>
<path d="M92.2051 66.2775V91.0031H90.9922V66.2775H92.2051Z" fill="white" stroke="white" stroke-width="0.4"/>
<path d="M101.54 66.2775V91.0031H100.327V66.2775H101.54Z" fill="white" stroke="white" stroke-width="0.4"/>
<path d="M110.875 66.2775V91.0031H109.662V66.2775H110.875Z" fill="white" stroke="white" stroke-width="0.4"/>
<path d="M120.208 66.2775V91.0031H118.995V66.2775H120.208Z" fill="white" stroke="white" stroke-width="0.4"/>
<path d="M129.542 66.2775V91.0031H128.33V66.2775H129.542Z" fill="white" stroke="white" stroke-width="0.4"/>
<path d="M138.876 66.2775V91.0031H137.663V66.2775H138.876Z" fill="white" stroke="white" stroke-width="0.4"/>
<path d="M143.261 158.662H145.724V156.481H143.261V158.662ZM84.1445 158.662H86.6084L86.6094 156.481H84.1445V158.662ZM83.0117 155.269H146.855L146.854 118.013H83.0117V155.269ZM148.07 156.482H146.938V159.876H142.048V156.482H87.8213V159.876H82.9307V156.482H81.7998V116.8H82L147.87 116.801H148.07V156.482Z" fill="white" stroke="white" stroke-width="0.4"/>
<path d="M92.2051 124.278V149.003H90.9922V124.278H92.2051Z" fill="white" stroke="white" stroke-width="0.4"/>
<path d="M101.54 124.278V149.003H100.327V124.278H101.54Z" fill="white" stroke="white" stroke-width="0.4"/>
<path d="M110.875 124.278V149.003H109.662V124.278H110.875Z" fill="white" stroke="white" stroke-width="0.4"/>
<path d="M120.208 124.278V149.003H118.995V124.278H120.208Z" fill="white" stroke="white" stroke-width="0.4"/>
<path d="M129.542 124.278V149.003H128.33V124.278H129.542Z" fill="white" stroke="white" stroke-width="0.4"/>
<path d="M138.876 124.278V149.003H137.663V124.278H138.876Z" fill="white" stroke="white" stroke-width="0.4"/>
<path d="M224.261 42.6621H226.724V40.4814H224.261V42.6621ZM165.145 42.6621H167.608L167.609 40.4814H165.145V42.6621ZM164.012 39.2686H227.855L227.854 2.0127H164.012V39.2686ZM229.07 40.4824H227.938V43.876H223.048V40.4824H168.821V43.876H163.931V40.4824H162.8V0.799805H163L228.87 0.800781H229.07V40.4824Z" fill="white" stroke="white" stroke-width="0.4"/>
<path d="M173.205 8.27753V33.0031H171.992V8.27753H173.205Z" fill="white" stroke="white" stroke-width="0.4"/>
<path d="M182.54 8.27753V33.0031H181.327V8.27753H182.54Z" fill="white" stroke="white" stroke-width="0.4"/>
<path d="M191.875 8.27753V33.0031H190.662V8.27753H191.875Z" fill="white" stroke="white" stroke-width="0.4"/>
<path d="M201.208 8.27753V33.0031H199.995V8.27753H201.208Z" fill="white" stroke="white" stroke-width="0.4"/>
<path d="M210.542 8.27753V33.0031H209.33V8.27753H210.542Z" fill="white" stroke="white" stroke-width="0.4"/>
<path d="M219.876 8.27753V33.0031H218.663V8.27753H219.876Z" fill="white" stroke="white" stroke-width="0.4"/>
<path d="M224.261 158.662H226.724V156.481H224.261V158.662ZM165.145 158.662H167.608L167.609 156.481H165.145V158.662ZM164.012 155.269H227.855L227.854 118.013H164.012V155.269ZM229.07 156.482H227.938V159.876H223.048V156.482H168.821V159.876H163.931V156.482H162.8V116.8H163L228.87 116.801H229.07V156.482Z" fill="white" stroke="white" stroke-width="0.4"/>
<path d="M187.784 143H179.648V141.632L184.094 137.096C185.282 135.908 185.876 134.888 185.876 134.036C185.876 133.34 185.66 132.794 185.228 132.398C184.808 131.99 184.28 131.786 183.644 131.786C182.456 131.786 181.592 132.35 181.052 133.478L179.648 132.65C180.032 131.846 180.572 131.234 181.268 130.814C181.964 130.382 182.75 130.166 183.626 130.166C184.694 130.166 185.612 130.514 186.38 131.21C187.16 131.918 187.55 132.854 187.55 134.018C187.55 135.29 186.8 136.676 185.3 138.176L182.078 141.38H187.784V143ZM197.568 141.452C196.728 142.64 195.534 143.234 193.986 143.234C192.438 143.234 191.244 142.64 190.404 141.452C189.552 140.252 189.126 138.668 189.126 136.7C189.126 134.732 189.552 133.148 190.404 131.948C191.244 130.76 192.438 130.166 193.986 130.166C195.534 130.166 196.728 130.76 197.568 131.948C198.42 133.148 198.846 134.732 198.846 136.7C198.846 138.668 198.42 140.252 197.568 141.452ZM190.8 136.7C190.8 138.26 191.076 139.466 191.628 140.318C192.18 141.17 192.966 141.596 193.986 141.596C195.006 141.596 195.792 141.17 196.344 140.318C196.908 139.466 197.19 138.26 197.19 136.7C197.19 135.14 196.908 133.934 196.344 133.082C195.792 132.218 195.006 131.786 193.986 131.786C192.966 131.786 192.18 132.212 191.628 133.064C191.076 133.916 190.8 135.128 190.8 136.7ZM208.906 141.452C208.066 142.64 206.872 143.234 205.324 143.234C203.776 143.234 202.582 142.64 201.742 141.452C200.89 140.252 200.464 138.668 200.464 136.7C200.464 134.732 200.89 133.148 201.742 131.948C202.582 130.76 203.776 130.166 205.324 130.166C206.872 130.166 208.066 130.76 208.906 131.948C209.758 133.148 210.184 134.732 210.184 136.7C210.184 138.668 209.758 140.252 208.906 141.452ZM202.138 136.7C202.138 138.26 202.414 139.466 202.966 140.318C203.518 141.17 204.304 141.596 205.324 141.596C206.344 141.596 207.13 141.17 207.682 140.318C208.246 139.466 208.528 138.26 208.528 136.7C208.528 135.14 208.246 133.934 207.682 133.082C207.13 132.218 206.344 131.786 205.324 131.786C204.304 131.786 203.518 132.212 202.966 133.064C202.414 133.916 202.138 135.128 202.138 136.7Z" fill="white"/>
</svg>
