<svg width="105" height="69" viewBox="0 0 105 69" fill="none" xmlns="http://www.w3.org/2000/svg">
<path d="M97.1484 66.5811H101.248V62.9248H97.1484V66.5811ZM4.25586 66.5811H8.35547L8.35645 62.9248H4.25586V66.5811ZM2.47559 61.2471H103.026L103.024 2.47754H2.47559V61.2471ZM104.706 62.9277H104.506L102.927 62.9268V68.2598H95.4717V62.9268H10.0332V68.2598H2.57715V62.9268H0.799805V0.799805H1L104.506 0.800781H104.706V62.9277Z" fill="#EA142E" stroke="#EA142E" stroke-width="0.4"/>
<path d="M16.9224 12.5501V51.1741H15.2446V12.5501H16.9224Z" fill="#EA142E" stroke="#EA142E" stroke-width="0.4"/>
<path d="M31.5906 12.5501V51.1741H29.9128V12.5501H31.5906Z" fill="#EA142E" stroke="#EA142E" stroke-width="0.4"/>
<path d="M46.2585 12.5501V51.1741H44.5808V12.5501H46.2585Z" fill="#EA142E" stroke="#EA142E" stroke-width="0.4"/>
<path d="M60.9246 12.5501V51.1741H59.2468V12.5501H60.9246Z" fill="#EA142E" stroke="#EA142E" stroke-width="0.4"/>
<path d="M75.5928 12.5501V51.1741H73.915V12.5501H75.5928Z" fill="#EA142E" stroke="#EA142E" stroke-width="0.4"/>
<path d="M90.2588 12.5501V51.1741H88.5811V12.5501H90.2588Z" fill="#EA142E" stroke="#EA142E" stroke-width="0.4"/>
</svg>
