<svg width="30" height="36" viewBox="0 0 30 36" fill="none" xmlns="http://www.w3.org/2000/svg">
<path d="M28.4983 9.02853L19.8666 0.684722C19.4119 0.245049 18.8051 0 18.173 0H2.43693C1.09097 0 0 1.09068 0 2.43664V33.3026C0 34.6485 1.09097 35.7395 2.43693 35.7395H26.8048C28.1507 35.7395 29.2417 34.6485 29.2417 33.3026V10.7812C29.2417 10.12 28.9734 9.48794 28.4983 9.02901V9.02853ZM19.9703 3.04391L26.0639 8.93447H19.9703V3.04391ZM27.6172 33.3021C27.6172 33.7497 27.2526 34.1143 26.805 34.1143H2.43715C1.98954 34.1143 1.62496 33.7497 1.62496 33.3021V2.43616C1.62496 1.98855 1.98956 1.62397 2.43715 1.62397H18.1733C18.2333 1.62397 18.2886 1.64522 18.3464 1.6574V8.93439C18.3464 9.83042 19.075 10.5588 19.9707 10.5588H27.5719C27.5931 10.631 27.6175 10.7035 27.6175 10.7806L27.6172 33.3021Z" fill="#EA142E"/>
<path d="M8.79293 16.9238H6.0498V22.7427H7.34616V21.0962H8.79264C10.2718 21.08 11.0208 20.1743 11.0208 19.0095C11.0211 17.8879 10.2811 16.9238 8.79293 16.9238ZM8.79293 19.9089H7.34645V18.1545H8.79293C9.40768 18.1545 9.72384 18.5704 9.72384 19.0358C9.72384 19.501 9.41675 19.9089 8.79293 19.9089Z" fill="#EA142E"/>
<path d="M14.6625 16.9238H12.2769V22.7427H14.6625C16.6988 22.7427 17.5558 21.3132 17.5558 19.7916C17.555 18.2712 16.6658 16.9238 14.6625 16.9238ZM14.6625 21.5455H13.5571V18.0959H14.6625C15.8761 18.0959 16.2756 18.9358 16.2756 19.7749C16.2756 20.6137 15.9266 21.5455 14.6625 21.5455Z" fill="#EA142E"/>
<path d="M18.9524 22.7418H20.2487V20.6551H23.0089V19.4992H20.2487V18.1201H23.1916V16.9316H18.9524V22.7418Z" fill="#EA142E"/>
</svg>
