<svg width="42" height="34" viewBox="0 0 42 34" fill="none" xmlns="http://www.w3.org/2000/svg">
<g opacity="0.5">
<path d="M17.0977 0.951172C17.3944 0.951172 17.6357 1.19248 17.6357 1.48926C17.6355 1.77799 17.4069 2.0112 17.1211 2.02344L17.1182 2.02734H17.0977C12.741 2.02734 9.03499 3.522 6.39062 6.09082C3.75674 8.64952 2.17285 12.2766 2.04883 16.5615H17.0977C17.3942 16.5617 17.6347 16.8021 17.6348 17.0986V32.708C17.6348 33.0047 17.3943 33.2459 17.0977 33.2461H1.48828C1.1915 33.2461 0.950195 33.0048 0.950195 32.708V17.0986C0.950243 12.3475 2.60912 8.30981 5.45898 5.45996C8.30891 2.6101 12.3468 0.95122 17.0977 0.951172ZM2.02637 32.1699H16.5605V17.6357H2.02637V32.1699Z" fill="#3C4D69" stroke="#3C4D69" stroke-width="0.1"/>
<path d="M40.5121 0.950195C40.8089 0.950195 41.0502 1.1915 41.0502 1.48828C41.0499 1.78484 40.8087 2.02539 40.5121 2.02539C36.1549 2.02544 32.4494 3.52032 29.8051 6.08887C27.1711 8.64748 25.5874 12.2748 25.4633 16.5596H40.6332L40.6205 16.5713C40.8651 16.6216 41.0491 16.8382 41.0492 17.0977V32.707C41.0492 33.0037 40.8087 33.2449 40.5121 33.2451H24.9027C24.6059 33.2451 24.3646 33.0038 24.3646 32.707V17.0977C24.3647 12.3465 26.0235 8.30884 28.8734 5.45898C31.7233 2.60913 35.7612 0.950244 40.5121 0.950195ZM25.4408 32.1689H39.975V17.6348H25.4408V32.1689Z" fill="#3C4D69" stroke="#3C4D69" stroke-width="0.1"/>
</g>
</svg>
