<svg width="78" height="62" viewBox="0 0 78 62" fill="none" xmlns="http://www.w3.org/2000/svg">
<path fill-rule="evenodd" clip-rule="evenodd" d="M58.5661 0.000672155C51.3916 0.010109 45.0313 1.19788 39.3717 3.66465C34.5979 5.74579 30.3444 8.75363 26.5194 12.6553C25.6141 11.8909 24.5478 10.9114 23.3065 10.1187C22.2729 9.45878 21.0624 8.95423 19.7268 8.93472C19.1216 8.92591 18.483 9.02217 17.8381 9.24488C12.7335 10.9743 9.18904 12.1659 4.08443 13.8953C3.46349 14.1029 3.30622 15.0818 3.83091 15.4738L17.2469 25.3383C16.6077 26.4802 15.9685 27.6409 15.3582 28.8614C15.0738 29.2948 15.2053 29.6541 15.4148 30.0171L22.912 43.2071C23.1693 43.6361 23.4424 43.7141 23.9551 43.7141C25.2718 43.7865 26.5779 43.8456 27.8442 43.8551L29.592 60.5402C29.6725 61.1889 30.5973 61.5374 31.0855 61.1039C35.1151 57.5029 37.9082 54.9889 41.9365 51.3803C43.5817 49.9277 43.9805 47.9586 43.9094 46.1662C43.8497 44.6632 43.5175 43.2382 43.3174 42.0511C48.5755 40.65 53.2682 38.4287 57.438 35.2868C66.1758 28.7025 72.5664 18.2344 77.42 3.49477C77.6886 2.7694 77.4703 2.25792 76.828 2.08555C70.1945 0.698341 64.1443 -0.0075093 58.5644 6.02405e-05L58.5661 0.000672155ZM58.5661 1.80432C63.7116 1.79865 69.3303 2.4328 75.4768 3.66465C70.7231 17.7946 64.5376 27.673 56.3403 33.851C48.0543 40.0951 37.6468 42.641 24.2664 41.9403L17.1361 29.3982C23.2209 17.3248 30.5904 9.46453 40.0782 5.32866C45.4792 2.97453 51.5962 1.81317 58.5672 1.8056L58.5661 1.80432ZM19.4735 10.7108C20.4857 10.6466 21.4042 11.0385 22.348 11.6406C23.3514 12.281 24.2988 13.18 25.2506 13.9796C22.6863 16.803 20.3095 20.0574 18.1203 23.7599L6.31117 15.0511C10.5187 13.6261 13.9058 12.4597 18.4021 10.936H18.4298C18.796 10.8089 19.1351 10.7321 19.4729 10.7108H19.4735ZM41.5701 42.4738C41.7783 43.7195 42.0576 45.0362 42.1054 46.2504C42.1652 47.759 41.9255 48.9939 40.7528 50.0269C40.7428 50.0357 40.734 50.0458 40.7252 50.0546C37.182 53.2292 34.5107 55.6337 31.1991 58.5942L29.6484 43.8257C33.9126 43.7546 37.8716 43.3105 41.5701 42.4731L41.5701 42.4738Z" fill="white"/>
<path fill-rule="evenodd" clip-rule="evenodd" d="M11.4981 31.3125C11.4402 31.3257 11.3836 31.3446 11.3288 31.3685C11.3194 31.3779 11.31 31.3867 11.3011 31.3968C11.2917 31.3962 11.2823 31.3962 11.2728 31.3968C11.254 31.405 11.2357 31.4144 11.2175 31.4245C11.2074 31.4339 11.1986 31.4427 11.1892 31.4528C11.1495 31.478 11.1118 31.5063 11.0766 31.5371C4.61233 35.642 2.82882 40.0686 0.0846175 46.8134C0.0751807 46.8222 0.0657444 46.8316 0.0569364 46.8411V46.8688V46.8694C0.0468705 46.8876 0.0374342 46.9065 0.0286261 46.9254V46.9531C0.0185602 46.9713 0.00912367 46.9902 0.000943736 47.009C0.000314659 47.0185 0.000314659 47.0279 0.000943736 47.0367C-0.000314579 47.065 -0.000314579 47.0933 0.000943736 47.1217C0.000314659 47.1311 0.000314659 47.1405 0.000943736 47.15C0.000314659 47.1682 0.000314659 47.1871 0.000943736 47.2053C0.000314659 47.2148 0.000314659 47.2242 0.000943736 47.2336C0.000314659 47.2525 0.000314659 47.2708 0.000943736 47.2896C0.000314659 47.2991 0.000314659 47.3079 0.000943736 47.3173C0.000314659 47.3362 0.000314659 47.3551 0.000943736 47.3733C0.000314659 47.3827 0.000314659 47.3922 0.000943736 47.4016C0.00912222 47.4205 0.0185602 47.4387 0.0286261 47.457V47.4853C0.0374338 47.5042 0.0468705 47.523 0.0569364 47.5413C0.0651149 47.5602 0.0745517 47.579 0.0846175 47.5973V47.625C0.0940543 47.6344 0.102862 47.6438 0.1123 47.6533C0.121108 47.6721 0.130544 47.6904 0.14061 47.7086V47.7369C0.174583 47.7778 0.212329 47.8156 0.253222 47.8496V47.8779C0.272096 47.8873 0.29097 47.8967 0.309843 47.9055C0.319279 47.915 0.328716 47.9244 0.338152 47.9332C0.356396 47.9433 0.37527 47.9527 0.394144 47.9615V47.9892C0.412389 47.9993 0.430632 48.0087 0.450136 48.0175H0.477817C0.496691 48.0276 0.515564 48.0364 0.534436 48.0452C0.543873 48.0546 0.55331 48.0641 0.562747 48.0735C0.580991 48.0741 0.599865 48.0741 0.618739 48.0735C0.627547 48.083 0.636983 48.0924 0.64642 48.1012C0.665294 48.1018 0.683539 48.1018 0.702413 48.1012H0.730095C0.748969 48.1018 0.767843 48.1018 0.786087 48.1012C0.832641 48.1144 0.879825 48.1238 0.927009 48.1289C8.04237 49.0946 12.7298 49.7199 19.4724 46.0993V46.0999C19.5007 46.0917 19.529 46.0823 19.5573 46.0716C19.6064 46.0477 19.6536 46.0194 19.6982 45.9873C19.7077 45.9779 19.7171 45.9684 19.7259 45.959C19.7894 45.9105 19.8467 45.8539 19.8951 45.7897V45.7621C19.9146 45.7444 19.9329 45.7256 19.9511 45.7061V45.6784C19.9612 45.6601 19.97 45.6413 19.9788 45.6224V45.5941C19.9889 45.5758 19.9983 45.5576 20.0071 45.5381V45.5104C20.0166 45.4922 20.026 45.4733 20.0348 45.4544V45.4267C20.0354 45.4079 20.0354 45.389 20.0348 45.3708V45.3424C20.0354 45.3242 20.0354 45.3053 20.0348 45.2864V45.2588C20.0405 45.2028 20.0405 45.1462 20.0348 45.0895C20.0279 45.0518 20.0185 45.014 20.0071 44.9769C19.9983 44.958 19.9889 44.9392 19.9788 44.9209V44.8932C19.97 44.8744 19.9612 44.8555 19.9511 44.8373C19.9341 44.8077 19.9153 44.7794 19.8951 44.7523C19.8775 44.7328 19.8587 44.7146 19.8392 44.6963V44.6687C19.8209 44.6586 19.802 44.6491 19.7832 44.6403C19.7744 44.6309 19.7649 44.6215 19.7555 44.6127C19.7202 44.5812 19.6825 44.5529 19.6422 44.5277C19.6334 44.5183 19.624 44.5089 19.6146 44.5C19.5963 44.49 19.5774 44.4805 19.5586 44.4717C19.4787 44.4315 19.3931 44.4025 19.305 44.3868C19.2774 44.3761 19.249 44.3673 19.2201 44.3591H19.1924C19.1641 44.3579 19.1358 44.3579 19.1075 44.3591C19.0408 44.361 18.9747 44.3704 18.9099 44.3868C16.267 44.5957 14.1539 44.4849 12.6251 44.105C11.0674 43.7181 10.1697 43.094 9.69411 42.273C9.21852 41.452 9.10274 40.3014 9.52488 38.6932C9.93946 37.1135 10.863 35.1223 12.3433 32.8028H12.371V32.8035C12.3924 32.767 12.4113 32.7292 12.427 32.6909C12.4364 32.6814 12.4459 32.672 12.4553 32.6625C12.4647 32.6537 12.4742 32.6443 12.483 32.6349C12.4931 32.6166 12.5025 32.5977 12.5113 32.5789V32.5506C12.5207 32.5323 12.5302 32.5141 12.539 32.4946V32.4669C12.549 32.4486 12.5585 32.4298 12.5667 32.4109C12.5673 32.4015 12.5673 32.3927 12.5667 32.3832C12.5673 32.3643 12.5673 32.3455 12.5667 32.3272C12.5673 32.3083 12.5673 32.2901 12.5667 32.2712C12.5767 32.2618 12.5855 32.253 12.595 32.2429C12.5956 32.2247 12.5956 32.2058 12.595 32.1876C12.5956 32.1687 12.5956 32.1498 12.595 32.1316C12.5855 32.1221 12.5767 32.1127 12.5667 32.1033C12.5673 32.085 12.5673 32.0661 12.5667 32.0473C12.5673 32.0385 12.5673 32.029 12.5667 32.0196C12.5673 32.0007 12.5673 31.9825 12.5667 31.9636C12.5579 31.9542 12.5484 31.9447 12.539 31.9359V31.9076C12.5302 31.8887 12.5207 31.8698 12.5113 31.8516C12.5025 31.8327 12.4931 31.8145 12.483 31.7956C12.4742 31.7862 12.4647 31.7767 12.4553 31.7679C12.4559 31.7491 12.4559 31.7308 12.4553 31.7119C12.4459 31.7025 12.4364 31.6931 12.427 31.6843C12.4182 31.6748 12.4088 31.6654 12.3993 31.6559C12.3899 31.6465 12.3811 31.6371 12.371 31.6283C12.3628 31.6094 12.3534 31.5905 12.3433 31.5723C12.2842 31.5163 12.2181 31.4691 12.1458 31.4313H12.1181C12.1087 31.4219 12.0998 31.4125 12.0904 31.403C12.0715 31.3936 12.0533 31.3842 12.0344 31.3754H12.0061C11.9879 31.3653 11.969 31.3559 11.9501 31.347H11.9224C11.9036 31.3376 11.8847 31.3282 11.8658 31.3194H11.8375C11.8186 31.3187 11.8004 31.3187 11.7815 31.3194C11.7633 31.3187 11.7444 31.3187 11.7255 31.3194H11.6978C11.679 31.3187 11.6601 31.3187 11.6412 31.3194C11.6223 31.3187 11.6035 31.3187 11.5852 31.3194C11.5569 31.3181 11.5286 31.3181 11.5003 31.3194L11.4981 31.3125ZM8.82054 35.4835C8.36506 36.4599 8.00458 37.3828 7.77746 38.2452C7.28046 40.1383 7.33456 41.83 8.11593 43.1775C8.8973 44.5251 10.348 45.3939 12.2027 45.855C12.957 46.0425 13.7987 46.1539 14.7109 46.2212C10.6406 47.5455 7.16346 47.1485 2.1972 46.4747C4.13741 41.7061 5.54341 38.427 8.82054 35.4828V35.4835Z" fill="white"/>
<path fill-rule="evenodd" clip-rule="evenodd" d="M50.8885 11.0913C49.6121 11.0655 48.3123 11.3776 47.1295 12.062C43.6883 14.0551 42.488 18.4771 44.4639 21.914L44.4633 21.9147V21.9153C46.4475 25.3591 50.8696 26.528 54.3179 24.5368H54.3185C54.3185 24.5361 54.3191 24.5361 54.3191 24.5361C57.7597 22.5437 58.9594 18.1197 56.9759 14.6748V14.6742C55.6786 12.4181 53.3258 11.1405 50.8885 11.0914L50.8885 11.0913ZM50.859 12.8856C52.684 12.9183 54.4368 13.8771 55.4124 15.5744V15.5738V15.5744C56.9091 18.1721 56.017 21.4674 53.4162 22.9747L53.4156 22.9753C50.8034 24.4827 47.5239 23.6132 46.0272 21.0143C44.54 18.4268 45.4321 15.1296 48.0335 13.6227C48.9281 13.105 49.9031 12.8678 50.8595 12.8848L50.859 12.8856Z" fill="white"/>
</svg>
