<svg width="31" height="37" viewBox="0 0 31 37" fill="none" xmlns="http://www.w3.org/2000/svg">
<path d="M15.1807 0.944336C15.4066 0.797638 15.7113 0.822044 15.9111 1.01758L15.9248 1.03125C19.5166 4.52967 23.8424 6.17383 29.4805 6.17383H29.4883C29.6409 6.17594 29.7873 6.2375 29.8955 6.3457C30.0055 6.45581 30.0674 6.60527 30.0674 6.76074C30.0674 7.21717 30.078 7.68485 30.0889 8.16016C30.0997 8.63416 30.1103 9.11596 30.1104 9.59766L30.1406 11.3828C30.194 15.6061 30.0761 20.1893 28.5225 24.3643C26.7421 29.1482 23.0816 33.3844 15.6807 35.9541L15.6562 35.9629H15.2998L15.2754 35.9541C7.89602 33.3843 4.24634 29.1481 2.47168 24.3643C0.701748 19.5931 0.802439 14.2887 0.889648 9.59766V9.59375C0.933046 8.63658 0.932617 7.67885 0.932617 6.76074C0.932617 6.43667 1.19551 6.17404 1.51953 6.17383C7.16479 6.17383 11.4946 4.52552 15.0889 1.01758L15.1807 0.944336ZM15.499 2.28809C11.8529 5.63032 7.56475 7.231 2.10449 7.34375C2.10227 7.69059 2.0945 8.0376 2.08496 8.38672C2.07406 8.78555 2.06348 9.18792 2.06348 9.60059V9.60352C1.976 14.1741 1.87932 19.2457 3.53906 23.791C5.19021 28.3128 8.58437 32.3237 15.5 34.7793C22.4152 32.3237 25.8088 28.3017 27.46 23.7744C29.1191 19.2252 29.0239 14.1558 28.9365 9.6084L28.9111 8.99023C28.8942 8.42977 28.8927 7.88556 28.8926 7.34473C23.432 7.27307 19.1439 5.63035 15.499 2.28809Z" fill="#707C88" stroke="#707C88" stroke-width="0.3"/>
<path d="M21.208 13.2476C21.4496 13.0223 21.8281 13.0354 22.0537 13.2769L22.127 13.3735C22.2718 13.6105 22.2348 13.9232 22.0244 14.1206L13.9863 21.7671L13.9854 21.7661C13.8773 21.8741 13.7325 21.9365 13.5801 21.939H13.5752C13.4208 21.9365 13.2724 21.874 13.1641 21.7632L13.1221 21.7192V21.7153L9.05371 17.2153V17.2144C8.93081 17.1124 8.85299 16.966 8.8418 16.8062C8.83007 16.637 8.89126 16.4703 9.01172 16.3501L9.11035 16.271C9.2159 16.2033 9.34149 16.1703 9.46875 16.1792L9.59277 16.2017C9.70843 16.2358 9.81077 16.306 9.88672 16.4019H9.8877L13.5859 20.4829L21.1602 13.3364V13.2915L21.208 13.2476Z" fill="#707C88" stroke="#707C88" stroke-width="0.3"/>
</svg>
