<svg width="176" height="187" viewBox="0 0 176 187" fill="none" xmlns="http://www.w3.org/2000/svg">
<path d="M74.498 51.0518H77.5352V48.3535H74.498V51.0518ZM3.53418 51.0518H6.57227V48.3535H3.53418V51.0518ZM2.1748 46.9775H78.8936L78.8926 2.17578H2.1748V46.9775ZM80.2715 48.3555H80.0713L78.9121 48.3545V52.4287H73.1221V48.3545H7.94824V52.4287H2.1582V48.3545H0.799805V0.799805H1L80.0713 0.800781H80.2715V48.3555Z" fill="#EA142E" stroke="#EA142E" stroke-width="0.4"/>
<path d="M13.2104 9.77618V39.3768H11.8345V9.77618H13.2104Z" fill="#EA142E" stroke="#EA142E" stroke-width="0.4"/>
<path d="M24.416 9.77618V39.3768H23.04V9.77618H24.416Z" fill="#EA142E" stroke="#EA142E" stroke-width="0.4"/>
<path d="M35.6213 9.77618V39.3768H34.2454V9.77618H35.6213Z" fill="#EA142E" stroke="#EA142E" stroke-width="0.4"/>
<path d="M46.825 9.77618V39.3768H45.449V9.77618H46.825Z" fill="#EA142E" stroke="#EA142E" stroke-width="0.4"/>
<path d="M58.0308 9.77618V39.3768H56.6548V9.77618H58.0308Z" fill="#EA142E" stroke="#EA142E" stroke-width="0.4"/>
<path d="M69.2344 9.77618V39.3768H67.8584V9.77618H69.2344Z" fill="#EA142E" stroke="#EA142E" stroke-width="0.4"/>
<path d="M74.498 118.052H77.5352V115.354H74.498V118.052ZM3.53418 118.052H6.57227V115.354H3.53418V118.052ZM2.1748 113.978H78.8936L78.8926 69.1758H2.1748V113.978ZM80.2715 115.355H80.0713L78.9121 115.354V119.429H73.1221V115.354H7.94824V119.429H2.1582V115.354H0.799805V67.7998H1L80.0713 67.8008H80.2715V115.355Z" fill="#EA142E" stroke="#EA142E" stroke-width="0.4"/>
<path d="M13.2104 76.7762V106.377H11.8345V76.7762H13.2104Z" fill="#EA142E" stroke="#EA142E" stroke-width="0.4"/>
<path d="M24.416 76.7762V106.377H23.04V76.7762H24.416Z" fill="#EA142E" stroke="#EA142E" stroke-width="0.4"/>
<path d="M35.6213 76.7762V106.377H34.2454V76.7762H35.6213Z" fill="#EA142E" stroke="#EA142E" stroke-width="0.4"/>
<path d="M46.825 76.7762V106.377H45.449V76.7762H46.825Z" fill="#EA142E" stroke="#EA142E" stroke-width="0.4"/>
<path d="M58.0308 76.7762V106.377H56.6548V76.7762H58.0308Z" fill="#EA142E" stroke="#EA142E" stroke-width="0.4"/>
<path d="M69.2344 76.7762V106.377H67.8584V76.7762H69.2344Z" fill="#EA142E" stroke="#EA142E" stroke-width="0.4"/>
<path d="M74.498 185.052H77.5352V182.354H74.498V185.052ZM3.53418 185.052H6.57227V182.354H3.53418V185.052ZM2.1748 180.978H78.8936L78.8926 136.176H2.1748V180.978ZM80.2715 182.355H80.0713L78.9121 182.354V186.429H73.1221V182.354H7.94824V186.429H2.1582V182.354H0.799805V134.8H1L80.0713 134.801H80.2715V182.355Z" fill="#EA142E" stroke="#EA142E" stroke-width="0.4"/>
<path d="M13.2104 143.776V173.377H11.8345V143.776H13.2104Z" fill="#EA142E" stroke="#EA142E" stroke-width="0.4"/>
<path d="M24.416 143.776V173.377H23.04V143.776H24.416Z" fill="#EA142E" stroke="#EA142E" stroke-width="0.4"/>
<path d="M35.6213 143.776V173.377H34.2454V143.776H35.6213Z" fill="#EA142E" stroke="#EA142E" stroke-width="0.4"/>
<path d="M46.825 143.776V173.377H45.449V143.776H46.825Z" fill="#EA142E" stroke="#EA142E" stroke-width="0.4"/>
<path d="M58.0308 143.776V173.377H56.6548V143.776H58.0308Z" fill="#EA142E" stroke="#EA142E" stroke-width="0.4"/>
<path d="M69.2344 143.776V173.377H67.8584V143.776H69.2344Z" fill="#EA142E" stroke="#EA142E" stroke-width="0.4"/>
<path d="M169.498 51.0518H172.535V48.3535H169.498V51.0518ZM98.5342 51.0518H101.572V48.3535H98.5342V51.0518ZM97.1748 46.9775H173.894L173.893 2.17578H97.1748V46.9775ZM175.271 48.3555H175.071L173.912 48.3545V52.4287H168.122V48.3545H102.948V52.4287H97.1582V48.3545H95.7998V0.799805H96L175.071 0.800781H175.271V48.3555Z" fill="#EA142E" stroke="#EA142E" stroke-width="0.4"/>
<path d="M108.21 9.77618V39.3768H106.834V9.77618H108.21Z" fill="#EA142E" stroke="#EA142E" stroke-width="0.4"/>
<path d="M119.416 9.77618V39.3768H118.04V9.77618H119.416Z" fill="#EA142E" stroke="#EA142E" stroke-width="0.4"/>
<path d="M130.621 9.77618V39.3768H129.245V9.77618H130.621Z" fill="#EA142E" stroke="#EA142E" stroke-width="0.4"/>
<path d="M141.825 9.77618V39.3768H140.449V9.77618H141.825Z" fill="#EA142E" stroke="#EA142E" stroke-width="0.4"/>
<path d="M153.031 9.77618V39.3768H151.655V9.77618H153.031Z" fill="#EA142E" stroke="#EA142E" stroke-width="0.4"/>
<path d="M164.234 9.77618V39.3768H162.858V9.77618H164.234Z" fill="#EA142E" stroke="#EA142E" stroke-width="0.4"/>
<path d="M169.498 118.052H172.535V115.354H169.498V118.052ZM98.5342 118.052H101.572V115.354H98.5342V118.052ZM97.1748 113.978H173.894L173.893 69.1758H97.1748V113.978ZM175.271 115.355H175.071L173.912 115.354V119.429H168.122V115.354H102.948V119.429H97.1582V115.354H95.7998V67.7998H96L175.071 67.8008H175.271V115.355Z" fill="#EA142E" stroke="#EA142E" stroke-width="0.4"/>
<path d="M108.21 76.7762V106.377H106.834V76.7762H108.21Z" fill="#EA142E" stroke="#EA142E" stroke-width="0.4"/>
<path d="M119.416 76.7762V106.377H118.04V76.7762H119.416Z" fill="#EA142E" stroke="#EA142E" stroke-width="0.4"/>
<path d="M130.621 76.7762V106.377H129.245V76.7762H130.621Z" fill="#EA142E" stroke="#EA142E" stroke-width="0.4"/>
<path d="M141.825 76.7762V106.377H140.449V76.7762H141.825Z" fill="#EA142E" stroke="#EA142E" stroke-width="0.4"/>
<path d="M153.031 76.7762V106.377H151.655V76.7762H153.031Z" fill="#EA142E" stroke="#EA142E" stroke-width="0.4"/>
<path d="M164.234 76.7762V106.377H162.858V76.7762H164.234Z" fill="#EA142E" stroke="#EA142E" stroke-width="0.4"/>
<path d="M169.498 185.052H172.535V182.354H169.498V185.052ZM98.5342 185.052H101.572V182.354H98.5342V185.052ZM97.1748 180.978H173.894L173.893 136.176H97.1748V180.978ZM175.271 182.355H175.071L173.912 182.354V186.429H168.122V182.354H102.948V186.429H97.1582V182.354H95.7998V134.8H96L175.071 134.801H175.271V182.355Z" fill="#EA142E" stroke="#EA142E" stroke-width="0.4"/>
<path d="M127.024 156.314H128.86C130.048 156.314 131.05 156.668 131.866 157.376C132.694 158.084 133.108 159.05 133.108 160.274C133.108 161.51 132.688 162.476 131.848 163.172C130.996 163.88 129.976 164.234 128.788 164.234C127.804 164.234 126.934 164 126.178 163.532C125.434 163.052 124.918 162.386 124.63 161.534L126.052 160.724C126.22 161.324 126.544 161.786 127.024 162.11C127.504 162.434 128.092 162.596 128.788 162.596C129.592 162.596 130.234 162.392 130.714 161.984C131.206 161.564 131.452 160.994 131.452 160.274C131.452 159.554 131.206 158.984 130.714 158.564C130.234 158.144 129.604 157.934 128.824 157.934H125.26L125.728 151.4H132.622V152.966H127.24L127.024 156.314ZM141.117 157.484C142.425 158.156 143.079 159.176 143.079 160.544C143.079 161.696 142.677 162.602 141.873 163.262C141.057 163.91 140.019 164.234 138.759 164.234C137.499 164.234 136.467 163.91 135.663 163.262C134.859 162.602 134.457 161.696 134.457 160.544C134.457 159.176 135.111 158.156 136.419 157.484C135.387 156.836 134.871 155.918 134.871 154.73C134.871 153.59 135.249 152.714 136.005 152.102C136.773 151.478 137.691 151.166 138.759 151.166C139.851 151.166 140.769 151.478 141.513 152.102C142.281 152.714 142.665 153.59 142.665 154.73C142.665 155.918 142.149 156.836 141.117 157.484ZM138.759 152.768C138.099 152.768 137.559 152.942 137.139 153.29C136.731 153.638 136.527 154.13 136.527 154.766C136.527 155.39 136.737 155.882 137.157 156.242C137.577 156.602 138.111 156.782 138.759 156.782C139.407 156.782 139.941 156.602 140.361 156.242C140.781 155.882 140.991 155.39 140.991 154.766C140.991 154.13 140.787 153.638 140.379 153.29C139.971 152.942 139.431 152.768 138.759 152.768ZM138.759 162.632C139.575 162.632 140.223 162.44 140.703 162.056C141.183 161.672 141.423 161.132 141.423 160.436C141.423 159.752 141.183 159.218 140.703 158.834C140.223 158.45 139.575 158.258 138.759 158.258C137.955 158.258 137.313 158.45 136.833 158.834C136.353 159.218 136.113 159.752 136.113 160.436C136.113 161.132 136.353 161.672 136.833 162.056C137.313 162.44 137.955 162.632 138.759 162.632Z" fill="#EA142E"/>
</svg>
