<svg width="224" height="152" viewBox="0 0 224 152" fill="none" xmlns="http://www.w3.org/2000/svg">
<path d="M157.148 66.5811H161.248V62.9248H157.148V66.5811ZM64.2559 66.5811H68.3555L68.3564 62.9248H64.2559V66.5811ZM62.4756 61.2471H163.026L163.024 2.47754H62.4756V61.2471ZM164.706 62.9277H164.506L162.927 62.9268V68.2598H155.472V62.9268H70.0332V68.2598H62.5771V62.9268H60.7998V0.799805H61L164.506 0.800781H164.706V62.9277Z" fill="#EA142E" stroke="#EA142E" stroke-width="0.4"/>
<path d="M76.9224 12.5501V51.1741H75.2446V12.5501H76.9224Z" fill="#EA142E" stroke="#EA142E" stroke-width="0.4"/>
<path d="M91.5906 12.5501V51.1741H89.9128V12.5501H91.5906Z" fill="#EA142E" stroke="#EA142E" stroke-width="0.4"/>
<path d="M106.259 12.5501V51.1741H104.581V12.5501H106.259Z" fill="#EA142E" stroke="#EA142E" stroke-width="0.4"/>
<path d="M120.925 12.5501V51.1741H119.247V12.5501H120.925Z" fill="#EA142E" stroke="#EA142E" stroke-width="0.4"/>
<path d="M135.593 12.5501V51.1741H133.915V12.5501H135.593Z" fill="#EA142E" stroke="#EA142E" stroke-width="0.4"/>
<path d="M150.259 12.5501V51.1741H148.581V12.5501H150.259Z" fill="#EA142E" stroke="#EA142E" stroke-width="0.4"/>
<path d="M97.1484 149.581H101.248V145.925H97.1484V149.581ZM4.25586 149.581H8.35547L8.35645 145.925H4.25586V149.581ZM2.47559 144.247H103.026L103.024 85.4775H2.47559V144.247ZM104.706 145.928H104.506L102.927 145.927V151.26H95.4717V145.927H10.0332V151.26H2.57715V145.927H0.799805V83.7998H1L104.506 83.8008H104.706V145.928Z" fill="#EA142E" stroke="#EA142E" stroke-width="0.4"/>
<path d="M16.9224 95.5501V134.174H15.2446V95.5501H16.9224Z" fill="#EA142E" stroke="#EA142E" stroke-width="0.4"/>
<path d="M31.5906 95.5501V134.174H29.9128V95.5501H31.5906Z" fill="#EA142E" stroke="#EA142E" stroke-width="0.4"/>
<path d="M46.2585 95.5501V134.174H44.5808V95.5501H46.2585Z" fill="#EA142E" stroke="#EA142E" stroke-width="0.4"/>
<path d="M60.9246 95.5501V134.174H59.2468V95.5501H60.9246Z" fill="#EA142E" stroke="#EA142E" stroke-width="0.4"/>
<path d="M75.5928 95.5501V134.174H73.915V95.5501H75.5928Z" fill="#EA142E" stroke="#EA142E" stroke-width="0.4"/>
<path d="M90.2588 95.5501V134.174H88.5811V95.5501H90.2588Z" fill="#EA142E" stroke="#EA142E" stroke-width="0.4"/>
<path d="M216.148 149.581H220.248V145.925H216.148V149.581ZM123.256 149.581H127.355L127.356 145.925H123.256V149.581ZM121.476 144.247H222.026L222.024 85.4775H121.476V144.247ZM223.706 145.928H223.506L221.927 145.927V151.26H214.472V145.927H129.033V151.26H121.577V145.927H119.8V83.7998H120L223.506 83.8008H223.706V145.928Z" fill="#EA142E" stroke="#EA142E" stroke-width="0.4"/>
<path d="M168.856 120H160.558V118.38L164.95 113.898C166.018 112.83 166.552 111.906 166.552 111.126C166.552 110.526 166.372 110.052 166.012 109.704C165.652 109.356 165.184 109.182 164.608 109.182C163.552 109.182 162.772 109.704 162.268 110.748L160.522 109.722C160.906 108.894 161.458 108.264 162.178 107.832C162.898 107.388 163.702 107.166 164.59 107.166C165.706 107.166 166.654 107.514 167.434 108.21C168.226 108.918 168.622 109.866 168.622 111.054C168.622 112.326 167.908 113.694 166.48 115.158L163.636 118.002H168.856V120ZM178.658 118.452C177.794 119.64 176.582 120.234 175.022 120.234C173.474 120.234 172.256 119.64 171.368 118.452C170.504 117.264 170.072 115.68 170.072 113.7C170.072 111.72 170.504 110.136 171.368 108.948C172.256 107.76 173.474 107.166 175.022 107.166C176.582 107.166 177.794 107.76 178.658 108.948C179.534 110.124 179.972 111.708 179.972 113.7C179.972 115.692 179.534 117.276 178.658 118.452ZM175.022 118.218C175.958 118.218 176.672 117.828 177.164 117.048C177.656 116.268 177.902 115.152 177.902 113.7C177.902 112.248 177.656 111.132 177.164 110.352C176.672 109.572 175.958 109.182 175.022 109.182C174.098 109.182 173.384 109.572 172.88 110.352C172.388 111.132 172.142 112.248 172.142 113.7C172.142 115.152 172.388 116.268 172.88 117.048C173.384 117.828 174.098 118.218 175.022 118.218Z" fill="#EA142E"/>
</svg>
