<svg width="37" height="30" viewBox="0 0 37 30" fill="none" xmlns="http://www.w3.org/2000/svg">
<path d="M32.2205 20.675C32.2205 20.675 31.9494 22.6375 31.1116 23.5C30.0396 24.6375 28.8444 24.6375 28.3023 24.7C24.3717 25 18.4821 25 18.4821 25C18.4821 25 11.2001 24.9375 8.94532 24.7125C8.31693 24.6 6.92461 24.625 5.85264 23.5C5.01478 22.6375 4.73139 20.675 4.73139 20.675C4.73139 20.675 4.448 18.375 4.448 16.075V13.9125C4.448 11.6125 4.73139 9.3125 4.73139 9.3125C4.73139 9.3125 5.00246 7.35 5.85264 6.4875C6.92461 5.35 8.10746 5.35 8.66193 5.2875C12.5925 5 18.4821 5 18.4821 5C18.4821 5 24.3964 5 28.3392 5.25C28.8814 5.375 30.0642 5.375 31.1732 6.45C32.011 7.325 32.2821 9.325 32.2821 9.275C32.2821 9.225 32.5655 11.525 32.5285 13.875V16.0375C32.5039 18.375 32.1589 20.625 32.1589 20.675H32.2205ZM15.5866 10.7V18.6875L23.1642 14.7125L15.5866 10.7Z" fill="white"/>
</svg>
