<svg width="33" height="33" viewBox="0 0 33 33" fill="none" xmlns="http://www.w3.org/2000/svg">
<path d="M16.5 0.612549C25.1582 0.612549 32.2002 7.65451 32.2002 16.3127C32.2002 24.971 25.1582 32.0129 16.5 32.0129C7.84177 32.0129 0.799805 24.971 0.799805 16.3127C0.799805 7.65451 7.84177 0.612549 16.5 0.612549ZM16.5 1.89966C8.52698 1.89966 2.08691 8.3407 2.08691 16.3137C2.08715 24.2865 8.52713 30.7268 16.5 30.7268C24.4729 30.7268 30.9128 24.2865 30.9131 16.3137C30.9131 8.34071 24.4726 1.89966 16.5 1.89966ZM17.1299 6.49731V15.9397L23.6963 19.634L23.8721 19.7327L23.7715 19.9075L23.3418 20.6604L23.2432 20.8323L23.0703 20.7356L16.1865 16.8635L15.9717 16.7424L15.8701 16.6848V6.49829H16.0693L16.9307 6.49731H17.1299Z" fill="#707C88" stroke="#707C88" stroke-width="0.4"/>
</svg>
