<svg width="42" height="48" viewBox="0 0 42 48" fill="none" xmlns="http://www.w3.org/2000/svg">
<path d="M26.5126 13.4447C26.1534 13.2397 25.692 13.3936 25.487 13.8039C25.2821 14.2142 25.4359 14.6245 25.8462 14.8294C32.7694 18.2653 40.4616 29.65 40.4616 40.4192C40.4616 43.3425 31.8975 45.5986 20.9231 45.5986C10.0513 45.5986 1.53843 43.291 1.53843 40.4192C1.53843 29.4448 8.66665 18.3679 15.282 14.9833C15.6412 14.7783 15.795 14.3165 15.5897 13.9577C15.3847 13.5986 14.9229 13.4447 14.5641 13.6501C7.53857 17.2397 0 28.8809 0 40.4706C0 42.7271 2.30761 44.4706 6.87172 45.7015C10.564 46.676 15.5385 47.1885 20.923 47.1885C28.7692 47.1885 42 45.7526 42 40.4706C41.9485 28.8809 33.9485 17.1373 26.5128 13.4449L26.5126 13.4447ZM25.6923 11.2394H16.2564C15.8461 11.2394 15.4873 11.5985 15.4873 12.0085C15.4873 12.4188 15.8465 12.7776 16.2564 12.7776H25.6923C26.1026 12.7776 26.4614 12.4184 26.4614 12.0085C26.4618 11.5985 26.1026 11.2394 25.6927 11.2394H25.6923ZM25.6923 8.98325H16.2564C15.8461 8.98325 15.4873 9.3424 15.4873 9.75234C15.4873 10.1626 15.8465 10.5214 16.2564 10.5214H25.6923C26.1026 10.5214 26.4614 10.1623 26.4614 9.75234C26.4618 9.34204 26.1026 8.98325 25.6927 8.98325H25.6923ZM14.6154 7.49589C14.7181 7.80353 15.0257 8.00886 15.3333 8.00886C15.436 8.00886 15.5383 8.00886 15.5898 7.9577C16.0001 7.80388 16.2051 7.34243 16.0513 6.98325L14.5643 3.13709C14.9746 3.39357 15.4872 3.65006 16.3078 3.65006C17.3333 3.65006 17.8463 3.23975 18.3078 2.93212C18.6669 2.67564 18.8719 2.52182 19.3849 2.52182C19.8978 2.52182 20.154 2.67564 20.5131 2.93212C20.9234 3.23976 21.4875 3.65006 22.5131 3.65006C23.5386 3.65006 24.0516 3.23975 24.5131 2.93212C24.8722 2.67564 25.0772 2.52182 25.6413 2.52182C26.1543 2.52182 26.4104 2.67564 26.7695 2.93212C26.9745 3.08594 27.231 3.23976 27.5386 3.39358L25.5386 6.77829C25.3336 7.13744 25.4359 7.59889 25.7951 7.8554C26.1542 8.11189 26.6157 7.95807 26.8722 7.59892L29.4363 3.23975C29.5901 2.98327 29.5901 2.72678 29.4363 2.47067C29.2825 2.21418 29.026 2.06036 28.7695 2.06036C28.2565 2.06036 28.0004 1.90654 27.6413 1.65006C27.231 1.34242 26.6669 0.932129 25.6413 0.932129C24.6157 0.932129 24.1027 1.34243 23.6413 1.65006C23.2821 1.90654 23.0772 2.06036 22.5131 2.06036C22.0001 2.06036 21.744 1.90654 21.3849 1.65006C20.9746 1.34242 20.4104 0.932129 19.3849 0.932129C18.3593 0.932129 17.8463 1.34243 17.3849 1.65006C17.0257 1.90654 16.8208 2.06036 16.3078 2.06036C15.7948 2.06036 15.5387 1.90654 15.1796 1.65006C14.7693 1.34242 14.2051 0.932129 13.1796 0.932129C12.9231 0.932129 12.6666 1.03479 12.5643 1.29128C12.4616 1.54776 12.4105 1.75274 12.4616 2.00921L14.6154 7.49589ZM27.077 10.573C27.0258 10.8295 27.1281 11.0345 27.2819 11.2398L30.1536 14.1115C30.3075 14.2653 30.5128 14.3165 30.7178 14.3165C30.9227 14.3165 31.1281 14.2653 31.2819 14.1115C31.5895 13.8038 31.5895 13.3424 31.2819 13.0344L29.128 10.8805L31.5895 9.49582C31.9486 9.29085 32.1025 8.82904 31.8971 8.47027C31.6921 8.11112 31.2303 7.9573 30.8716 8.16263L27.5384 10.06C27.2308 10.1111 27.1285 10.3676 27.077 10.5729V10.573Z" fill="#EA142E"/>
<path d="M24.0085 33.3584L25.3175 34.1064C24.9888 34.8884 24.5072 35.4891 23.8725 35.9084C23.2378 36.3164 22.4955 36.5204 21.6455 36.5204C20.4102 36.5204 19.3902 36.1068 18.5855 35.2794C17.7922 34.4408 17.2935 33.2904 17.0895 31.8284H15.8485V30.7234H16.9875V30.3494C16.9875 30.0774 16.9932 29.9018 17.0045 29.8224H15.8485V28.7344H17.1065C17.3332 27.3178 17.8432 26.2071 18.6365 25.4024C19.4298 24.5864 20.4328 24.1784 21.6455 24.1784C23.3908 24.1784 24.6092 24.9661 25.3005 26.5414L23.9915 27.2894C23.5155 26.2354 22.7335 25.7084 21.6455 25.7084C20.8748 25.7084 20.2345 25.9691 19.7245 26.4904C19.2258 27.0118 18.8858 27.7598 18.7045 28.7344H22.7335V29.8224H18.5855C18.5742 29.9018 18.5685 30.0774 18.5685 30.3494V30.7234H22.7335V31.8284H18.6875C18.8462 32.8371 19.1805 33.6134 19.6905 34.1574C20.2005 34.7014 20.8522 34.9734 21.6455 34.9734C22.7562 34.9734 23.5438 34.4351 24.0085 33.3584Z" fill="#EA142E"/>
</svg>
