<svg width="39" height="47" viewBox="0 0 39 47" fill="none" xmlns="http://www.w3.org/2000/svg">
<path d="M26.7295 0.723389C26.8954 0.723434 27.0544 0.789555 27.1719 0.906982L37.8662 11.6003C37.9837 11.7178 38.0498 11.8777 38.0498 12.0437V46.2888L38.0371 46.4148C37.9788 46.7002 37.7261 46.9154 37.4238 46.9158H1.57617C1.23032 46.9157 0.950195 46.6347 0.950195 46.2888V1.34937C0.950272 1.00356 1.23037 0.723465 1.57617 0.723389H26.7295ZM2.20312 45.6628H36.7988V12.6882H26.1572C25.8114 12.6882 25.5314 12.4081 25.5312 12.0623V1.97534H2.20312V45.6628ZM26.7822 11.4353H35.9297L26.7822 2.28687V11.4353Z" fill="#EA142E" stroke="#EA142E" stroke-width="0.1"/>
<path d="M29.183 17.9708C29.5287 17.971 29.8089 18.2511 29.809 18.5968C29.809 18.9426 29.5288 19.2226 29.183 19.2228H9.81775C9.4719 19.2227 9.19177 18.9427 9.19177 18.5968C9.19185 18.251 9.47194 17.9709 9.81775 17.9708H29.183Z" fill="#EA142E" stroke="#EA142E" stroke-width="0.1"/>
<path d="M9.81909 24.7214L29.1843 24.7488C29.53 24.7498 29.8098 25.0299 29.8093 25.3757C29.8085 25.7214 29.5287 26.0006 29.1833 26.0007H29.1824L9.81714 25.9734C9.4714 25.9724 9.1917 25.6923 9.19214 25.3464C9.19311 25.0008 9.47274 24.7215 9.81812 24.7214H9.81909Z" fill="#EA142E" stroke="#EA142E" stroke-width="0.1"/>
<path d="M16.4343 31.5278C16.4832 31.528 16.5235 31.556 16.5535 31.5913C16.5835 31.6268 16.6088 31.6748 16.6287 31.73C16.6686 31.8411 16.6922 31.9914 16.6921 32.1548C16.692 32.3181 16.6677 32.4678 16.6277 32.5786C16.6077 32.6338 16.5827 32.682 16.5525 32.7173C16.5225 32.7523 16.483 32.7797 16.4343 32.7798H16.4333L9.44897 32.7524C9.40042 32.752 9.36069 32.725 9.33081 32.6899C9.30068 32.6544 9.27553 32.6056 9.25562 32.5503C9.21564 32.4392 9.19206 32.2888 9.19214 32.1255C9.19231 31.9623 9.21562 31.8124 9.25562 31.7017C9.27554 31.6465 9.30068 31.5983 9.33081 31.563C9.36082 31.5278 9.4011 31.5005 9.44995 31.5005L16.4343 31.5278Z" fill="#EA142E" stroke="#EA142E" stroke-width="0.1"/>
<path d="M16.4343 38.3071C16.4832 38.3073 16.5235 38.3353 16.5535 38.3706C16.5835 38.4061 16.6088 38.4541 16.6287 38.5093C16.6686 38.6204 16.6922 38.7707 16.6921 38.9341C16.692 39.0974 16.6677 39.2471 16.6277 39.3579C16.6077 39.4131 16.5827 39.4613 16.5525 39.4966C16.5225 39.5316 16.483 39.559 16.4343 39.5591H16.4333L9.44897 39.5317C9.40042 39.5313 9.36069 39.5043 9.33081 39.4692C9.30068 39.4337 9.27553 39.3849 9.25562 39.3296C9.21564 39.2185 9.19206 39.0681 9.19214 38.9048C9.19231 38.7416 9.21562 38.5917 9.25562 38.481C9.27554 38.4258 9.30068 38.3776 9.33081 38.3423C9.36082 38.3071 9.4011 38.2798 9.44995 38.2798L16.4343 38.3071Z" fill="#EA142E" stroke="#EA142E" stroke-width="0.1"/>
<path d="M33.489 31.2793L24.3728 40.2959L20.3103 36.2773L21.5251 35.0762L24.3386 37.8584L24.3738 37.8926L24.4089 37.8584L32.2732 30.0762L33.489 31.2793Z" fill="#EA142E" stroke="#EA142E" stroke-width="0.1"/>
</svg>
