<svg width="54" height="35" viewBox="0 0 54 35" fill="none" xmlns="http://www.w3.org/2000/svg">
<path d="M1 0.849609L53 0.850586H53.1504V32.1611H53L52.2559 32.1602V34.8398H48.4121V32.1602H5.58789V34.8398H1.74316V32.1602H0.849609V0.849609H1ZM49.3535 33.8975H51.3135V32.1602H49.3535V33.8975ZM2.68555 33.8975H4.64551L4.64648 32.1602H2.68555V33.8975ZM1.79102 31.2178H52.207L52.2061 1.79199H1.79102V31.2178Z" fill="#EA142E" stroke="#EA142E" stroke-width="0.3"/>
<path d="M20.922 15.6408C21.8833 16.1728 22.364 16.9661 22.364 18.0208C22.364 18.9075 22.0513 19.6121 21.426 20.1348C20.81 20.6575 19.9793 20.9188 18.934 20.9188C17.8887 20.9188 17.0533 20.6621 16.428 20.1488C15.8027 19.6355 15.49 18.9261 15.49 18.0208C15.49 17.5168 15.616 17.0595 15.868 16.6488C16.12 16.2288 16.4747 15.8928 16.932 15.6408C16.1947 15.1555 15.826 14.4648 15.826 13.5688C15.826 12.6728 16.1247 11.9821 16.722 11.4968C17.3287 11.0021 18.066 10.7548 18.934 10.7548C19.7927 10.7548 20.5253 11.0021 21.132 11.4968C21.7387 11.9915 22.042 12.6821 22.042 13.5688C22.042 14.4555 21.6687 15.1461 20.922 15.6408ZM18.934 12.2808C18.486 12.2808 18.122 12.4021 17.842 12.6448C17.5713 12.8781 17.436 13.2095 17.436 13.6388C17.436 14.0495 17.576 14.3808 17.856 14.6328C18.136 14.8755 18.4953 14.9968 18.934 14.9968C19.3633 14.9968 19.718 14.8755 19.998 14.6328C20.2873 14.3808 20.432 14.0495 20.432 13.6388C20.432 13.2095 20.292 12.8781 20.012 12.6448C19.732 12.4021 19.3727 12.2808 18.934 12.2808ZM18.934 19.3928C19.4847 19.3928 19.9233 19.2575 20.25 18.9868C20.586 18.7161 20.754 18.3428 20.754 17.8668C20.754 17.3908 20.586 17.0175 20.25 16.7468C19.9233 16.4761 19.4847 16.3408 18.934 16.3408C18.374 16.3408 17.926 16.4761 17.59 16.7468C17.2633 17.0175 17.1 17.3908 17.1 17.8668C17.1 18.3428 17.2633 18.7161 17.59 18.9868C17.926 19.2575 18.374 19.3928 18.934 19.3928ZM25.3289 14.6328H26.5609C27.4943 14.6328 28.2829 14.9128 28.9269 15.4728C29.5709 16.0235 29.8929 16.7888 29.8929 17.7688C29.8929 18.7488 29.5616 19.5188 28.8989 20.0788C28.2456 20.6388 27.4336 20.9188 26.4629 20.9188C25.6696 20.9188 24.9789 20.7368 24.3909 20.3728C23.8029 20.0088 23.3829 19.4908 23.1309 18.8188L24.5169 18.0208C24.7876 18.9075 25.4363 19.3508 26.4629 19.3508C27.0136 19.3508 27.4523 19.2108 27.7789 18.9308C28.1149 18.6415 28.2829 18.2541 28.2829 17.7688C28.2829 17.2928 28.1196 16.9148 27.7929 16.6348C27.4663 16.3455 27.0323 16.2008 26.4909 16.2008H23.6349L24.0129 10.9368H29.4729V12.4488H25.4969L25.3289 14.6328ZM34.6864 11.3988C35.1251 11.8375 35.3444 12.3695 35.3444 12.9948C35.3444 13.6201 35.1251 14.1521 34.6864 14.5908C34.2571 15.0201 33.7157 15.2348 33.0624 15.2348C32.3997 15.2348 31.8537 15.0201 31.4244 14.5908C30.9857 14.1521 30.7664 13.6201 30.7664 12.9948C30.7664 12.3788 30.9857 11.8515 31.4244 11.4128C31.8631 10.9741 32.4091 10.7548 33.0624 10.7548C33.7157 10.7548 34.2571 10.9695 34.6864 11.3988ZM33.0484 14.0028C33.3471 14.0028 33.5897 13.9095 33.7764 13.7228C33.9631 13.5268 34.0564 13.2841 34.0564 12.9948C34.0564 12.7055 33.9631 12.4628 33.7764 12.2668C33.5897 12.0708 33.3471 11.9728 33.0484 11.9728C32.7591 11.9728 32.5211 12.0708 32.3344 12.2668C32.1477 12.4628 32.0544 12.7055 32.0544 12.9948C32.0544 13.2748 32.1477 13.5128 32.3344 13.7088C32.5304 13.9048 32.7684 14.0028 33.0484 14.0028ZM32.3484 19.7428L31.5924 19.2948L38.0464 12.1128L38.8024 12.5468L32.3484 19.7428ZM37.5424 20.9048C36.8797 20.9048 36.3337 20.6901 35.9044 20.2608C35.4657 19.8221 35.2464 19.2901 35.2464 18.6648C35.2464 18.0488 35.4657 17.5215 35.9044 17.0828C36.3431 16.6441 36.8891 16.4248 37.5424 16.4248C38.1864 16.4248 38.7277 16.6441 39.1664 17.0828C39.6051 17.5215 39.8244 18.0488 39.8244 18.6648C39.8244 19.2901 39.6051 19.8221 39.1664 20.2608C38.7371 20.6901 38.1957 20.9048 37.5424 20.9048ZM37.5284 19.6728C37.8271 19.6728 38.0697 19.5795 38.2564 19.3928C38.4431 19.1968 38.5364 18.9541 38.5364 18.6648C38.5364 18.3755 38.4431 18.1328 38.2564 17.9368C38.0697 17.7408 37.8271 17.6428 37.5284 17.6428C37.2391 17.6428 37.0011 17.7408 36.8144 17.9368C36.6277 18.1328 36.5344 18.3755 36.5344 18.6648C36.5344 18.9448 36.6277 19.1828 36.8144 19.3788C37.0104 19.5748 37.2484 19.6728 37.5284 19.6728Z" fill="#EA142E"/>
</svg>
